<svg version="1.1" xmlns="http://www.w3.org/2000/svg" viewBox="0 0 1331.666666666667 710.3095238095245" width="1331.666666666667" height="710.3095238095245">
  <!-- svg-source:excalidraw -->
  
  <defs>
    <style class="style-fonts">
      @font-face {
        font-family: "Virgil";
        src: url("https://excalidraw.com/Virgil.woff2");
      }
      @font-face {
        font-family: "Cascadia";
        src: url("https://excalidraw.com/Cascadia.woff2");
      }
      @font-face {
        font-family: "Assistant";
        src: url("https://excalidraw.com/Assistant-Regular.woff2");
      }
    </style>
    
  </defs>
  <rect x="0" y="0" width="1331.666666666667" height="710.3095238095245" fill="#ffffff"></rect><g stroke-linecap="round" transform="translate(10 124.30952380952453) rotate(0 655.8333333333335 288)"><path d="M32 0 C338.64 -1.8, 644.98 -1.46, 1279.67 0 M1279.67 0 C1299.35 0.95, 1313.49 12.59, 1311.67 32 M1311.67 32 C1310.48 189.05, 1310.75 347.43, 1311.67 544 M1311.67 544 C1310.68 565.85, 1300.5 574.14, 1279.67 576 M1279.67 576 C837.89 572, 396.36 572.51, 32 576 M32 576 C10.19 574.83, -1.87 565.05, 0 544 M0 544 C0.8 350.38, -0.3 156.52, 0 32 M0 32 C-0.25 9.22, 12.5 -1.3, 32 0" stroke="#1e1e1e" stroke-width="4.5" fill="none" stroke-dasharray="1.5 10"></path></g><g stroke-linecap="round"><g transform="translate(70.80202701429971 133.0104257124001) rotate(0 2.197972985700062 57.37569260647956)"><path d="M0 0 C-17.06 10.09, -37.42 15.15, -45.42 21.93 M0 0 C-10.15 4.69, -19.72 9.09, -45.42 21.93 M-45.42 21.93 C-46.72 40.27, -51.13 57.34, -56.01 73.9 M-45.42 21.93 C-47.71 37.73, -51.53 51.87, -56.01 73.9 M-56.01 73.9 C-48.23 83.88, -41.84 93.28, -23.23 114.8 M-56.01 73.9 C-49.05 82.82, -39.92 93.88, -23.23 114.8 M-23.23 114.8 C-12.05 116.29, 2.73 114.82, 27.77 115.98 M-23.23 114.8 C-5.6 116.15, 12.74 115.71, 27.77 115.98 M27.77 115.98 C34.81 103.3, 47.64 93.56, 60.4 74.07 M27.77 115.98 C40.39 99.18, 54.44 83.11, 60.4 74.07 M60.4 74.07 C60.28 65.36, 55.31 54.17, 51.98 26.41 M60.4 74.07 C57.91 60.98, 55.51 49.37, 51.98 26.41 M51.98 26.41 C38.26 19.91, 28.96 12.46, 0.96 -1.23 M51.98 26.41 C39.94 19.73, 27.14 12.41, 0.96 -1.23" stroke="#aaa" stroke-width="4" fill="none"></path></g></g><mask></mask><g stroke-linecap="round"><g transform="translate(72.06413156622875 132.0171822621221) rotate(0 0.515261923807202 57.79521245372075)" fill-rule="evenodd"><path d="M-0.08 -1.83 L-44.71 21.09 L-57.1 75.08 L-26.43 116.16 L25.12 117.08 L59.76 75.15 L45 22.47 L0.01 0.41" stroke="none" stroke-width="0" fill="#228be6" fill-rule="evenodd"></path><path d="M0 0 C-11.68 3.41, -22.23 10.84, -46.03 22.16 M0 0 C-16.87 7.35, -31.29 16.17, -46.03 22.16 M-46.03 22.16 C-47.57 36.09, -52.08 52.01, -57.19 73.85 M-46.03 22.16 C-48.47 34.11, -51.68 46.43, -57.19 73.85 M-57.19 73.85 C-47.79 87.75, -39.61 96.03, -25.59 114.9 M-57.19 73.85 C-46.5 87.58, -38.19 99.97, -25.59 114.9 M-25.59 114.9 C-9.6 114.19, 4.88 114.9, 25.59 115.59 M-25.59 114.9 C-13.67 114.54, -0.19 115.29, 25.59 115.59 M25.59 115.59 C38.7 102.83, 49.8 86.3, 58.22 73.68 M25.59 115.59 C34.76 105.12, 41.81 93.67, 58.22 73.68 M58.22 73.68 C53.57 62.85, 51.78 50.05, 46.89 21.98 M58.22 73.68 C54.86 59.85, 51.38 44.42, 46.89 21.98 M46.89 21.98 C33.05 13.97, 16.01 6.53, 0 0 M46.89 21.98 C30.5 13.53, 13.97 7.63, 0 0 M0 0 C0 0, 0 0, 0 0 M0 0 C0 0, 0 0, 0 0" stroke="#fff" stroke-width="2" fill="none"></path></g></g><mask></mask><g stroke-linecap="round"><g transform="translate(72.47227058244425 187.34993068352446) rotate(0 -0.21239179539770703 -19.375425371320034)"><path d="M-0.53 -0.51 C-0.65 -6.86, -0.21 -32.13, -0.26 -38.51 M0.2 0.42 C-0.02 -6.05, -0.62 -32.92, -0.61 -39.36" stroke="#fff" stroke-width="4" fill="none"></path></g></g><mask></mask><g stroke-linecap="round"><g transform="translate(55.21904517402754 227.88496633025738) rotate(0 7.5370796032623275 -16.022764117678207)"><path d="M0.35 0.52 C2.9 -4.65, 11.87 -26.64, 14.15 -32.12 M-0.92 -0.26 C2.1 -5.13, 13.5 -25.47, 16.37 -30.62" stroke="#fff" stroke-width="4" fill="none"></path></g></g><mask></mask><g stroke-linecap="round"><g transform="translate(91.58414360630832 228.06956073854303) rotate(0 -8.540738159293596 -16.004412902719196)"><path d="M-0.93 -0.07 C-4.01 -5.54, -15.56 -27.16, -18.16 -32.28 M0.78 -1.15 C-1.98 -6.49, -13.06 -25.65, -16.02 -30.88" stroke="#fff" stroke-width="4" fill="none"></path></g></g><mask></mask><g stroke-linecap="round"><g transform="translate(113.12609460150907 199.36513025011868) rotate(0 -18.07003043573968 -3.389904812906707)"><path d="M-0.5 -0.12 C-6.4 -1.16, -29.92 -5.21, -35.88 -6.23 M0.25 -0.66 C-5.67 -1.83, -30.03 -5.85, -36.18 -6.92" stroke="#fff" stroke-width="4" fill="none"></path></g></g><mask></mask><g stroke-linecap="round"><g transform="translate(31.775555321745287 199.27283304597563) rotate(0 18.152093365124983 -3.5356322738871313)"><path d="M0.26 0.55 C6.38 -0.53, 30.18 -5.34, 36.2 -6.56 M-0.27 0.35 C5.81 -0.85, 29.66 -5.93, 35.72 -7.26" stroke="#fff" stroke-width="4" fill="none"></path></g></g><mask></mask><g stroke-linecap="round"><g transform="translate(39.62081767388736 165.39975912555224) rotate(0 13.949864929891646 11.173667150840402)"><path d="M-0.22 1.12 C4.37 4.75, 23.47 19.51, 28.09 23.02 M-1.79 0.66 C2.6 4.45, 22.52 17.45, 27.24 21.25" stroke="#fff" stroke-width="4" fill="none"></path></g></g><mask></mask><g stroke-linecap="round"><g transform="translate(105.05953541116332 164.84597590069484) rotate(0 -14.491496335861939 11.182572193646592)"><path d="M0.19 0.67 C-4.67 4.19, -24.58 18.75, -29.37 22.22 M-1.17 -0.02 C-6.2 4.2, -25.87 19.95, -30.53 23.68" stroke="#fff" stroke-width="4" fill="none"></path></g></g><mask></mask><g stroke-linecap="round" transform="translate(43.43535370736663 162.29576858394353) rotate(0 29.119767907066944 29.212065111209995)"><path d="M35.1 0.25 C41.13 0.68, 47.56 4.75, 51.52 9.57 C55.49 14.4, 58.85 22.68, 58.87 29.19 C58.9 35.69, 55.81 43.66, 51.68 48.62 C47.56 53.58, 40.42 58.12, 34.13 58.94 C27.84 59.76, 19.29 56.88, 13.92 53.52 C8.54 50.16, 4.02 44.36, 1.88 38.8 C-0.27 33.25, -1.18 26.1, 1.05 20.19 C3.27 14.28, 9.15 6.51, 15.23 3.32 C21.32 0.13, 33.51 1.04, 37.58 1.05 C41.65 1.06, 39.7 2.95, 39.64 3.39 M36.7 2.35 C42.26 3.87, 48.88 8.03, 52.38 13.24 C55.88 18.45, 58.2 27.61, 57.69 33.63 C57.17 39.64, 53.96 44.97, 49.31 49.32 C44.65 53.66, 35.92 58.97, 29.74 59.72 C23.56 60.47, 17.25 57.95, 12.24 53.81 C7.23 49.67, 1.33 41.3, -0.3 34.86 C-1.94 28.43, -0.75 20.58, 2.44 15.18 C5.63 9.79, 13.1 4.91, 18.82 2.48 C24.53 0.05, 33.73 0.52, 36.72 0.61 C39.71 0.71, 36.47 2.66, 36.76 3.04" stroke="#fff" stroke-width="4" fill="none"></path></g><g stroke-linecap="round" transform="translate(64.15607603743501 182.73959930158367) rotate(0 8.122153964570089 8.675937189427259)"><path d="M9.34 -0.34 C10.97 -0.18, 13.33 1.38, 14.5 2.89 C15.68 4.4, 16.38 6.79, 16.37 8.73 C16.37 10.67, 15.63 13.21, 14.48 14.53 C13.32 15.86, 11.14 16.41, 9.45 16.68 C7.76 16.94, 5.87 16.84, 4.33 16.12 C2.79 15.4, 0.82 14.12, 0.22 12.37 C-0.38 10.63, 0.12 7.51, 0.74 5.66 C1.37 3.8, 2.56 2.1, 3.97 1.22 C5.38 0.35, 8.21 0.58, 9.21 0.41 C10.22 0.23, 9.93 0.09, 10 0.18 M6.46 -0.08 C8.16 -0.45, 10.76 0.76, 12.38 1.68 C13.99 2.59, 15.66 3.56, 16.15 5.39 C16.63 7.23, 15.94 10.75, 15.29 12.71 C14.65 14.66, 13.84 16.43, 12.26 17.12 C10.68 17.8, 7.66 17.39, 5.82 16.81 C3.98 16.23, 2.12 15.06, 1.22 13.65 C0.32 12.25, 0.36 10.25, 0.42 8.38 C0.48 6.5, 0.54 3.69, 1.58 2.4 C2.61 1.11, 5.59 1.09, 6.63 0.63 C7.68 0.17, 7.67 -0.36, 7.84 -0.36" stroke="#fff" stroke-width="4" fill="none"></path></g><g transform="translate(141.40003967285156 178.64285714285757) rotate(0 35.59996032714844 12.5)"><text x="35.59996032714844" y="0" font-family="Virgil, Segoe UI Emoji" font-size="20px" fill="#1e1e1e" text-anchor="middle" style="white-space: pre;" direction="ltr" dominant-baseline="text-before-edge">Cluster</text></g><g stroke-linecap="round" transform="translate(136.94047619047706 241.66666666666765) rotate(0 164.16666666666652 213.33333333333348)"><path d="M32 0 C125.94 -1.64, 218.99 -2.79, 296.33 0 M32 0 C124.79 0.48, 219.65 1.66, 296.33 0 M296.33 0 C317.21 -0.84, 328.28 11.59, 328.33 32 M296.33 0 C319.05 1.3, 330.34 9.75, 328.33 32 M328.33 32 C330.06 123.89, 330.17 214.88, 328.33 394.67 M328.33 32 C329.18 120.71, 329.51 209.59, 328.33 394.67 M328.33 394.67 C328.28 417.89, 317.53 427.67, 296.33 426.67 M328.33 394.67 C328.52 416.57, 317.6 427.76, 296.33 426.67 M296.33 426.67 C220.79 425.44, 147.21 425.24, 32 426.67 M296.33 426.67 C237.23 427.42, 179.48 426.51, 32 426.67 M32 426.67 C10.22 426.29, -1.6 415.67, 0 394.67 M32 426.67 C11.1 425.96, -2.27 415.81, 0 394.67 M0 394.67 C-0.94 296.58, -0.93 199.63, 0 32 M0 394.67 C-2.05 267.11, -1.45 139.21, 0 32 M0 32 C1.14 11.43, 9.73 -0.58, 32 0 M0 32 C-1.88 8.62, 12.66 2.2, 32 0" stroke="#1e1e1e" stroke-width="4" fill="none"></path></g><g stroke-linecap="round"><g transform="translate(188.09213676645504 245.48205673225652) rotate(0 1.3483394240217876 35.19693318579448)"><path d="M0 0 C-5.36 2.25, -14.15 6.68, -27.86 13.45 M0 0 C-9.93 5.22, -20.67 8.92, -27.86 13.45 M-27.86 13.45 C-30.42 25.47, -32.47 34.96, -34.36 45.33 M-27.86 13.45 C-29.61 25.29, -33.83 39.63, -34.36 45.33 M-34.36 45.33 C-29.37 52.3, -23.52 59.34, -14.25 70.42 M-34.36 45.33 C-27.08 53.04, -20.39 61.9, -14.25 70.42 M-14.25 70.42 C-4.26 69.01, 9.08 72.32, 17.04 71.15 M-14.25 70.42 C-3.98 70.25, 7.99 70.7, 17.04 71.15 M17.04 71.15 C23.12 62.52, 33.26 49.69, 37.06 45.44 M17.04 71.15 C23.22 63.89, 28.6 56.04, 37.06 45.44 M37.06 45.44 C35.22 38.48, 34.57 34.68, 31.88 16.2 M37.06 45.44 C36.13 36.88, 34.44 29.88, 31.88 16.2 M31.88 16.2 C22.55 10.75, 12.43 5.77, 0.59 -0.75 M31.88 16.2 C26.19 13.77, 18.8 9.89, 0.59 -0.75" stroke="#aaa" stroke-width="4" fill="none"></path></g></g><mask></mask><g stroke-linecap="round"><g transform="translate(188.86637072459507 244.87275474794092) rotate(0 0.31608576178450676 35.45428628015702)" fill-rule="evenodd"><path d="M1.08 0.3 L-27.67 12.57 L-36.76 45.44 L-14.94 71.61 L16.81 71.73 L36.4 43.6 L26.9 13.55 L-1.29 1.81" stroke="none" stroke-width="0" fill="#228be6" fill-rule="evenodd"></path><path d="M0 0 C-7.97 3.82, -11.05 7.07, -28.24 13.59 M0 0 C-12.15 4.5, -21.89 10.07, -28.24 13.59 M-28.24 13.59 C-29.36 18.95, -29.23 26.04, -35.09 45.31 M-28.24 13.59 C-30.47 23.21, -31.53 31.51, -35.09 45.31 M-35.09 45.31 C-32.05 50.31, -24.45 59.76, -15.7 70.49 M-35.09 45.31 C-26.54 55.58, -19.57 64.96, -15.7 70.49 M-15.7 70.49 C-5.46 72.23, 3.5 70.61, 15.7 70.91 M-15.7 70.49 C-8.35 70.32, -1.08 70.73, 15.7 70.91 M15.7 70.91 C22.23 61.98, 27.06 57.88, 35.72 45.2 M15.7 70.91 C20.26 64.71, 23 59.68, 35.72 45.2 M35.72 45.2 C33.94 40.14, 32.48 32.75, 28.76 13.49 M35.72 45.2 C34.03 37.31, 31.99 29.08, 28.76 13.49 M28.76 13.49 C18.43 8.44, 4.52 4.15, 0 0 M28.76 13.49 C18.24 9.4, 8.57 4.51, 0 0 M0 0 C0 0, 0 0, 0 0 M0 0 C0 0, 0 0, 0 0" stroke="#fff" stroke-width="2" fill="none"></path></g></g><mask></mask><g stroke-linecap="round"><g transform="translate(189.0478228658908 256.33856642140904) rotate(0 0.19316747069342455 21.486189734145455)" fill-rule="evenodd"><path d="M0.28 -0.51 L-18.09 8.31 L-21.06 28.02 L-9.04 43.13 L9.94 42.17 L20.9 27.42 L16.93 9.08 L-0.26 0.1" stroke="none" stroke-width="0" fill="#fff" fill-rule="evenodd"></path><path d="M0 0 C-4.25 2.91, -8.6 4.5, -17.26 8.24 M0 0 C-5.18 2.13, -11.31 5.11, -17.26 8.24 M-17.26 8.24 C-17.68 14.06, -20.26 21.86, -21.44 27.46 M-17.26 8.24 C-18.19 12.87, -19.36 16.53, -21.44 27.46 M-21.44 27.46 C-18.35 31.73, -14.8 35.85, -9.59 42.72 M-21.44 27.46 C-17.75 31.93, -14.71 35.78, -9.59 42.72 M-9.59 42.72 C-5.02 42.52, -2.13 42.19, 9.59 42.97 M-9.59 42.72 C-4.72 42.75, -0.77 42.45, 9.59 42.97 M9.59 42.97 C13.9 38.21, 17.71 32.31, 21.83 27.39 M9.59 42.97 C12.51 38.45, 15.91 34.14, 21.83 27.39 M21.83 27.39 C20.51 22.81, 19.31 17.94, 17.58 8.17 M21.83 27.39 C20.81 22.97, 20.05 17.78, 17.58 8.17 M17.58 8.17 C11.62 6.41, 8.08 4.39, 0 0 M17.58 8.17 C11.13 5.31, 4.2 1.63, 0 0 M0 0 C0 0, 0 0, 0 0 M0 0 C0 0, 0 0, 0 0" stroke="#fff" stroke-width="2" fill="none"></path></g></g><mask></mask><g stroke-linecap="round" transform="translate(180.0686914410917 277.3453051417712) rotate(0 3.1204335526149407 3.160749231589307)"><path d="M2.76 0.2 C3.34 0.15, 4.26 0.01, 4.83 0.42 C5.4 0.83, 6.01 1.99, 6.19 2.67 C6.37 3.35, 6.17 3.93, 5.9 4.47 C5.62 5.02, 5.19 5.61, 4.54 5.95 C3.9 6.28, 2.73 6.7, 2.01 6.47 C1.28 6.24, 0.46 5.18, 0.19 4.56 C-0.08 3.93, 0.19 3.35, 0.37 2.7 C0.55 2.05, 0.85 1.14, 1.28 0.66 C1.71 0.18, 2.66 -0.02, 2.94 -0.17 C3.22 -0.32, 2.91 -0.34, 2.96 -0.24 M4.03 0.35 C4.65 0.45, 5.35 0.84, 5.71 1.24 C6.07 1.64, 6.28 2.07, 6.19 2.76 C6.1 3.45, 5.51 4.75, 5.16 5.37 C4.82 6, 4.72 6.46, 4.12 6.49 C3.52 6.52, 2.27 5.96, 1.57 5.55 C0.87 5.14, 0.13 4.61, -0.07 4.01 C-0.26 3.42, 0.07 2.56, 0.4 1.96 C0.73 1.36, 1.4 0.81, 1.91 0.41 C2.42 0.02, 3.15 -0.38, 3.48 -0.42 C3.81 -0.45, 3.93 0.12, 3.88 0.23" stroke="#228be6" stroke-width="2" fill="none"></path></g><g stroke-linecap="round"><g transform="translate(183.19718812950168 277.44206277131) rotate(0 0.17738898748712018 -0.620861456205148)"><path d="M-0.03 0.05 C-0.06 -0.27, -0.06 -1.32, 0.04 -1.58 M-0.47 -0.23 C-0.42 -0.37, 0.52 -1.13, 0.67 -1.3" stroke="#228be6" stroke-width="2" fill="none"></path></g></g><mask></mask><g stroke-linecap="round"><g transform="translate(185.27747716457907 278.0064822769507) rotate(0 0.620861456205148 -0.23383093805114186)"><path d="M-0.32 -0.34 C-0.07 -0.47, 1.25 -0.73, 1.45 -0.75 M0.16 0.26 C0.39 0.15, 1.04 -0.39, 1.29 -0.44" stroke="#228be6" stroke-width="2" fill="none"></path></g></g><mask></mask><g stroke-linecap="round"><g transform="translate(186.06766447247583 280.44154928700186) rotate(0 0.8143767152819237 0.16126271589746466)"><path d="M0.21 -0.28 C0.49 -0.17, 1.06 0.22, 1.32 0.33 M-0.11 0.34 C0.3 0.54, 1.67 0.71, 1.95 0.78" stroke="#228be6" stroke-width="2" fill="none"></path></g></g><mask></mask><g stroke-linecap="round"><g transform="translate(185.5193712384248 282.8604900254629) rotate(0 0.4273461971281449 0.5241038266665328)"><path d="M-0.31 0.01 C-0.19 0.24, 0.81 0.87, 0.96 1.11 M0.17 -0.3 C0.24 0.02, 0.54 1.39, 0.74 1.58" stroke="#228be6" stroke-width="2" fill="none"></path></g></g><mask></mask><g stroke-linecap="round"><g transform="translate(183.11655677155295 283.7151824197192) rotate(0 -0.09675762953838785 0.6934296783588252)"><path d="M0.11 0.06 C0.08 0.34, -0.36 1.52, -0.44 1.73 M-0.27 -0.22 C-0.15 -0.02, 0.3 0.97, 0.23 1.28" stroke="#228be6" stroke-width="2" fill="none"></path></g></g><mask></mask><g stroke-linecap="round"><g transform="translate(181.22978299555325 282.60246968002707) rotate(0 -0.5482932340512434 0.620861456205148)"><path d="M-0.25 0.34 C-0.48 0.52, -1.19 1.04, -1.28 1.15 M0.27 0.21 C0.15 0.43, -0.4 1.38, -0.58 1.55" stroke="#228be6" stroke-width="2" fill="none"></path></g></g><mask></mask><g stroke-linecap="round"><g transform="translate(180.48797450242546 280.4254230154122) rotate(0 -1.0562707891281207 0)"><path d="M-0.18 -0.09 C-0.43 -0.19, -1.4 -0.34, -1.76 -0.27 M0.37 -0.45 C0.12 -0.36, -1.53 0, -1.86 0.05" stroke="#228be6" stroke-width="2" fill="none"></path></g></g><mask></mask><g stroke-linecap="round"><g transform="translate(181.56843469893784 278.0871136348994) rotate(0 -0.620861456205148 -0.16126271589746466)"><path d="M0.35 -0.27 C0.13 -0.25, -1.22 0, -1.48 0.03 M0.1 0.36 C0.01 0.3, -0.56 -0.24, -0.8 -0.42" stroke="#228be6" stroke-width="2" fill="none"></path></g></g><mask></mask><g stroke-linecap="round" transform="translate(188.1900206750638 279.6786500182077) rotate(0 4.815615833200354 4.877833092027231)"><path d="M4.69 -0.16 C5.58 -0.24, 6.84 0.17, 7.67 0.91 C8.5 1.65, 9.39 3.16, 9.65 4.29 C9.9 5.41, 9.76 6.74, 9.2 7.66 C8.64 8.58, 7.28 9.5, 6.29 9.82 C5.31 10.15, 4.2 10.04, 3.27 9.6 C2.34 9.16, 1.28 8.18, 0.72 7.18 C0.16 6.18, -0.3 4.61, -0.09 3.63 C0.12 2.65, 1.12 1.9, 2 1.29 C2.88 0.67, 4.71 0.17, 5.19 -0.06 C5.66 -0.29, 4.91 -0.21, 4.84 -0.09 M4.37 -0.43 C5.32 -0.53, 7.16 0.37, 7.95 1.04 C8.75 1.7, 8.85 2.64, 9.13 3.55 C9.41 4.47, 9.96 5.58, 9.64 6.52 C9.32 7.46, 8.19 8.76, 7.22 9.2 C6.25 9.64, 4.95 9.45, 3.82 9.15 C2.68 8.85, 1.11 8.22, 0.41 7.4 C-0.3 6.57, -0.57 5.21, -0.43 4.19 C-0.29 3.18, 0.37 2.01, 1.25 1.29 C2.13 0.57, 4.27 0.12, 4.84 -0.1 C5.41 -0.32, 4.68 -0.1, 4.67 -0.04" stroke="#228be6" stroke-width="2" fill="none"></path></g><g stroke-linecap="round"><g transform="translate(193.01807996002935 279.82797143939183) rotate(0 0.2737559388383488 -0.9581457859339935)"><path d="M0.05 0.21 C0.16 -0.21, 0.38 -1.77, 0.44 -2.18 M-0.35 0.01 C-0.27 -0.22, 0.03 -1.52, 0.1 -1.87" stroke="#228be6" stroke-width="2" fill="none"></path></g></g><mask></mask><g stroke-linecap="round"><g transform="translate(196.22849051549656 280.69901306296856) rotate(0 0.9581457859339935 -0.3608601011958399)"><path d="M-0.11 -0.27 C0.17 -0.48, 1.46 -1.01, 1.74 -1.07 M0.48 0.36 C0.87 0.16, 2.15 -0.7, 2.44 -0.8" stroke="#228be6" stroke-width="2" fill="none"></path></g></g><mask></mask><g stroke-linecap="round"><g transform="translate(197.4479487885037 284.456935496112) rotate(0 1.2567886283029566 0.24886903530750715)"><path d="M-0.18 -0.35 C0.21 -0.21, 1.71 0.38, 2.18 0.57 M0.38 0.24 C0.87 0.29, 2.46 -0.02, 2.81 -0.01" stroke="#228be6" stroke-width="2" fill="none"></path></g></g><mask></mask><g stroke-linecap="round"><g transform="translate(196.60179406845782 288.1899710257246) rotate(0 0.6595029435650304 0.8088243647493982)"><path d="M-0.33 0.07 C-0.06 0.45, 1.15 1.66, 1.47 1.91 M0.15 -0.2 C0.4 0.12, 1.04 1.08, 1.27 1.43" stroke="#228be6" stroke-width="2" fill="none"></path></g></g><mask></mask><g stroke-linecap="round"><g transform="translate(192.8936454423756 289.5089769128542) rotate(0 -0.14932142118459524 1.0701368518223262)"><path d="M0.15 0.29 C0.2 0.62, -0.02 1.73, -0.04 2.08 M-0.2 0.13 C-0.15 0.51, -0.22 2.22, -0.19 2.5" stroke="#228be6" stroke-width="2" fill="none"></path></g></g><mask></mask><g stroke-linecap="round"><g transform="translate(189.98187772927804 287.7917805692325) rotate(0 -0.8461547200456607 0.9581457859339935)"><path d="M0.26 -0.06 C0.01 0.25, -1.06 1.79, -1.35 2.14 M-0.04 -0.4 C-0.32 -0.21, -1.19 1.33, -1.45 1.64" stroke="#228be6" stroke-width="2" fill="none"></path></g></g><mask></mask><g stroke-linecap="round"><g transform="translate(188.83708016686296 284.43204859258117) rotate(0 -1.6300921812642173 0)"><path d="M0.34 0.23 C-0.21 0.26, -2.46 0.22, -3.06 0.15 M0.09 0.04 C-0.51 -0.03, -2.64 -0.41, -3.24 -0.4" stroke="#228be6" stroke-width="2" fill="none"></path></g></g><mask></mask><g stroke-linecap="round"><g transform="translate(190.5045027034239 280.8234475806223) rotate(0 -0.9581457859339935 -0.24886903530750715)"><path d="M0.2 0.15 C-0.19 -0.01, -1.55 -0.62, -1.95 -0.7 M-0.13 -0.09 C-0.59 -0.22, -2.01 -0.21, -2.24 -0.35" stroke="#228be6" stroke-width="2" fill="none"></path></g></g><mask></mask><g stroke-linecap="round" transform="translate(190.99258393935997 268.96583504928617) rotate(0 3.1204335526149407 3.160749231589307)"><path d="M2.84 -0.03 C3.38 -0.23, 3.99 -0.12, 4.5 0.28 C5 0.67, 5.63 1.61, 5.86 2.34 C6.08 3.07, 6.08 4.05, 5.86 4.64 C5.64 5.23, 5.15 5.6, 4.54 5.91 C3.93 6.21, 2.81 6.66, 2.18 6.48 C1.55 6.31, 1.13 5.4, 0.76 4.88 C0.38 4.36, -0.02 3.97, -0.06 3.38 C-0.11 2.78, 0.04 1.85, 0.5 1.32 C0.95 0.79, 2.32 0.47, 2.65 0.21 C2.98 -0.04, 2.5 -0.18, 2.49 -0.21 M3.3 -0.1 C4 -0.2, 4.64 0.06, 5.17 0.44 C5.7 0.82, 6.31 1.43, 6.47 2.16 C6.63 2.9, 6.45 4.15, 6.12 4.87 C5.8 5.6, 5.08 6.28, 4.52 6.54 C3.95 6.8, 3.39 6.66, 2.72 6.43 C2.04 6.21, 0.92 5.84, 0.48 5.17 C0.04 4.49, -0.05 3.05, 0.07 2.39 C0.2 1.73, 0.69 1.54, 1.24 1.22 C1.79 0.89, 3.07 0.6, 3.35 0.46 C3.64 0.32, 2.93 0.33, 2.93 0.35" stroke="#228be6" stroke-width="2" fill="none"></path></g><g stroke-linecap="round"><g transform="translate(194.12108062776952 269.06259267882456) rotate(0 0.17738898748712018 -0.620861456205148)"><path d="M-0.3 0.2 C-0.2 0.05, 0.5 -0.78, 0.59 -1.07 M0.19 -0.01 C0.27 -0.24, 0.47 -1.4, 0.44 -1.61" stroke="#228be6" stroke-width="2" fill="none"></path></g></g><mask></mask><g stroke-linecap="round"><g transform="translate(196.20136966284645 269.6270121844657) rotate(0 0.620861456205148 -0.23383093805114186)"><path d="M0.24 0.17 C0.49 0.01, 1.04 -0.61, 1.17 -0.76 M-0.07 -0.05 C0.15 -0.19, 0.55 -0.39, 0.86 -0.45" stroke="#228be6" stroke-width="2" fill="none"></path></g></g><mask></mask><g stroke-linecap="round"><g transform="translate(196.99155697074366 272.06207919451685) rotate(0 0.8143767152819237 0.16126271589746466)"><path d="M-0.07 -0.29 C0.13 -0.31, 1.1 0.01, 1.42 0.08 M-0.53 0.33 C-0.24 0.34, 1.74 0.39, 2.1 0.41" stroke="#228be6" stroke-width="2" fill="none"></path></g></g><mask></mask><g stroke-linecap="round"><g transform="translate(196.44326373669264 274.4810199329779) rotate(0 0.4273461971281449 0.5241038266665328)"><path d="M-0.21 -0.24 C-0.03 -0.05, 0.8 0.67, 1.03 0.88 M0.32 0.4 C0.48 0.66, 0.71 1.08, 0.84 1.24" stroke="#228be6" stroke-width="2" fill="none"></path></g></g><mask></mask><g stroke-linecap="round"><g transform="translate(194.04044926982124 275.3357123272342) rotate(0 -0.09675762953838785 0.6934296783588252)"><path d="M0.18 -0.17 C0.23 0.09, 0.2 1.13, 0.13 1.33 M-0.16 0.51 C-0.11 0.85, 0.07 1.62, 0.01 1.76" stroke="#228be6" stroke-width="2" fill="none"></path></g></g><mask></mask><g stroke-linecap="round"><g transform="translate(192.15367549382108 274.22299958754206) rotate(0 -0.5482932340512434 0.620861456205148)"><path d="M0.32 -0.05 C0.1 0.13, -0.94 0.69, -1.14 0.93 M0.06 -0.39 C-0.23 -0.16, -1.27 0.86, -1.44 1.22" stroke="#228be6" stroke-width="2" fill="none"></path></g></g><mask></mask><g stroke-linecap="round"><g transform="translate(191.41186700069284 272.04595292292674) rotate(0 -1.0562707891281207 0)"><path d="M-0.04 -0.32 C-0.41 -0.29, -1.48 0.06, -1.87 0.1 M-0.49 0.29 C-0.91 0.21, -1.83 -0.48, -2.02 -0.48" stroke="#228be6" stroke-width="2" fill="none"></path></g></g><mask></mask><g stroke-linecap="round"><g transform="translate(192.49232719720567 269.7076435424144) rotate(0 -0.620861456205148 -0.16126271589746466)"><path d="M0.25 0.1 C0.01 0.08, -1.3 -0.27, -1.49 -0.39 M-0.06 -0.16 C-0.18 -0.09, -0.67 0.07, -0.82 0.03" stroke="#228be6" stroke-width="2" fill="none"></path></g></g><mask></mask><g stroke-linecap="round"><g transform="translate(136.94047619047706 325.0000000000007) rotate(0 165.83333333333348 -0.8333333333332575)"><path d="M0.68 0.67 C55.8 0.3, 276.35 -1.26, 331.48 -1.79 M-0.42 -0.02 C54.46 -0.24, 275.26 -0.05, 330.43 -0.32" stroke="#1e1e1e" stroke-width="4" fill="none"></path></g></g><mask></mask><g stroke-linecap="round" transform="translate(549.7461432543455 238.46967273978112) rotate(0 164.16666666666652 213.33333333333348)"><path d="M32 0 C86.56 0.86, 140.4 2.86, 296.33 0 M32 0 C103.4 -1.59, 174.77 -0.88, 296.33 0 M296.33 0 C315.96 1.12, 326.79 12.15, 328.33 32 M296.33 0 C317.67 0.87, 327.57 12, 328.33 32 M328.33 32 C325.98 140.32, 325.86 246.84, 328.33 394.67 M328.33 32 C326.57 168.77, 326.36 304.42, 328.33 394.67 M328.33 394.67 C328.74 416.25, 316.55 425.88, 296.33 426.67 M328.33 394.67 C327.18 413.95, 317.46 427.71, 296.33 426.67 M296.33 426.67 C200.43 429.29, 104.84 427.71, 32 426.67 M296.33 426.67 C225.51 425.98, 154.91 425.45, 32 426.67 M32 426.67 C10.29 427.08, 0.09 416.26, 0 394.67 M32 426.67 C11.04 427.53, 1.58 415.68, 0 394.67 M0 394.67 C-0.83 308.15, -0.17 218.56, 0 32 M0 394.67 C-1.47 260.14, -2.03 125.69, 0 32 M0 32 C1.02 12.34, 9.45 0.18, 32 0 M0 32 C0.13 10.29, 9.78 1.02, 32 0" stroke="#1e1e1e" stroke-width="4" fill="none"></path></g><g stroke-linecap="round"><g transform="translate(590.8978038303239 242.28506280536953) rotate(0 1.3483394240217876 35.19693318579448)"><path d="M0 0 C-5.6 4.84, -13.5 4.47, -27.86 13.45 M0 0 C-8.99 4.33, -19.84 9.49, -27.86 13.45 M-27.86 13.45 C-28.32 19.89, -29.36 27.57, -34.36 45.33 M-27.86 13.45 C-28.15 19.81, -30.13 27.65, -34.36 45.33 M-34.36 45.33 C-29.29 50.67, -27.56 56.34, -14.25 70.42 M-34.36 45.33 C-28.72 52.35, -22.03 61.54, -14.25 70.42 M-14.25 70.42 C-2.42 71.95, 9.82 70.21, 17.04 71.15 M-14.25 70.42 C-6.23 70.57, 2.07 70.1, 17.04 71.15 M17.04 71.15 C22.87 64.24, 28.99 58.06, 37.06 45.44 M17.04 71.15 C23 63.77, 29.6 56.94, 37.06 45.44 M37.06 45.44 C34.73 39.75, 34.5 30.74, 31.88 16.2 M37.06 45.44 C34.58 35.84, 33.52 25.85, 31.88 16.2 M31.88 16.2 C24.27 10.23, 13.98 5.25, 0.59 -0.75 M31.88 16.2 C23.49 11.87, 14.03 6.23, 0.59 -0.75" stroke="#aaa" stroke-width="4" fill="none"></path></g></g><mask></mask><g stroke-linecap="round"><g transform="translate(591.672037788464 241.67576082105393) rotate(0 0.31608576178450676 35.45428628015702)" fill-rule="evenodd"><path d="M-0.78 0.84 L-27.66 14.27 L-34.16 46.52 L-15.9 71.16 L15.24 69.73 L34.32 44.9 L29.52 11.87 L0.37 -0.25" stroke="none" stroke-width="0" fill="#228be6" fill-rule="evenodd"></path><path d="M0 0 C-8.03 2.17, -14.07 7.98, -28.24 13.59 M0 0 C-6.67 3.39, -12.48 6.41, -28.24 13.59 M-28.24 13.59 C-29.01 23.01, -34.01 34.17, -35.09 45.31 M-28.24 13.59 C-29.62 23.02, -32.6 30.13, -35.09 45.31 M-35.09 45.31 C-30 54.16, -21.7 61.09, -15.7 70.49 M-35.09 45.31 C-30.25 52.49, -24.47 57.85, -15.7 70.49 M-15.7 70.49 C-2.81 69.89, 6.84 69.72, 15.7 70.91 M-15.7 70.49 C-7.54 69.84, 1.2 70.96, 15.7 70.91 M15.7 70.91 C22.51 64.42, 27.57 54.07, 35.72 45.2 M15.7 70.91 C23.43 62.75, 28.74 54.15, 35.72 45.2 M35.72 45.2 C33.38 32.74, 31.16 21.86, 28.76 13.49 M35.72 45.2 C33.3 32.87, 30.19 21.32, 28.76 13.49 M28.76 13.49 C20.5 8.24, 14.89 7.06, 0 0 M28.76 13.49 C17.83 7.93, 6.82 3.13, 0 0 M0 0 C0 0, 0 0, 0 0 M0 0 C0 0, 0 0, 0 0" stroke="#fff" stroke-width="2" fill="none"></path></g></g><mask></mask><g stroke-linecap="round"><g transform="translate(591.8534899297592 253.14157249452205) rotate(0 0.19316747069342455 21.486189734145455)" fill-rule="evenodd"><path d="M0.29 0.34 L-16.79 8.84 L-21.54 27.8 L-9.82 42.13 L8.89 42.82 L22.2 26.58 L17.76 8.05 L-0.18 0.61" stroke="none" stroke-width="0" fill="#fff" fill-rule="evenodd"></path><path d="M0 0 C-6.36 3.4, -14.37 6.83, -17.26 8.24 M0 0 C-5.57 2.87, -10.36 5.16, -17.26 8.24 M-17.26 8.24 C-19.19 14.13, -19.69 19.31, -21.44 27.46 M-17.26 8.24 C-18.77 12.93, -19.27 18.66, -21.44 27.46 M-21.44 27.46 C-17.78 31.54, -14.69 36.23, -9.59 42.72 M-21.44 27.46 C-18.64 30.28, -16.12 33.97, -9.59 42.72 M-9.59 42.72 C-2.74 42.43, 4.49 42.62, 9.59 42.97 M-9.59 42.72 C-4.18 42.96, 1.43 43, 9.59 42.97 M9.59 42.97 C13.3 37.43, 17.7 33.16, 21.83 27.39 M9.59 42.97 C13 38.52, 17.43 33.19, 21.83 27.39 M21.83 27.39 C20.55 20.7, 19.46 12.4, 17.58 8.17 M21.83 27.39 C20.32 21.66, 18.87 15.66, 17.58 8.17 M17.58 8.17 C13.36 6.24, 10.14 4.78, 0 0 M17.58 8.17 C11.75 5.33, 6.1 2.86, 0 0 M0 0 C0 0, 0 0, 0 0 M0 0 C0 0, 0 0, 0 0" stroke="#fff" stroke-width="2" fill="none"></path></g></g><mask></mask><g stroke-linecap="round" transform="translate(582.8743585049606 274.14831121488464) rotate(0 3.1204335526149407 3.160749231589307)"><path d="M3.56 -0.25 C4.24 -0.19, 5.09 0.41, 5.56 0.91 C6.03 1.41, 6.3 2.08, 6.35 2.76 C6.41 3.43, 6.33 4.32, 5.88 4.94 C5.43 5.56, 4.34 6.24, 3.65 6.47 C2.96 6.7, 2.31 6.62, 1.73 6.31 C1.15 6, 0.41 5.3, 0.18 4.59 C-0.05 3.88, 0.21 2.72, 0.36 2.07 C0.5 1.42, 0.5 1.04, 1.04 0.7 C1.58 0.36, 3.22 0.12, 3.58 0.03 C3.94 -0.07, 3.21 0.13, 3.19 0.15 M2.87 0.23 C3.6 0.16, 4.68 -0.15, 5.29 0.23 C5.89 0.62, 6.33 1.75, 6.5 2.52 C6.67 3.29, 6.66 4.32, 6.29 4.88 C5.91 5.44, 4.96 5.69, 4.25 5.89 C3.54 6.08, 2.68 6.23, 2.04 6.06 C1.39 5.88, 0.73 5.46, 0.36 4.85 C-0.01 4.25, -0.25 3.06, -0.17 2.42 C-0.09 1.77, 0.35 1.37, 0.87 0.98 C1.39 0.59, 2.58 0.19, 2.94 0.07 C3.29 -0.05, 2.94 0.23, 3 0.26" stroke="#228be6" stroke-width="2" fill="none"></path></g><g stroke-linecap="round"><g transform="translate(586.0028551933701 274.2450688444235) rotate(0 0.17738898748712018 -0.620861456205148)"><path d="M0.17 0 C0.17 -0.12, 0.07 -0.88, 0.05 -1.04 M-0.17 -0.31 C-0.07 -0.51, 0.53 -1.36, 0.69 -1.56" stroke="#228be6" stroke-width="2" fill="none"></path></g></g><mask></mask><g stroke-linecap="round"><g transform="translate(588.083144228448 274.8094883500637) rotate(0 0.620861456205148 -0.23383093805114186)"><path d="M-0.3 0.2 C-0.17 0.17, 0.71 -0.12, 0.97 -0.2 M0.19 -0.01 C0.41 -0.14, 1.48 -0.54, 1.62 -0.69" stroke="#228be6" stroke-width="2" fill="none"></path></g></g><mask></mask><g stroke-linecap="round"><g transform="translate(588.8733315363443 277.2445553601158) rotate(0 0.8143767152819237 0.16126271589746466)"><path d="M-0.27 0.26 C0.05 0.31, 1.33 0.41, 1.63 0.46 M0.23 0.09 C0.53 0.01, 1.19 -0.07, 1.35 -0.1" stroke="#228be6" stroke-width="2" fill="none"></path></g></g><mask></mask><g stroke-linecap="round"><g transform="translate(588.3250383022933 279.66349609857593) rotate(0 0.4273461971281449 0.5241038266665328)"><path d="M0 0.13 C0.17 0.3, 0.6 1.15, 0.74 1.25 M-0.43 -0.1 C-0.29 -0.06, 0.23 0.56, 0.4 0.74" stroke="#228be6" stroke-width="2" fill="none"></path></g></g><mask></mask><g stroke-linecap="round"><g transform="translate(585.9222238354214 280.5181884928327) rotate(0 -0.09675762953838785 0.6934296783588252)"><path d="M-0.12 0.21 C-0.15 0.36, -0.24 0.89, -0.21 1.07 M0.47 0 C0.38 0.18, -0.42 1.09, -0.49 1.36" stroke="#228be6" stroke-width="2" fill="none"></path></g></g><mask></mask><g stroke-linecap="round"><g transform="translate(584.0354500594212 279.40547575314054) rotate(0 -0.5482932340512434 0.620861456205148)"><path d="M-0.01 -0.32 C-0.13 -0.16, -0.69 0.91, -0.82 1.15 M-0.45 0.29 C-0.58 0.48, -0.89 1.36, -0.96 1.55" stroke="#228be6" stroke-width="2" fill="none"></path></g></g><mask></mask><g stroke-linecap="round"><g transform="translate(583.2936415662944 277.2284290885257) rotate(0 -1.0562707891281207 0)"><path d="M0.28 -0.09 C-0.02 -0.06, -1.43 -0.19, -1.82 -0.13 M-0.01 -0.45 C-0.33 -0.34, -1.58 0.23, -1.94 0.26" stroke="#228be6" stroke-width="2" fill="none"></path></g></g><mask></mask><g stroke-linecap="round"><g transform="translate(584.3741017628063 274.89011970801243) rotate(0 -0.620861456205148 -0.16126271589746466)"><path d="M0.3 -0.13 C0.06 -0.12, -0.85 0.03, -1.16 -0.05 M0.02 -0.5 C-0.28 -0.58, -1.25 -0.56, -1.4 -0.54" stroke="#228be6" stroke-width="2" fill="none"></path></g></g><mask></mask><g stroke-linecap="round" transform="translate(590.9956877389322 276.4816560913207) rotate(0 4.815615833200354 4.877833092027231)"><path d="M4.28 0.06 C5.25 -0.15, 6.23 0.28, 7.09 0.79 C7.94 1.31, 9.08 2.2, 9.43 3.16 C9.77 4.11, 9.6 5.51, 9.16 6.51 C8.72 7.51, 7.66 8.58, 6.8 9.14 C5.94 9.7, 5 10.04, 3.99 9.87 C2.99 9.7, 1.44 8.95, 0.79 8.14 C0.13 7.32, -0.03 6.08, 0.08 4.98 C0.18 3.89, 0.76 2.4, 1.43 1.55 C2.11 0.7, 3.66 0.15, 4.14 -0.11 C4.62 -0.36, 4.28 -0.08, 4.3 0.01 M4.2 0.11 C5.19 -0.07, 6.55 0.41, 7.48 0.95 C8.4 1.48, 9.5 2.33, 9.75 3.33 C10 4.33, 9.42 5.95, 8.98 6.93 C8.54 7.92, 7.88 8.73, 7.09 9.23 C6.31 9.73, 5.32 10.1, 4.26 9.93 C3.2 9.77, 1.38 9.12, 0.74 8.21 C0.1 7.3, 0.28 5.56, 0.43 4.47 C0.58 3.37, 1.02 2.35, 1.63 1.64 C2.24 0.93, 3.63 0.39, 4.1 0.21 C4.57 0.03, 4.47 0.5, 4.44 0.56" stroke="#228be6" stroke-width="2" fill="none"></path></g><g stroke-linecap="round"><g transform="translate(595.8237470238973 276.63097751250484) rotate(0 0.2737559388383488 -0.9581457859339935)"><path d="M-0.31 -0.29 C-0.21 -0.63, 0.53 -1.42, 0.67 -1.74 M0.18 0.33 C0.23 -0.14, 0.43 -1.89, 0.46 -2.27" stroke="#228be6" stroke-width="2" fill="none"></path></g></g><mask></mask><g stroke-linecap="round"><g transform="translate(599.0341575793655 277.502019136082) rotate(0 0.9581457859339935 -0.3608601011958399)"><path d="M0.13 0.18 C0.5 0.06, 1.62 -0.85, 1.93 -1 M-0.24 -0.04 C0.12 -0.09, 1.32 -0.65, 1.66 -0.69" stroke="#228be6" stroke-width="2" fill="none"></path></g></g><mask></mask><g stroke-linecap="round"><g transform="translate(600.2536158523717 281.25994156922593) rotate(0 1.2567886283029566 0.24886903530750715)"><path d="M0.01 -0.28 C0.42 -0.21, 2.2 0.44, 2.59 0.54 M-0.41 0.35 C-0.05 0.46, 1.95 0.96, 2.35 1.01" stroke="#228be6" stroke-width="2" fill="none"></path></g></g><mask></mask><g stroke-linecap="round"><g transform="translate(599.4074611323258 284.99297709883854) rotate(0 0.6595029435650304 0.8088243647493982)"><path d="M0.07 0.04 C0.26 0.34, 0.94 1.27, 1.12 1.48 M-0.32 -0.24 C-0.02 0.12, 1.62 1.56, 1.82 1.86" stroke="#228be6" stroke-width="2" fill="none"></path></g></g><mask></mask><g stroke-linecap="round"><g transform="translate(595.6993125062445 286.31198298596814) rotate(0 -0.14932142118459524 1.0701368518223262)"><path d="M-0.2 -0.14 C-0.29 0.16, -0.46 1.42, -0.48 1.82 M0.35 -0.52 C0.37 -0.19, 0.38 1.74, 0.23 2.11" stroke="#228be6" stroke-width="2" fill="none"></path></g></g><mask></mask><g stroke-linecap="round"><g transform="translate(592.7875447931465 284.594786642346) rotate(0 -0.8461547200456607 0.9581457859339935)"><path d="M-0.18 -0.32 C-0.43 0.05, -1.51 1.75, -1.72 2.08 M0.38 0.29 C0.09 0.56, -1.69 1.27, -2.02 1.54" stroke="#228be6" stroke-width="2" fill="none"></path></g></g><mask></mask><g stroke-linecap="round"><g transform="translate(591.6427472307314 281.23505466569463) rotate(0 -1.6300921812642173 0)"><path d="M-0.03 0.16 C-0.51 0.17, -2.54 -0.25, -3.03 -0.27 M-0.48 -0.06 C-0.96 0.01, -2.75 -0.05, -3.19 0.05" stroke="#228be6" stroke-width="2" fill="none"></path></g></g><mask></mask><g stroke-linecap="round"><g transform="translate(593.3101697672928 277.6264536537358) rotate(0 -0.9581457859339935 -0.24886903530750715)"><path d="M0.23 -0.27 C-0.04 -0.36, -1.36 -0.42, -1.67 -0.42 M-0.08 0.36 C-0.38 0.14, -1.54 -0.8, -1.82 -1" stroke="#228be6" stroke-width="2" fill="none"></path></g></g><mask></mask><g stroke-linecap="round" transform="translate(593.798251003228 265.7688411223992) rotate(0 3.1204335526149407 3.160749231589307)"><path d="M3.39 -0.12 C3.98 -0.08, 4.84 0.4, 5.31 0.9 C5.78 1.4, 6.19 2.19, 6.19 2.87 C6.2 3.56, 5.73 4.44, 5.34 5 C4.96 5.57, 4.49 6.08, 3.89 6.26 C3.29 6.43, 2.33 6.3, 1.74 6.03 C1.16 5.76, 0.65 5.29, 0.37 4.62 C0.1 3.96, -0.11 2.72, 0.09 2.04 C0.29 1.36, 0.97 0.82, 1.56 0.54 C2.14 0.26, 3.22 0.46, 3.6 0.35 C3.99 0.25, 3.82 -0.11, 3.85 -0.07 M2.83 0.17 C3.44 0.15, 4.71 0.64, 5.21 1.02 C5.71 1.4, 5.72 1.87, 5.84 2.44 C5.97 3.02, 6.23 3.82, 5.95 4.46 C5.68 5.1, 4.87 5.95, 4.2 6.27 C3.53 6.59, 2.6 6.65, 1.94 6.36 C1.27 6.08, 0.6 5.16, 0.2 4.56 C-0.2 3.96, -0.58 3.3, -0.45 2.75 C-0.32 2.21, 0.38 1.71, 0.98 1.27 C1.58 0.83, 2.85 0.38, 3.17 0.14 C3.48 -0.11, 2.95 -0.21, 2.89 -0.21" stroke="#228be6" stroke-width="2" fill="none"></path></g><g stroke-linecap="round"><g transform="translate(596.9267476916384 265.865598751938) rotate(0 0.17738898748712018 -0.620861456205148)"><path d="M0.26 0.23 C0.27 -0.01, 0.27 -1.1, 0.26 -1.36 M-0.03 0.04 C-0.1 -0.16, -0.05 -0.79, -0.06 -0.97" stroke="#228be6" stroke-width="2" fill="none"></path></g></g><mask></mask><g stroke-linecap="round"><g transform="translate(599.0070367267153 266.43001825757915) rotate(0 0.620861456205148 -0.23383093805114186)"><path d="M-0.09 -0.12 C0.04 -0.25, 0.89 -0.5, 1.09 -0.57 M0.5 -0.48 C0.56 -0.58, 0.68 -0.22, 0.74 -0.17" stroke="#228be6" stroke-width="2" fill="none"></path></g></g><mask></mask><g stroke-linecap="round"><g transform="translate(599.7972240346126 268.8650852676303) rotate(0 0.8143767152819237 0.16126271589746466)"><path d="M-0.15 -0.1 C0.12 -0.03, 1.24 0.25, 1.51 0.28 M0.42 -0.46 C0.64 -0.33, 1.04 0.58, 1.17 0.7" stroke="#228be6" stroke-width="2" fill="none"></path></g></g><mask></mask><g stroke-linecap="round"><g transform="translate(599.2489308005615 271.2840260060914) rotate(0 0.4273461971281449 0.5241038266665328)"><path d="M-0.12 -0.05 C0.03 0.1, 0.57 0.57, 0.72 0.76 M0.47 -0.38 C0.57 -0.19, 0.36 0.75, 0.37 1.07" stroke="#228be6" stroke-width="2" fill="none"></path></g></g><mask></mask><g stroke-linecap="round"><g transform="translate(596.8461163336897 272.1387184003472) rotate(0 -0.09675762953838785 0.6934296783588252)"><path d="M-0.13 -0.28 C-0.16 -0.03, -0.25 1.17, -0.26 1.46 M0.44 0.34 C0.38 0.48, -0.43 0.62, -0.57 0.87" stroke="#228be6" stroke-width="2" fill="none"></path></g></g><mask></mask><g stroke-linecap="round"><g transform="translate(594.9593425576895 271.0260056606551) rotate(0 -0.5482932340512434 0.620861456205148)"><path d="M-0.07 0.07 C-0.22 0.33, -0.92 1.07, -1.08 1.29 M-0.53 -0.2 C-0.72 0.15, -1.23 1.6, -1.35 1.76" stroke="#228be6" stroke-width="2" fill="none"></path></g></g><mask></mask><g stroke-linecap="round"><g transform="translate(594.2175340645617 268.8489589960402) rotate(0 -1.0562707891281207 0)"><path d="M0.02 0.05 C-0.32 0.06, -1.74 0.15, -2.05 0.13 M-0.4 -0.24 C-0.77 -0.34, -2.04 -0.51, -2.3 -0.42" stroke="#228be6" stroke-width="2" fill="none"></path></g></g><mask></mask><g stroke-linecap="round"><g transform="translate(595.2979942610737 266.5106496155279) rotate(0 -0.620861456205148 -0.16126271589746466)"><path d="M0.06 0.13 C-0.11 0.06, -0.75 -0.32, -1 -0.37 M-0.34 -0.1 C-0.54 -0.12, -0.91 0.17, -1.15 0.05" stroke="#228be6" stroke-width="2" fill="none"></path></g></g><mask></mask><g stroke-linecap="round"><g transform="translate(549.7461432543455 321.80300607311415) rotate(0 165.83333333333348 -0.8333333333332575)"><path d="M0.82 -0.17 C55.95 -0.44, 275.81 -0.95, 330.97 -1.19 M-0.2 -1.3 C55.3 -1.98, 278.1 -3.24, 333.32 -3.06" stroke="#1e1e1e" stroke-width="4" fill="none"></path></g></g><mask></mask><g stroke-linecap="round" transform="translate(959.7461432543455 235.13633940644763) rotate(0 164.16666666666652 213.33333333333348)"><path d="M32 0 C85.19 -0.65, 138.3 -0.61, 296.33 0 M32 0 C92.9 1.79, 153.13 1.82, 296.33 0 M296.33 0 C319.4 -0.66, 330.22 10.24, 328.33 32 M296.33 0 C317.74 -1.44, 327.92 9.28, 328.33 32 M328.33 32 C326.46 142.81, 326.69 250.7, 328.33 394.67 M328.33 32 C330.5 142.93, 331.16 253.86, 328.33 394.67 M328.33 394.67 C329.26 415.54, 317.28 427.34, 296.33 426.67 M328.33 394.67 C330.05 415.42, 319.55 426.83, 296.33 426.67 M296.33 426.67 C199.57 426.77, 100.55 425.92, 32 426.67 M296.33 426.67 C235.68 425.27, 174.97 424.79, 32 426.67 M32 426.67 C9.21 427.72, -1.62 414.92, 0 394.67 M32 426.67 C9.32 428.55, -0.72 414.61, 0 394.67 M0 394.67 C-0.32 285.4, -0.95 175.35, 0 32 M0 394.67 C-2.38 295.58, -2.69 196.41, 0 32 M0 32 C-0.25 11.02, 9.79 1.94, 32 0 M0 32 C1.14 10.31, 8.39 -0.16, 32 0" stroke="#1e1e1e" stroke-width="4" fill="none"></path></g><g stroke-linecap="round"><g transform="translate(1004.2311371636565 238.95172947203696) rotate(0 1.3483394240217876 35.19693318579448)"><path d="M0 0 C-10.04 5.77, -21.5 8.08, -27.86 13.45 M0 0 C-5.33 3.25, -11.38 5.68, -27.86 13.45 M-27.86 13.45 C-31.74 25.67, -34.26 38.65, -34.36 45.33 M-27.86 13.45 C-28.75 21.13, -31.89 30.14, -34.36 45.33 M-34.36 45.33 C-27.23 57.24, -20.2 66.23, -14.25 70.42 M-34.36 45.33 C-28.09 51.96, -22.45 59.24, -14.25 70.42 M-14.25 70.42 C-1.3 72.01, 8.8 71.21, 17.04 71.15 M-14.25 70.42 C-6.58 70.52, 1 70.09, 17.04 71.15 M17.04 71.15 C20.37 64.3, 27.63 59.01, 37.06 45.44 M17.04 71.15 C21.94 65.57, 27.23 58.91, 37.06 45.44 M37.06 45.44 C33.41 34.16, 32.67 22.65, 31.88 16.2 M37.06 45.44 C35.56 40.22, 35.39 32.89, 31.88 16.2 M31.88 16.2 C25.18 14.06, 19.33 10.9, 0.59 -0.75 M31.88 16.2 C22.87 11.92, 13.4 7.44, 0.59 -0.75" stroke="#aaa" stroke-width="4" fill="none"></path></g></g><mask></mask><g stroke-linecap="round"><g transform="translate(1005.0053711217965 238.34242748772135) rotate(0 0.31608576178450676 35.45428628015702)" fill-rule="evenodd"><path d="M-0.38 -1.71 L-29.74 14.9 L-36.29 44.56 L-15.54 71.19 L14.21 70.46 L36.51 45.5 L28.54 12.75 L0.73 1.85" stroke="none" stroke-width="0" fill="#228be6" fill-rule="evenodd"></path><path d="M0 0 C-10.99 2.99, -20.66 10.9, -28.24 13.59 M0 0 C-8.02 4.05, -16.92 8.5, -28.24 13.59 M-28.24 13.59 C-31.72 23.24, -33.36 32.31, -35.09 45.31 M-28.24 13.59 C-30.02 20.62, -30 27.95, -35.09 45.31 M-35.09 45.31 C-31.51 53.37, -24.39 59.38, -15.7 70.49 M-35.09 45.31 C-27.62 53.82, -21.27 61.19, -15.7 70.49 M-15.7 70.49 C-7.65 70.53, -0.77 72.52, 15.7 70.91 M-15.7 70.49 C-7.28 69.82, -1.18 71.3, 15.7 70.91 M15.7 70.91 C21.87 64.77, 23.4 59.83, 35.72 45.2 M15.7 70.91 C23.32 61.91, 30.35 52.42, 35.72 45.2 M35.72 45.2 C32.53 30.92, 28.78 19.96, 28.76 13.49 M35.72 45.2 C34.14 35.04, 30.45 25.05, 28.76 13.49 M28.76 13.49 C17.75 9.7, 6.39 2.03, 0 0 M28.76 13.49 C19.77 10.73, 12.92 5.06, 0 0 M0 0 C0 0, 0 0, 0 0 M0 0 C0 0, 0 0, 0 0" stroke="#fff" stroke-width="2" fill="none"></path></g></g><mask></mask><g stroke-linecap="round"><g transform="translate(1005.1868232630927 249.80823916118948) rotate(0 0.19316747069342455 21.486189734145455)" fill-rule="evenodd"><path d="M-0.75 0.65 L-17.86 7.87 L-21.36 27.81 L-10.34 42.49 L9.99 43.12 L21.71 27.02 L17.94 9.1 L0.12 -0.09" stroke="none" stroke-width="0" fill="#fff" fill-rule="evenodd"></path><path d="M0 0 C-6.66 3.5, -11.63 6.25, -17.26 8.24 M0 0 C-5.07 2.52, -11.06 4.97, -17.26 8.24 M-17.26 8.24 C-18.87 13.42, -20.45 19.95, -21.44 27.46 M-17.26 8.24 C-17.83 13.04, -19.36 17.2, -21.44 27.46 M-21.44 27.46 C-17.05 33.28, -11.82 40.22, -9.59 42.72 M-21.44 27.46 C-17.79 31.18, -15.07 36.17, -9.59 42.72 M-9.59 42.72 C-3.36 43.76, 3.65 43.31, 9.59 42.97 M-9.59 42.72 C-4.66 43.12, 0.58 42.68, 9.59 42.97 M9.59 42.97 C11.88 39.26, 15.95 35.58, 21.83 27.39 M9.59 42.97 C14.35 37.09, 19.02 31.03, 21.83 27.39 M21.83 27.39 C19.89 22.25, 19.83 16.94, 17.58 8.17 M21.83 27.39 C19.61 19.72, 18.82 12.02, 17.58 8.17 M17.58 8.17 C11.29 4.77, 5.17 2.36, 0 0 M17.58 8.17 C11.68 4.94, 5.1 2.04, 0 0 M0 0 C0 0, 0 0, 0 0 M0 0 C0 0, 0 0, 0 0" stroke="#fff" stroke-width="2" fill="none"></path></g></g><mask></mask><g stroke-linecap="round" transform="translate(996.2076918382932 270.81497788155116) rotate(0 3.1204335526149407 3.160749231589307)"><path d="M3.4 0.34 C4.01 0.33, 4.9 0.59, 5.34 1.02 C5.77 1.45, 6.02 2.26, 6.03 2.94 C6.04 3.62, 5.8 4.54, 5.41 5.08 C5.02 5.61, 4.35 5.96, 3.69 6.16 C3.03 6.36, 2.04 6.6, 1.44 6.27 C0.83 5.95, 0.26 4.83, 0.04 4.21 C-0.17 3.59, -0.09 3.18, 0.16 2.56 C0.41 1.94, 1.02 0.84, 1.56 0.48 C2.1 0.11, 3.13 0.39, 3.42 0.35 C3.72 0.32, 3.33 0.28, 3.33 0.27 M3.7 0.04 C4.34 -0.02, 5.22 -0.14, 5.61 0.38 C5.99 0.89, 5.95 2.38, 6.02 3.13 C6.09 3.88, 6.36 4.41, 6.03 4.86 C5.7 5.32, 4.66 5.69, 4.05 5.84 C3.45 5.99, 2.97 6.01, 2.39 5.78 C1.81 5.55, 0.87 5.09, 0.55 4.46 C0.24 3.83, 0.43 2.61, 0.48 2.01 C0.54 1.42, 0.48 1.27, 0.89 0.89 C1.29 0.51, 2.54 -0.2, 2.89 -0.27 C3.24 -0.33, 2.96 0.43, 3 0.48" stroke="#228be6" stroke-width="2" fill="none"></path></g><g stroke-linecap="round"><g transform="translate(999.3361885267036 270.91173551109) rotate(0 0.17738898748712018 -0.620861456205148)"><path d="M0.26 0.08 C0.33 -0.16, 0.59 -1.13, 0.66 -1.36 M-0.03 -0.19 C-0.01 -0.38, 0.43 -0.84, 0.54 -0.97" stroke="#228be6" stroke-width="2" fill="none"></path></g></g><mask></mask><g stroke-linecap="round"><g transform="translate(1001.4164775617805 271.4761550167311) rotate(0 0.620861456205148 -0.23383093805114186)"><path d="M0.31 -0.12 C0.53 -0.22, 1.42 -0.45, 1.58 -0.54 M0.04 -0.48 C0.21 -0.54, 1.3 -0.14, 1.47 -0.13" stroke="#228be6" stroke-width="2" fill="none"></path></g></g><mask></mask><g stroke-linecap="round"><g transform="translate(1002.2066648696778 273.9112220267823) rotate(0 0.8143767152819237 0.16126271589746466)"><path d="M0.34 -0.08 C0.56 -0.04, 1.43 0.07, 1.64 0.1 M0.08 -0.42 C0.23 -0.33, 1.16 0.3, 1.37 0.44" stroke="#228be6" stroke-width="2" fill="none"></path></g></g><mask></mask><g stroke-linecap="round"><g transform="translate(1001.6583716356267 276.33016276524336) rotate(0 0.4273461971281449 0.5241038266665328)"><path d="M0.01 -0.22 C0.09 -0.07, 0.65 0.64, 0.79 0.83 M-0.41 0.43 C-0.42 0.63, 0.3 1.04, 0.48 1.18" stroke="#228be6" stroke-width="2" fill="none"></path></g></g><mask></mask><g stroke-linecap="round"><g transform="translate(999.2555571687549 277.1848551594992) rotate(0 -0.09675762953838785 0.6934296783588252)"><path d="M-0.06 -0.21 C-0.1 0.03, -0.15 1.03, -0.18 1.25 M-0.52 0.44 C-0.6 0.76, -0.45 1.48, -0.46 1.63" stroke="#228be6" stroke-width="2" fill="none"></path></g></g><mask></mask><g stroke-linecap="round"><g transform="translate(997.3687833927556 276.07214241980705) rotate(0 -0.5482932340512434 0.620861456205148)"><path d="M0.01 -0.14 C-0.18 0.06, -1.05 0.77, -1.18 0.96 M-0.41 -0.51 C-0.65 -0.26, -1.43 0.96, -1.51 1.27" stroke="#228be6" stroke-width="2" fill="none"></path></g></g><mask></mask><g stroke-linecap="round"><g transform="translate(996.6269748996269 273.8950957551922) rotate(0 -1.0562707891281207 0)"><path d="M-0.09 -0.28 C-0.39 -0.3, -1.43 -0.27, -1.8 -0.22 M0.51 0.34 C0.19 0.38, -1.39 0.11, -1.91 0.13" stroke="#228be6" stroke-width="2" fill="none"></path></g></g><mask></mask><g stroke-linecap="round"><g transform="translate(997.7074350961398 271.55678637467986) rotate(0 -0.620861456205148 -0.16126271589746466)"><path d="M0.32 -0.22 C0.09 -0.22, -1.24 -0.3, -1.44 -0.3 M0.05 0.44 C-0.05 0.52, -0.58 0.37, -0.74 0.16" stroke="#228be6" stroke-width="2" fill="none"></path></g></g><mask></mask><g stroke-linecap="round" transform="translate(1004.3290210722657 273.1483227579881) rotate(0 4.815615833200354 4.877833092027231)"><path d="M5.43 0.38 C6.33 0.51, 7.46 1.12, 8.14 1.85 C8.83 2.58, 9.47 3.69, 9.55 4.76 C9.64 5.82, 9.31 7.35, 8.65 8.22 C8 9.08, 6.65 9.75, 5.62 9.94 C4.6 10.13, 3.42 9.94, 2.48 9.36 C1.54 8.79, 0.32 7.45, -0.01 6.47 C-0.34 5.48, 0.11 4.42, 0.5 3.46 C0.89 2.5, 1.52 1.21, 2.34 0.7 C3.16 0.19, 4.91 0.47, 5.44 0.41 C5.98 0.35, 5.53 0.27, 5.54 0.33 M3.73 -0.22 C4.7 -0.4, 6.15 0.6, 7.07 1.15 C7.98 1.69, 8.86 2.09, 9.24 3.06 C9.61 4.03, 9.65 5.88, 9.3 6.95 C8.95 8.03, 8 9.06, 7.14 9.52 C6.28 9.98, 5.1 10.04, 4.13 9.74 C3.16 9.45, 1.94 8.67, 1.33 7.75 C0.72 6.84, 0.52 5.31, 0.47 4.25 C0.42 3.2, 0.49 2.21, 1.03 1.44 C1.57 0.66, 3.18 -0.19, 3.69 -0.39 C4.2 -0.59, 4.04 0, 4.09 0.23" stroke="#228be6" stroke-width="2" fill="none"></path></g><g stroke-linecap="round"><g transform="translate(1009.1570803572317 273.29764417917227) rotate(0 0.2737559388383488 -0.9581457859339935)"><path d="M0.35 0.14 C0.47 -0.21, 0.43 -1.69, 0.52 -2.09 M0.1 -0.09 C0.18 -0.4, 0.1 -1.4, 0.22 -1.73" stroke="#228be6" stroke-width="2" fill="none"></path></g></g><mask></mask><g stroke-linecap="round"><g transform="translate(1012.367490912698 274.16868580274854) rotate(0 0.9581457859339935 -0.3608601011958399)"><path d="M-0.03 -0.17 C0.29 -0.37, 1.9 -0.96, 2.26 -1.07 M-0.48 0.51 C-0.21 0.32, 1.75 -0.63, 2.15 -0.79" stroke="#228be6" stroke-width="2" fill="none"></path></g></g><mask></mask><g stroke-linecap="round"><g transform="translate(1013.5869491857061 277.92660823589245) rotate(0 1.2567886283029566 0.24886903530750715)"><path d="M0.34 -0.34 C0.79 -0.25, 2.33 0.26, 2.68 0.42 M0.08 0.25 C0.51 0.41, 2.13 0.87, 2.48 0.83" stroke="#228be6" stroke-width="2" fill="none"></path></g></g><mask></mask><g stroke-linecap="round"><g transform="translate(1012.7407944656602 281.65964376550505) rotate(0 0.6595029435650304 0.8088243647493982)"><path d="M0.16 -0.08 C0.32 0.27, 1.01 1.47, 1.25 1.74 M-0.18 -0.43 C-0.11 -0.16, 0.66 0.79, 0.94 1.17" stroke="#228be6" stroke-width="2" fill="none"></path></g></g><mask></mask><g stroke-linecap="round"><g transform="translate(1009.0326458395771 282.97864965263466) rotate(0 -0.14932142118459524 1.0701368518223262)"><path d="M-0.07 0.12 C-0.1 0.47, -0.04 1.71, -0.03 2.05 M-0.53 -0.13 C-0.6 0.29, -0.25 2.01, -0.18 2.46" stroke="#228be6" stroke-width="2" fill="none"></path></g></g><mask></mask><g stroke-linecap="round"><g transform="translate(1006.12087812648 281.2614533090125) rotate(0 -0.8461547200456607 0.9581457859339935)"><path d="M0.26 -0.09 C0.04 0.21, -1.12 1.66, -1.4 1.94 M-0.03 -0.44 C-0.27 -0.09, -1.28 2.03, -1.53 2.41" stroke="#228be6" stroke-width="2" fill="none"></path></g></g><mask></mask><g stroke-linecap="round"><g transform="translate(1004.9760805640649 277.90172133236115) rotate(0 -1.6300921812642173 0)"><path d="M0.29 0.03 C-0.26 -0.02, -2.39 -0.38, -3.01 -0.34 M0.01 -0.27 C-0.58 -0.27, -2.54 -0.05, -3.16 -0.06" stroke="#228be6" stroke-width="2" fill="none"></path></g></g><mask></mask><g stroke-linecap="round"><g transform="translate(1006.6435031006254 274.2931203204023) rotate(0 -0.9581457859339935 -0.24886903530750715)"><path d="M0.25 -0.34 C-0.14 -0.39, -1.73 -0.22, -2.06 -0.25 M-0.05 0.25 C-0.53 0.11, -2.12 -0.69, -2.41 -0.75" stroke="#228be6" stroke-width="2" fill="none"></path></g></g><mask></mask><g stroke-linecap="round" transform="translate(1007.1315843365624 262.4355077890666) rotate(0 3.1204335526149407 3.160749231589307)"><path d="M3.2 0.35 C3.81 0.39, 4.67 0.63, 5.16 1.1 C5.65 1.57, 6.11 2.58, 6.15 3.19 C6.18 3.8, 5.72 4.3, 5.37 4.76 C5.02 5.22, 4.7 5.78, 4.07 5.95 C3.44 6.13, 2.17 6.08, 1.59 5.81 C1 5.55, 0.83 4.94, 0.55 4.36 C0.27 3.78, -0.25 2.95, -0.09 2.32 C0.08 1.69, 0.9 0.94, 1.53 0.59 C2.17 0.24, 3.37 0.28, 3.72 0.23 C4.07 0.18, 3.67 0.22, 3.61 0.29 M2.2 -0.4 C2.84 -0.49, 4.06 0.04, 4.67 0.54 C5.28 1.05, 5.59 2.01, 5.85 2.62 C6.12 3.24, 6.57 3.68, 6.28 4.22 C5.99 4.77, 4.69 5.57, 4.13 5.89 C3.58 6.22, 3.47 6.28, 2.94 6.16 C2.41 6.03, 1.38 5.67, 0.94 5.15 C0.5 4.63, 0.39 3.72, 0.31 3.03 C0.23 2.35, 0.09 1.48, 0.46 1.03 C0.84 0.58, 2.25 0.41, 2.56 0.34 C2.87 0.27, 2.23 0.65, 2.32 0.59" stroke="#228be6" stroke-width="2" fill="none"></path></g><g stroke-linecap="round"><g transform="translate(1010.260081024971 262.53226541860454) rotate(0 0.17738898748712018 -0.620861456205148)"><path d="M0.21 -0.02 C0.3 -0.31, 0.29 -1.25, 0.38 -1.49 M-0.11 -0.34 C-0.05 -0.61, -0.02 -1.02, 0.11 -1.16" stroke="#228be6" stroke-width="2" fill="none"></path></g></g><mask></mask><g stroke-linecap="round"><g transform="translate(1012.3403700600479 263.09668492424566) rotate(0 0.620861456205148 -0.23383093805114186)"><path d="M0.02 -0.25 C0.25 -0.35, 1.37 -0.62, 1.6 -0.67 M-0.4 0.4 C-0.2 0.33, 1.23 -0.22, 1.5 -0.32" stroke="#228be6" stroke-width="2" fill="none"></path></g></g><mask></mask><g stroke-linecap="round"><g transform="translate(1013.1305573679451 265.53175193429684) rotate(0 0.8143767152819237 0.16126271589746466)"><path d="M0.36 -0.2 C0.65 -0.12, 1.52 0.2, 1.78 0.23 M0.11 0.46 C0.37 0.61, 1.3 0.68, 1.59 0.64" stroke="#228be6" stroke-width="2" fill="none"></path></g></g><mask></mask><g stroke-linecap="round"><g transform="translate(1012.5822641338941 267.9506926727579) rotate(0 0.4273461971281449 0.5241038266665328)"><path d="M0.16 -0.09 C0.29 0.07, 1.07 0.53, 1.14 0.75 M-0.19 -0.44 C-0.11 -0.23, 0.75 0.86, 1 1.04" stroke="#228be6" stroke-width="2" fill="none"></path></g></g><mask></mask><g stroke-linecap="round"><g transform="translate(1010.1794496670232 268.80538506701464) rotate(0 -0.09675762953838785 0.6934296783588252)"><path d="M0.28 -0.3 C0.18 -0.03, -0.33 1.32, -0.45 1.57 M0 0.31 C0 0.49, 0.17 0.85, 0.21 1.05" stroke="#228be6" stroke-width="2" fill="none"></path></g></g><mask></mask><g stroke-linecap="round"><g transform="translate(1008.292675891023 267.6926723273225) rotate(0 -0.5482932340512434 0.620861456205148)"><path d="M-0.26 0.19 C-0.54 0.41, -1.21 0.83, -1.38 1.05 M0.25 -0.02 C0.06 0.27, -0.6 1.23, -0.74 1.4" stroke="#228be6" stroke-width="2" fill="none"></path></g></g><mask></mask><g stroke-linecap="round"><g transform="translate(1007.5508673978943 265.5156256627067) rotate(0 -1.0562707891281207 0)"><path d="M-0.29 -0.19 C-0.63 -0.17, -2 0.3, -2.32 0.29 M0.21 0.48 C0 0.38, -1.18 -0.11, -1.63 -0.18" stroke="#228be6" stroke-width="2" fill="none"></path></g></g><mask></mask><g stroke-linecap="round"><g transform="translate(1008.631327594408 263.1773162821944) rotate(0 -0.620861456205148 -0.16126271589746466)"><path d="M-0.21 0.29 C-0.39 0.23, -1.18 -0.47, -1.35 -0.54 M0.33 0.13 C0.12 0.13, -1.39 -0.05, -1.69 -0.2" stroke="#228be6" stroke-width="2" fill="none"></path></g></g><mask></mask><g stroke-linecap="round"><g transform="translate(959.7461432543455 318.46967273978066) rotate(0 165.83333333333348 -0.8333333333332575)"><path d="M-0.37 -0.72 C55.03 -1.06, 276.34 -1.03, 331.71 -1.05 M1.63 1.51 C56.94 0.73, 275.87 -2.13, 330.78 -2.84" stroke="#1e1e1e" stroke-width="4" fill="none"></path></g></g><mask></mask><g transform="translate(230.313840956916 281.66666666666765) rotate(0 29.95996856689453 12.5)"><text x="29.95996856689453" y="0" font-family="Virgil, Segoe UI Emoji" font-size="20px" fill="#1e1e1e" text-anchor="middle" style="white-space: pre;" direction="ltr" dominant-baseline="text-before-edge">Node-1</text></g><g transform="translate(642.5705115908677 275.00000000000114) rotate(0 34.369964599609375 12.5)"><text x="34.369964599609375" y="0" font-family="Virgil, Segoe UI Emoji" font-size="20px" fill="#1e1e1e" text-anchor="middle" style="white-space: pre;" direction="ltr" dominant-baseline="text-before-edge">Node-2</text></g><g transform="translate(1066.2138501121894 275.0000000000007) rotate(0 34.059959411621094 12.5)"><text x="34.059959411621094" y="0" font-family="Virgil, Segoe UI Emoji" font-size="20px" fill="#1e1e1e" text-anchor="middle" style="white-space: pre;" direction="ltr" dominant-baseline="text-before-edge">Node-3</text></g><g stroke-linecap="round" transform="translate(153.60714285714403 540.0000000000007) rotate(0 146.66666666666652 56.66666666666674)"><path d="M28.33 0 C121.89 -5.5, 217.59 -2.9, 265 0 C285.85 -1.45, 291.07 9.43, 293.33 28.33 C290.17 40.36, 294.24 49.09, 293.33 85 C292.22 104.82, 284.73 109.75, 265 113.33 C182.5 117.02, 100.79 114.05, 28.33 113.33 C10.02 111.55, 2.46 107.11, 0 85 C-2.64 66.14, 0.67 46.57, 0 28.33 C-3.27 6.59, 12.26 -3, 28.33 0" stroke="none" stroke-width="0" fill="#a5d8ff"></path><path d="M28.33 0 C111.5 0.82, 190.81 -1.2, 265 0 M28.33 0 C114.8 0.82, 202.09 0.65, 265 0 M265 0 C284.12 -0.03, 291.95 11.14, 293.33 28.33 M265 0 C284.87 1.62, 293.6 8.02, 293.33 28.33 M293.33 28.33 C293.8 48.39, 292.55 65.85, 293.33 85 M293.33 28.33 C293.46 42.59, 293.81 56.01, 293.33 85 M293.33 85 C293.28 103.3, 283.91 113.32, 265 113.33 M293.33 85 C294.97 104.92, 283.19 115.3, 265 113.33 M265 113.33 C216.65 116.16, 165.44 114.98, 28.33 113.33 M265 113.33 C210.13 115.03, 153.87 114.81, 28.33 113.33 M28.33 113.33 C10.32 112.24, 0.37 105.61, 0 85 M28.33 113.33 C9.05 111.99, 0.75 105.07, 0 85 M0 85 C0.35 65.27, 0.14 48.67, 0 28.33 M0 85 C-0.29 67.26, 0.36 47.83, 0 28.33 M0 28.33 C-0.45 9.9, 9.64 -0.25, 28.33 0 M0 28.33 C0.38 7.97, 10.92 -1.62, 28.33 0" stroke="#1971c2" stroke-width="4" fill="none"></path></g><g transform="translate(260.8738537742988 584.1666666666677) rotate(0 39.39995574951172 12.5)"><text x="39.39995574951172" y="0" font-family="Virgil, Segoe UI Emoji" font-size="20px" fill="#1971c2" text-anchor="middle" style="white-space: pre;" direction="ltr" dominant-baseline="text-before-edge">App1-pod</text></g><g stroke-linecap="round" transform="translate(568.6071428571436 541.6666666666672) rotate(0 146.66666666666652 56.66666666666674)"><path d="M28.33 0 C97.69 -0.93, 160.97 3.49, 265 0 C285.53 2.46, 295.31 8.98, 293.33 28.33 C295.04 47.36, 292.51 69.76, 293.33 85 C290.85 106.2, 287.13 110.08, 265 113.33 C216.29 117.24, 162.7 113.73, 28.33 113.33 C10.08 110.75, 1.81 106.62, 0 85 C3.15 74.51, 0.89 61.61, 0 28.33 C0.36 7.96, 12.26 2.54, 28.33 0" stroke="none" stroke-width="0" fill="#a5d8ff"></path><path d="M28.33 0 C121.23 0.57, 210.28 0.77, 265 0 M28.33 0 C105.63 1.27, 181.35 2.19, 265 0 M265 0 C281.89 0.98, 293.07 10.94, 293.33 28.33 M265 0 C283.47 -1.03, 293.7 8.91, 293.33 28.33 M293.33 28.33 C292.22 43.95, 293.2 61.48, 293.33 85 M293.33 28.33 C294 50.43, 293.17 70.99, 293.33 85 M293.33 85 C295.01 104.27, 283.52 111.59, 265 113.33 M293.33 85 C293.41 105.62, 285.97 113.12, 265 113.33 M265 113.33 C180.54 112.55, 98.95 113.05, 28.33 113.33 M265 113.33 C180.94 111.96, 96.98 112.05, 28.33 113.33 M28.33 113.33 C8.63 115.31, 0.39 103.76, 0 85 M28.33 113.33 C8.06 111.51, 0.78 103.86, 0 85 M0 85 C-1.35 69.32, -2.03 52.93, 0 28.33 M0 85 C1.13 73.76, 0.26 61.62, 0 28.33 M0 28.33 C0.07 8.05, 10.14 1.19, 28.33 0 M0 28.33 C-0.7 8.21, 10.74 -0.46, 28.33 0" stroke="#1971c2" stroke-width="4" fill="none"></path></g><g transform="translate(675.8738537742984 585.8333333333342) rotate(0 39.39995574951172 12.5)"><text x="39.39995574951172" y="0" font-family="Virgil, Segoe UI Emoji" font-size="20px" fill="#1971c2" text-anchor="middle" style="white-space: pre;" direction="ltr" dominant-baseline="text-before-edge">App1-pod</text></g><g stroke-linecap="round" transform="translate(980.2738095238105 340.0000000000002) rotate(0 146.66666666666652 56.66666666666674)"><path d="M28.33 0 C92.62 -0.74, 156.29 -3.1, 265 0 C280.86 -1.87, 294.76 8.67, 293.33 28.33 C294.15 37.47, 291.78 50.41, 293.33 85 C292.42 104.88, 286.56 112.58, 265 113.33 C183.86 111.8, 96.82 111.61, 28.33 113.33 C6.15 112.92, 1.34 105.4, 0 85 C-2.47 65.79, 0.52 54.14, 0 28.33 C-2.26 8.23, 6.36 0.29, 28.33 0" stroke="none" stroke-width="0" fill="#a5d8ff"></path><path d="M28.33 0 C79.53 0.5, 134.4 -1.74, 265 0 M28.33 0 C87.33 -1.36, 145.77 -1.36, 265 0 M265 0 C283.06 1.57, 294.75 10.17, 293.33 28.33 M265 0 C284.25 -0.35, 292.86 8.68, 293.33 28.33 M293.33 28.33 C295.23 47.21, 293.13 63.64, 293.33 85 M293.33 28.33 C293.66 42.24, 294.56 56.89, 293.33 85 M293.33 85 C293.26 105.13, 283.23 113.48, 265 113.33 M293.33 85 C291.85 103.04, 286.1 114.65, 265 113.33 M265 113.33 C187.51 113.66, 106.88 115.86, 28.33 113.33 M265 113.33 C171.82 112.49, 78.58 112.66, 28.33 113.33 M28.33 113.33 C8.24 114.71, 0.72 102.3, 0 85 M28.33 113.33 C9.01 112.15, 0.36 102.21, 0 85 M0 85 C-0.19 63.79, -0.5 40.23, 0 28.33 M0 85 C-0.14 66.46, -1.04 48.39, 0 28.33 M0 28.33 C1.19 9.39, 8.65 0.16, 28.33 0 M0 28.33 C1.37 11.54, 11.34 0.75, 28.33 0" stroke="#1971c2" stroke-width="4" fill="none"></path></g><g transform="translate(1087.5405204409653 384.16666666666674) rotate(0 39.39995574951172 12.5)"><text x="39.39995574951172" y="0" font-family="Virgil, Segoe UI Emoji" font-size="20px" fill="#1971c2" text-anchor="middle" style="white-space: pre;" direction="ltr" dominant-baseline="text-before-edge">App1-pod</text></g><g stroke-linecap="round" transform="translate(983.6071428571436 463.33333333333417) rotate(0 144.16666666666674 91.66666666666674)"><path d="M32 0 C76.71 -4.29, 123 -2.08, 256.33 0 C280.68 -0.55, 287.76 13.13, 288.33 32 C290.23 71.21, 284.71 100.17, 288.33 151.33 C290.28 171.46, 278.33 181.2, 256.33 183.33 C194.11 185.87, 131.06 182.58, 32 183.33 C9.25 180.84, -2.4 172.82, 0 151.33 C-1.2 108.92, 0.34 73, 0 32 C-0.66 9.22, 13.18 -1.98, 32 0" stroke="none" stroke-width="0" fill="#ffec99"></path><path d="M32 0 C83.68 -0.22, 132.33 -1.33, 256.33 0 M32 0 C82.6 1.31, 134.88 1.07, 256.33 0 M256.33 0 C277.09 1.22, 288.49 12.05, 288.33 32 M256.33 0 C276.63 -1.59, 288.82 10.53, 288.33 32 M288.33 32 C287.8 57.28, 287.42 84.42, 288.33 151.33 M288.33 32 C288.79 78.7, 288.51 124.89, 288.33 151.33 M288.33 151.33 C287.16 174.5, 279.52 184.28, 256.33 183.33 M288.33 151.33 C290.55 174.01, 276.42 185.49, 256.33 183.33 M256.33 183.33 C182.93 182.05, 111.12 184.41, 32 183.33 M256.33 183.33 C171.43 181.68, 85.7 182.68, 32 183.33 M32 183.33 C9.44 181.47, -0.7 172.12, 0 151.33 M32 183.33 C11.38 181.48, 1.75 172.09, 0 151.33 M0 151.33 C0.26 126.14, 0.84 97.6, 0 32 M0 151.33 C0.96 115.37, 0.69 79.37, 0 32 M0 32 C0.2 10.53, 8.74 1.12, 32 0 M0 32 C1.28 12.09, 8.74 -1.51, 32 0" stroke="#f08c00" stroke-width="4" fill="none"></path></g><g transform="translate(1083.963857741584 542.5000000000007) rotate(0 43.80995178222656 12.5)"><text x="43.80995178222656" y="0" font-family="Virgil, Segoe UI Emoji" font-size="20px" fill="#f08c00" text-anchor="middle" style="white-space: pre;" direction="ltr" dominant-baseline="text-before-edge">App2-pod</text></g><g stroke-linecap="round" transform="translate(456.9404761904757 10) rotate(0 143.33333333333326 37.499999999999886)"><path d="M18.75 0 C103.37 2.85, 191.61 -0.29, 267.92 0 C280.75 1.25, 283.69 5.61, 286.67 18.75 C288.86 30.11, 286.98 45.82, 286.67 56.25 C284.77 69.76, 283.93 74.22, 267.92 75 C207.57 78.91, 150.35 76.65, 18.75 75 C4.03 72.43, 3.41 67.08, 0 56.25 C-2.43 48.63, -0.13 39.35, 0 18.75 C2.79 2.84, 6.01 3.17, 18.75 0" stroke="none" stroke-width="0" fill="#b2f2bb"></path><path d="M18.75 0 C101.87 0.54, 180.92 0.18, 267.92 0 M18.75 0 C115.86 -0.63, 213.34 -0.7, 267.92 0 M267.92 0 C278.76 -0.91, 285.1 6.11, 286.67 18.75 M267.92 0 C281.96 -0.13, 287.29 5.55, 286.67 18.75 M286.67 18.75 C287.12 26.12, 288.02 37.2, 286.67 56.25 M286.67 18.75 C287.39 28.45, 286.02 37.14, 286.67 56.25 M286.67 56.25 C287.91 68.64, 281.99 75.71, 267.92 75 M286.67 56.25 C288.51 68.72, 280.66 73.11, 267.92 75 M267.92 75 C193.91 74.86, 123.21 76.55, 18.75 75 M267.92 75 C198.14 75.32, 126.92 75.17, 18.75 75 M18.75 75 C7.64 74.63, 1.5 69.58, 0 56.25 M18.75 75 C8.14 75.92, -1.25 68.67, 0 56.25 M0 56.25 C1.8 44.31, 1.16 34.37, 0 18.75 M0 56.25 C-0.47 46.59, -0.32 35.48, 0 18.75 M0 18.75 C0.61 7.53, 5.75 -1.44, 18.75 0 M0 18.75 C-1.7 6.08, 8.18 0.54, 18.75 0" stroke="#2f9e44" stroke-width="4" fill="none"></path></g><g transform="translate(556.7738629295709 34.99999999999977) rotate(0 43.49994659423828 12.5)"><text x="43.49994659423828" y="0" font-family="Virgil, Segoe UI Emoji" font-size="20px" fill="#2f9e44" text-anchor="middle" style="white-space: pre;" direction="ltr" dominant-baseline="text-before-edge">App3-pod</text></g><g transform="translate(701.8858090355284 34.99999999999977) rotate(0 8.38800048828125 22.5)"><text x="8.38800048828125" y="0" font-family="Virgil, Segoe UI Emoji" font-size="36px" fill="#1e1e1e" text-anchor="middle" style="white-space: pre;" direction="ltr" dominant-baseline="text-before-edge">?</text></g><g stroke-linecap="round"><g transform="translate(575.7898595942852 86.66666666666629) rotate(0 -69.42469170190452 152.50000000000023)"><path d="M-0.15 -1.02 C-14.75 15.98, -64.5 51.45, -87.74 102.34 C-110.97 153.24, -130.91 270.59, -139.55 304.36" stroke="#1e1e1e" stroke-width="4.5" fill="none" stroke-dasharray="8 12"></path></g><g transform="translate(575.7898595942852 86.66666666666629) rotate(0 -69.42469170190452 152.50000000000023)"><path d="M-142.93 279.59 C-143.59 288.54, -139.8 292.6, -139.55 304.36" stroke="#1e1e1e" stroke-width="4.5" fill="none"></path></g><g transform="translate(575.7898595942852 86.66666666666629) rotate(0 -69.42469170190452 152.50000000000023)"><path d="M-126.22 283.22 C-131.67 291.11, -132.66 294.13, -139.55 304.36" stroke="#1e1e1e" stroke-width="4.5" fill="none"></path></g></g><mask></mask><g stroke-linecap="round"><g transform="translate(619.0494650685328 86.66666666666583) rotate(0 63.11217222763844 155.83333333333348)"><path d="M0.81 -1.15 C17.19 21.07, 76.49 82, 97.5 134.29 C118.51 186.57, 121.88 282.83, 126.86 312.58" stroke="#1e1e1e" stroke-width="4.5" fill="none" stroke-dasharray="8 12"></path></g><g transform="translate(619.0494650685328 86.66666666666583) rotate(0 63.11217222763844 155.83333333333348)"><path d="M115.8 290.15 C116.63 294.63, 122.7 301.55, 126.86 312.58" stroke="#1e1e1e" stroke-width="4.5" fill="none"></path></g><g transform="translate(619.0494650685328 86.66666666666583) rotate(0 63.11217222763844 155.83333333333348)"><path d="M132.8 288.29 C129.69 293.31, 131.82 300.67, 126.86 312.58" stroke="#1e1e1e" stroke-width="4.5" fill="none"></path></g></g><mask></mask></svg>