<svg version="1.1" xmlns="http://www.w3.org/2000/svg" viewBox="0 0 1331.666666666667 710.309523809525" width="1331.666666666667" height="710.309523809525">
  <!-- svg-source:excalidraw -->
  
  <defs>
    <style class="style-fonts">
      @font-face {
        font-family: "Virgil";
        src: url("https://excalidraw.com/Virgil.woff2");
      }
      @font-face {
        font-family: "Cascadia";
        src: url("https://excalidraw.com/Cascadia.woff2");
      }
      @font-face {
        font-family: "Assistant";
        src: url("https://excalidraw.com/Assistant-Regular.woff2");
      }
    </style>
    
  </defs>
  <rect x="0" y="0" width="1331.666666666667" height="710.309523809525" fill="#ffffff"></rect><g stroke-linecap="round" transform="translate(10 124.30952380952499) rotate(0 655.8333333333335 288)"><path d="M32 0 C438.8 -2.74, 845.14 -2.6, 1279.67 0 M1279.67 0 C1302.15 -0.83, 1310.24 12.67, 1311.67 32 M1311.67 32 C1309.74 151.55, 1309.35 269.63, 1311.67 544 M1311.67 544 C1311.45 565.81, 1299.06 575.42, 1279.67 576 M1279.67 576 C798.61 574.09, 316.66 573.89, 32 576 M32 576 C9.35 574.5, -0.5 563.95, 0 544 M0 544 C1.76 354.86, 1.1 167.3, 0 32 M0 32 C1.51 12.28, 9.98 -0.93, 32 0" stroke="#1e1e1e" stroke-width="4.5" fill="none" stroke-dasharray="1.5 10"></path></g><g stroke-linecap="round"><g transform="translate(70.8020270142988 133.01042571240055) rotate(0 2.1979729857002894 57.37569260647956)"><path d="M0 0 C-17.61 8.3, -31.19 14.81, -45.42 21.93 M0 0 C-11.04 4.33, -20.77 10.51, -45.42 21.93 M-45.42 21.93 C-47.54 32, -51.05 47.67, -56.01 73.9 M-45.42 21.93 C-47.91 35.52, -50.97 48.97, -56.01 73.9 M-56.01 73.9 C-47.37 82.1, -41.75 93.78, -23.23 114.8 M-56.01 73.9 C-47.75 83.98, -41.25 92.17, -23.23 114.8 M-23.23 114.8 C-3.98 116.91, 12.52 114.88, 27.77 115.98 M-23.23 114.8 C-3.31 114.74, 17.02 116.29, 27.77 115.98 M27.77 115.98 C41.21 99.16, 53.79 84.78, 60.4 74.07 M27.77 115.98 C38.75 101.96, 48.18 88.54, 60.4 74.07 M60.4 74.07 C59.11 61.39, 54.95 47.78, 51.98 26.41 M60.4 74.07 C57.69 59.3, 55.52 46.46, 51.98 26.41 M51.98 26.41 C40.57 20.53, 27.73 11.25, 0.96 -1.23 M51.98 26.41 C33.13 16.27, 14.11 5.03, 0.96 -1.23" stroke="#aaa" stroke-width="4" fill="none"></path></g></g><mask></mask><g stroke-linecap="round"><g transform="translate(72.06413156622875 132.01718226212165) rotate(0 0.5152619238074294 57.79521245372075)" fill-rule="evenodd"><path d="M-0.16 0.04 L-46.89 21.94 L-56.56 75.04 L-26.33 116.76 L25.15 115.09 L56.53 74.82 L46.24 22.36 L0.3 -1.33" stroke="none" stroke-width="0" fill="#228be6" fill-rule="evenodd"></path><path d="M0 0 C-13.09 6.06, -29.74 15.66, -46.03 22.16 M0 0 C-11.08 5.75, -22.26 9.83, -46.03 22.16 M-46.03 22.16 C-49.72 38.73, -53.05 51.02, -57.19 73.85 M-46.03 22.16 C-49.21 39.13, -54.11 57.2, -57.19 73.85 M-57.19 73.85 C-50.01 84.78, -43.68 92.63, -25.59 114.9 M-57.19 73.85 C-45.87 87.88, -33.68 102.51, -25.59 114.9 M-25.59 114.9 C-8.18 114.1, 10.86 113.93, 25.59 115.59 M-25.59 114.9 C-8.15 116.07, 10.3 114.62, 25.59 115.59 M25.59 115.59 C36.33 103.6, 47.45 87.17, 58.22 73.68 M25.59 115.59 C34.63 102.53, 44.77 91.36, 58.22 73.68 M58.22 73.68 C55.13 63.82, 53.03 52.06, 46.89 21.98 M58.22 73.68 C55.72 61.85, 52.6 48.98, 46.89 21.98 M46.89 21.98 C38.42 17.06, 28.97 14.63, 0 0 M46.89 21.98 C29.71 12.6, 12.21 5.09, 0 0 M0 0 C0 0, 0 0, 0 0 M0 0 C0 0, 0 0, 0 0" stroke="#fff" stroke-width="2" fill="none"></path></g></g><mask></mask><g stroke-linecap="round"><g transform="translate(72.47227058244425 187.349930683524) rotate(0 -0.21239179539770703 -19.375425371320034)"><path d="M-0.23 -0.39 C-0.23 -6.96, 0.24 -32.7, 0.13 -39.12 M0.66 0.6 C0.62 -5.94, 0.06 -32.1, -0.02 -38.62" stroke="#fff" stroke-width="4" fill="none"></path></g></g><mask></mask><g stroke-linecap="round"><g transform="translate(55.21904517402709 227.88496633025738) rotate(0 7.537079603262555 -16.022764117678207)"><path d="M1.2 -0.81 C3.62 -6.09, 11.77 -27.46, 14.04 -32.5 M0.37 1.38 C3.2 -3.66, 13.94 -25.49, 16.2 -31.21" stroke="#fff" stroke-width="4" fill="none"></path></g></g><mask></mask><g stroke-linecap="round"><g transform="translate(91.5841436063074 228.06956073854258) rotate(0 -8.540738159293596 -16.004412902719196)"><path d="M-1.04 -0.46 C-4.12 -5.5, -14.51 -25.76, -17.32 -31.07 M0.62 -1.75 C-2.75 -7.04, -15.72 -27.79, -18.4 -32.7" stroke="#fff" stroke-width="4" fill="none"></path></g></g><mask></mask><g stroke-linecap="round"><g transform="translate(113.12609460150816 199.36513025011868) rotate(0 -18.07003043573968 -3.3899048129069342)"><path d="M-0.11 0.43 C-6.12 -0.69, -30.5 -5.76, -36.52 -6.94 M-0.83 0.17 C-6.62 -0.85, -29.52 -5.29, -35.48 -6.32" stroke="#fff" stroke-width="4" fill="none"></path></g></g><mask></mask><g stroke-linecap="round"><g transform="translate(31.775555321744832 199.27283304597609) rotate(0 18.152093365124983 -3.5356322738871313)"><path d="M-0.38 -0.16 C5.68 -1.39, 30.22 -5.76, 36.25 -6.94 M0.43 -0.71 C6.42 -2.15, 29.72 -6.84, 35.78 -7.84" stroke="#fff" stroke-width="4" fill="none"></path></g></g><mask></mask><g stroke-linecap="round"><g transform="translate(39.62081767388736 165.39975912555224) rotate(0 13.949864929891646 11.173667150840402)"><path d="M-0.13 0.28 C4.47 4.01, 21.9 18.39, 26.74 22 M-1.65 -0.61 C3.36 3.31, 23.78 19.41, 28.84 23.35" stroke="#fff" stroke-width="4" fill="none"></path></g></g><mask></mask><g stroke-linecap="round"><g transform="translate(105.05953541116287 164.84597590069484) rotate(0 -14.491496335861939 11.182572193646592)"><path d="M-1.16 -0.35 C-5.8 3.26, -23.22 18.09, -27.95 21.96 M0.43 -1.58 C-4.27 2.18, -23.19 19.55, -28.36 23.28" stroke="#fff" stroke-width="4" fill="none"></path></g></g><mask></mask><g stroke-linecap="round" transform="translate(43.43535370736572 162.29576858394307) rotate(0 29.119767907066944 29.212065111209995)"><path d="M21.98 1.15 C27.48 -0.83, 35.81 -0.32, 41.4 2.29 C47 4.9, 52.83 11.06, 55.55 16.82 C58.28 22.58, 59.49 30.62, 57.74 36.84 C55.99 43.06, 50.47 50.63, 45.04 54.16 C39.62 57.7, 31.26 58.73, 25.2 58.05 C19.13 57.38, 12.69 54.67, 8.63 50.12 C4.57 45.56, 1.43 37, 0.86 30.71 C0.29 24.42, 1.1 17.4, 5.21 12.37 C9.32 7.34, 21.26 2.34, 25.51 0.53 C29.76 -1.27, 30.54 1.16, 30.7 1.54 M42.1 2.76 C47.66 5.23, 53.2 13.42, 55.91 19.05 C58.61 24.67, 60.08 30.67, 58.32 36.49 C56.56 42.31, 50.85 50.34, 45.34 53.96 C39.83 57.58, 31.29 58.98, 25.25 58.21 C19.21 57.44, 13.4 53.93, 9.09 49.33 C4.79 44.73, -0.15 37.09, -0.57 30.62 C-1 24.15, 2.81 15.7, 6.55 10.53 C10.29 5.36, 15.91 0.66, 21.85 -0.4 C27.79 -1.47, 39.03 3.29, 42.18 4.15 C45.34 5.02, 40.84 4.56, 40.77 4.79" stroke="#fff" stroke-width="4" fill="none"></path></g><g stroke-linecap="round" transform="translate(64.1560760374341 182.73959930158367) rotate(0 8.122153964570089 8.675937189427259)"><path d="M8.96 -0.28 C10.62 -0.23, 12.79 1.16, 14.06 2.56 C15.33 3.96, 16.53 6.14, 16.58 8.11 C16.64 10.08, 15.59 12.87, 14.4 14.36 C13.21 15.86, 11.07 16.69, 9.43 17.08 C7.79 17.46, 5.98 17.59, 4.57 16.69 C3.16 15.8, 1.71 13.46, 0.98 11.72 C0.25 9.97, -0.25 7.91, 0.18 6.2 C0.61 4.5, 1.92 2.41, 3.56 1.48 C5.19 0.55, 8.91 0.82, 9.97 0.62 C11.03 0.41, 9.93 0.22, 9.92 0.25 M8.94 0.62 C10.73 0.62, 13.4 0.71, 14.65 1.96 C15.91 3.22, 16.46 6.19, 16.45 8.16 C16.44 10.13, 15.54 12.27, 14.59 13.78 C13.64 15.29, 12.49 16.78, 10.76 17.23 C9.04 17.68, 5.89 17.39, 4.26 16.47 C2.64 15.55, 1.74 13.49, 1.01 11.7 C0.29 9.91, -0.5 7.35, -0.1 5.73 C0.31 4.1, 2.06 2.81, 3.45 1.95 C4.84 1.09, 7.29 0.88, 8.27 0.57 C9.24 0.25, 9.13 0.02, 9.28 0.07" stroke="#fff" stroke-width="4" fill="none"></path></g><g transform="translate(141.40003967285156 178.6428571428571) rotate(0 35.59996032714844 12.5)"><text x="35.59996032714844" y="0" font-family="Virgil, Segoe UI Emoji" font-size="20px" fill="#1e1e1e" text-anchor="middle" style="white-space: pre;" direction="ltr" dominant-baseline="text-before-edge">Cluster</text></g><g stroke-linecap="round" transform="translate(136.94047619047706 241.6666666666681) rotate(0 164.16666666666652 213.33333333333348)"><path d="M32 0 C125.53 -1.89, 220.74 -1.79, 296.33 0 M32 0 C129.86 -0.13, 226.58 0.88, 296.33 0 M296.33 0 C319.17 1.61, 327.65 9.73, 328.33 32 M296.33 0 C318.8 -1.36, 329.19 12.33, 328.33 32 M328.33 32 C329.69 174.35, 329.01 317.63, 328.33 394.67 M328.33 32 C328.82 128.78, 328.43 226.79, 328.33 394.67 M328.33 394.67 C328.05 416.02, 319.46 427.04, 296.33 426.67 M328.33 394.67 C327.4 415.98, 318.62 425.11, 296.33 426.67 M296.33 426.67 C232.49 424.84, 167.81 427.02, 32 426.67 M296.33 426.67 C222.09 425.99, 147.83 425.91, 32 426.67 M32 426.67 C10.64 427.37, -0.97 415.19, 0 394.67 M32 426.67 C8.5 428.18, 1.79 417.52, 0 394.67 M0 394.67 C-0.75 300.44, -1.92 205.78, 0 32 M0 394.67 C-1.69 321.46, -1.91 248.97, 0 32 M0 32 C1.47 9.27, 11.66 -1.39, 32 0 M0 32 C-1.49 12.72, 9.65 0.07, 32 0" stroke="#1e1e1e" stroke-width="4" fill="none"></path></g><g stroke-linecap="round"><g transform="translate(188.09213676645413 245.48205673225698) rotate(0 1.3483394240215603 35.19693318579448)"><path d="M0 0 C-9.87 2.89, -17.29 7.53, -27.86 13.45 M0 0 C-7.91 4.17, -14.78 8.16, -27.86 13.45 M-27.86 13.45 C-30.92 22.7, -30.01 32.31, -34.36 45.33 M-27.86 13.45 C-30.42 23.72, -32.16 32.77, -34.36 45.33 M-34.36 45.33 C-30.03 53.18, -22.01 59.72, -14.25 70.42 M-34.36 45.33 C-28.48 52.85, -21.61 59.74, -14.25 70.42 M-14.25 70.42 C-5.36 68.79, 2.47 71.72, 17.04 71.15 M-14.25 70.42 C-5.61 69.99, 2.98 70.09, 17.04 71.15 M17.04 71.15 C22.11 61.69, 30.21 57.45, 37.06 45.44 M17.04 71.15 C25.12 62.37, 32.31 52.03, 37.06 45.44 M37.06 45.44 C35.07 36.05, 31.61 24.6, 31.88 16.2 M37.06 45.44 C36.19 38.24, 33.9 33.36, 31.88 16.2 M31.88 16.2 C23.07 11.48, 15.9 6.44, 0.59 -0.75 M31.88 16.2 C22.42 12.42, 13.53 6.34, 0.59 -0.75" stroke="#aaa" stroke-width="4" fill="none"></path></g></g><mask></mask><g stroke-linecap="round"><g transform="translate(188.86637072459416 244.87275474794137) rotate(0 0.31608576178450676 35.45428628015702)" fill-rule="evenodd"><path d="M1.51 0.24 L-29.14 14.86 L-35.1 46.37 L-14.03 70.32 L14.59 69.05 L34.18 43.33 L30.75 14.28 L0.59 -0.81" stroke="none" stroke-width="0" fill="#228be6" fill-rule="evenodd"></path><path d="M0 0 C-5.02 1.64, -13.14 7.17, -28.24 13.59 M0 0 C-5.81 4.12, -13.44 5.99, -28.24 13.59 M-28.24 13.59 C-29.37 26.57, -33.07 35.21, -35.09 45.31 M-28.24 13.59 C-31.31 25.83, -33.84 39.44, -35.09 45.31 M-35.09 45.31 C-27.46 54.85, -20.07 66.8, -15.7 70.49 M-35.09 45.31 C-28.6 52.65, -23.39 60.59, -15.7 70.49 M-15.7 70.49 C-5.42 71.79, 1.7 71.8, 15.7 70.91 M-15.7 70.49 C-6.82 70.05, 2.67 71.29, 15.7 70.91 M15.7 70.91 C22.16 66.18, 27.2 57.39, 35.72 45.2 M15.7 70.91 C23.57 60.94, 31.26 50.42, 35.72 45.2 M35.72 45.2 C31.12 33.44, 28.74 21.82, 28.76 13.49 M35.72 45.2 C33.31 38.75, 31.92 30.59, 28.76 13.49 M28.76 13.49 C22.32 9.54, 15.52 7.96, 0 0 M28.76 13.49 C18.26 8.66, 7.31 4.63, 0 0 M0 0 C0 0, 0 0, 0 0 M0 0 C0 0, 0 0, 0 0" stroke="#fff" stroke-width="2" fill="none"></path></g></g><mask></mask><g stroke-linecap="round"><g transform="translate(189.04782286589034 256.3385664214095) rotate(0 0.19316747069342455 21.486189734145455)" fill-rule="evenodd"><path d="M-0.45 0.64 L-17.26 8.77 L-20.61 27.37 L-10.15 41.79 L8.83 42.04 L22.82 27.79 L17.87 7.77 L0.84 -0.14" stroke="none" stroke-width="0" fill="#fff" fill-rule="evenodd"></path><path d="M0 0 C-4.15 2.45, -8.6 3.57, -17.26 8.24 M0 0 C-6.33 2.81, -12.13 5.71, -17.26 8.24 M-17.26 8.24 C-18.53 14.47, -19.08 20.76, -21.44 27.46 M-17.26 8.24 C-18.73 15.17, -19.68 20.91, -21.44 27.46 M-21.44 27.46 C-17.51 33.37, -13.43 37.14, -9.59 42.72 M-21.44 27.46 C-18.13 31.7, -14.4 36.92, -9.59 42.72 M-9.59 42.72 C-5.81 43.1, -1.72 42.64, 9.59 42.97 M-9.59 42.72 C-5.11 43.02, -0.84 42.71, 9.59 42.97 M9.59 42.97 C12.71 39.34, 15.33 37.17, 21.83 27.39 M9.59 42.97 C14.52 36.59, 19.27 31.1, 21.83 27.39 M21.83 27.39 C19.59 21.09, 18.12 13.82, 17.58 8.17 M21.83 27.39 C20.69 23, 19.57 18.36, 17.58 8.17 M17.58 8.17 C12.33 6.05, 7.88 3, 0 0 M17.58 8.17 C10.27 5.21, 3.61 1.82, 0 0 M0 0 C0 0, 0 0, 0 0 M0 0 C0 0, 0 0, 0 0" stroke="#fff" stroke-width="2" fill="none"></path></g></g><mask></mask><g stroke-linecap="round" transform="translate(180.06869144109078 277.3453051417712) rotate(0 3.1204335526149407 3.160749231589307)"><path d="M3.29 -0.11 C3.86 -0.19, 4.45 0.38, 4.89 0.84 C5.34 1.3, 5.77 1.95, 5.98 2.64 C6.18 3.33, 6.39 4.41, 6.11 4.97 C5.83 5.53, 4.91 5.83, 4.3 6 C3.69 6.18, 3.08 6.21, 2.46 6 C1.85 5.8, 1.03 5.3, 0.61 4.75 C0.18 4.2, -0.19 3.3, -0.07 2.7 C0.04 2.09, 0.82 1.55, 1.3 1.11 C1.77 0.68, 2.46 0.28, 2.77 0.1 C3.08 -0.08, 3.11 -0.07, 3.16 0.02 M3.42 -0.34 C4.05 -0.42, 4.47 -0.13, 4.92 0.43 C5.37 0.99, 6.06 2.22, 6.12 3.01 C6.19 3.8, 5.61 4.66, 5.31 5.17 C5.01 5.68, 4.84 5.92, 4.32 6.06 C3.8 6.21, 2.83 6.35, 2.16 6.06 C1.49 5.77, 0.68 4.98, 0.3 4.33 C-0.08 3.67, -0.24 2.71, -0.09 2.14 C0.05 1.56, 0.67 1.24, 1.18 0.85 C1.69 0.47, 2.71 -0.12, 2.97 -0.2 C3.23 -0.28, 2.64 0.25, 2.74 0.39" stroke="#228be6" stroke-width="2" fill="none"></path></g><g stroke-linecap="round"><g transform="translate(183.19718812950123 277.44206277131) rotate(0 0.17738898748712018 -0.620861456205148)"><path d="M-0.07 0.21 C0 0.09, 0.57 -0.69, 0.62 -0.96 M-0.53 0.01 C-0.51 -0.18, 0.4 -1.25, 0.48 -1.43" stroke="#228be6" stroke-width="2" fill="none"></path></g></g><mask></mask><g stroke-linecap="round"><g transform="translate(185.27747716457816 278.00648227695115) rotate(0 0.620861456205148 -0.23383093805114186)"><path d="M0.27 0.29 C0.47 0.15, 0.93 -0.47, 1.12 -0.63 M-0.02 0.13 C0.12 0.01, 0.56 -0.18, 0.78 -0.27" stroke="#228be6" stroke-width="2" fill="none"></path></g></g><mask></mask><g stroke-linecap="round"><g transform="translate(186.06766447247537 280.4415492870014) rotate(0 0.8143767152819237 0.16126271589746466)"><path d="M-0.12 -0.17 C0.13 -0.19, 1.49 -0.01, 1.8 0.11 M0.46 0.52 C0.66 0.51, 1.42 0.54, 1.61 0.46" stroke="#228be6" stroke-width="2" fill="none"></path></g></g><mask></mask><g stroke-linecap="round"><g transform="translate(185.51937123842436 282.8604900254634) rotate(0 0.4273461971283723 0.5241038266665328)"><path d="M0.17 -0.21 C0.36 0.04, 0.82 1.09, 0.99 1.31 M-0.16 0.45 C0 0.61, 0.56 0.64, 0.78 0.81" stroke="#228be6" stroke-width="2" fill="none"></path></g></g><mask></mask><g stroke-linecap="round"><g transform="translate(183.1165567715525 283.7151824197192) rotate(0 -0.09675762953838785 0.6934296783588252)"><path d="M0.13 0.26 C0.13 0.53, 0.21 1.17, 0.14 1.41 M-0.23 0.08 C-0.27 0.43, 0.09 1.69, 0.03 1.87" stroke="#228be6" stroke-width="2" fill="none"></path></g></g><mask></mask><g stroke-linecap="round"><g transform="translate(181.22978299555325 282.60246968002707) rotate(0 -0.548293234051016 0.620861456205148)"><path d="M0.33 0.02 C0.11 0.24, -0.93 1.35, -1.19 1.58 M0.08 -0.27 C-0.21 -0.16, -1.25 0.95, -1.52 1.13" stroke="#228be6" stroke-width="2" fill="none"></path></g></g><mask></mask><g stroke-linecap="round"><g transform="translate(180.48797450242455 280.4254230154122) rotate(0 -1.0562707891281207 0)"><path d="M-0.1 0.34 C-0.53 0.36, -1.93 0.22, -2.28 0.15 M0.5 0.2 C-0.03 0.12, -2.16 -0.4, -2.65 -0.4" stroke="#228be6" stroke-width="2" fill="none"></path></g></g><mask></mask><g stroke-linecap="round"><g transform="translate(181.56843469893738 278.0871136348999) rotate(0 -0.620861456205148 -0.16126271589746466)"><path d="M-0.17 0.15 C-0.37 0.02, -1.14 -0.4, -1.32 -0.43 M0.39 -0.08 C0.14 -0.01, -1.33 0.04, -1.64 -0.04" stroke="#228be6" stroke-width="2" fill="none"></path></g></g><mask></mask><g stroke-linecap="round" transform="translate(188.19002067506335 279.67865001820815) rotate(0 4.815615833200354 4.877833092027231)"><path d="M4.48 0.1 C5.42 -0.03, 7.08 0.37, 7.93 1.07 C8.77 1.77, 9.37 3.28, 9.56 4.3 C9.75 5.31, 9.57 6.27, 9.06 7.15 C8.55 8.04, 7.5 9.23, 6.49 9.59 C5.47 9.94, 3.99 9.67, 2.97 9.29 C1.96 8.91, 0.86 8.21, 0.41 7.29 C-0.04 6.37, 0.02 4.75, 0.27 3.75 C0.52 2.76, 1.17 1.91, 1.93 1.31 C2.68 0.71, 4.3 0.34, 4.8 0.13 C5.29 -0.08, 4.94 0.01, 4.91 0.05 M3.96 -0.16 C4.85 -0.33, 5.97 0.45, 6.95 1.1 C7.92 1.76, 9.45 2.75, 9.8 3.76 C10.16 4.76, 9.47 6.17, 9.07 7.14 C8.66 8.12, 8.2 9.2, 7.35 9.6 C6.51 10.01, 5.02 9.94, 4.01 9.56 C3.01 9.18, 1.92 8.17, 1.32 7.33 C0.73 6.5, 0.42 5.59, 0.47 4.55 C0.52 3.51, 0.96 1.91, 1.61 1.09 C2.26 0.27, 3.87 -0.14, 4.37 -0.35 C4.86 -0.57, 4.56 -0.3, 4.58 -0.21" stroke="#228be6" stroke-width="2" fill="none"></path></g><g stroke-linecap="round"><g transform="translate(193.01807996002935 279.8279714393923) rotate(0 0.2737559388383488 -0.9581457859339935)"><path d="M-0.01 0.27 C0.15 -0.08, 0.76 -1.88, 0.88 -2.24 M-0.45 0.1 C-0.3 -0.21, 0.61 -1.69, 0.77 -1.95" stroke="#228be6" stroke-width="2" fill="none"></path></g></g><mask></mask><g stroke-linecap="round"><g transform="translate(196.22849051549565 280.69901306296856) rotate(0 0.9581457859339935 -0.3608601011958399)"><path d="M0.33 -0.32 C0.67 -0.48, 1.77 -0.61, 2.02 -0.68 M0.07 0.28 C0.37 0.16, 1.54 -0.1, 1.8 -0.2" stroke="#228be6" stroke-width="2" fill="none"></path></g></g><mask></mask><g stroke-linecap="round"><g transform="translate(197.4479487885037 284.45693549611156) rotate(0 1.2567886283027292 0.24886903530750715)"><path d="M0.11 0.04 C0.46 0.18, 2.01 0.42, 2.46 0.5 M-0.27 -0.24 C0.01 -0.01, 1.65 0.75, 2.16 0.96" stroke="#228be6" stroke-width="2" fill="none"></path></g></g><mask></mask><g stroke-linecap="round"><g transform="translate(196.60179406845782 288.18997102572416) rotate(0 0.659502943564803 0.8088243647493982)"><path d="M-0.05 0 C0.21 0.28, 1.43 1.41, 1.64 1.68 M-0.5 -0.3 C-0.28 -0.14, 1.29 0.71, 1.52 1.09" stroke="#228be6" stroke-width="2" fill="none"></path></g></g><mask></mask><g stroke-linecap="round"><g transform="translate(192.8936454423747 289.50897691285377) rotate(0 -0.14932142118459524 1.0701368518223262)"><path d="M0.32 0.07 C0.25 0.42, -0.36 1.83, -0.44 2.14 M0.05 -0.21 C-0.07 0.21, -0.74 2.19, -0.79 2.59" stroke="#228be6" stroke-width="2" fill="none"></path></g></g><mask></mask><g stroke-linecap="round"><g transform="translate(189.98187772927758 287.7917805692325) rotate(0 -0.8461547200454334 0.9581457859339935)"><path d="M-0.14 0 C-0.45 0.27, -1.26 1.4, -1.55 1.68 M0.43 -0.31 C0.06 -0.01, -1.31 1.64, -1.75 2" stroke="#228be6" stroke-width="2" fill="none"></path></g></g><mask></mask><g stroke-linecap="round"><g transform="translate(188.8370801668625 284.43204859258117) rotate(0 -1.63009218126399 0)"><path d="M0.15 -0.24 C-0.41 -0.28, -2.88 -0.34, -3.46 -0.27 M-0.21 0.4 C-0.63 0.4, -2.2 0.17, -2.76 0.05" stroke="#228be6" stroke-width="2" fill="none"></path></g></g><mask></mask><g stroke-linecap="round"><g transform="translate(190.504502703423 280.8234475806223) rotate(0 -0.9581457859339935 -0.24886903530750715)"><path d="M-0.19 -0.27 C-0.55 -0.27, -1.63 -0.28, -1.98 -0.28 M0.35 0.36 C-0.07 0.28, -1.96 -0.6, -2.28 -0.79" stroke="#228be6" stroke-width="2" fill="none"></path></g></g><mask></mask><g stroke-linecap="round" transform="translate(190.99258393935997 268.9658350492866) rotate(0 3.1204335526149407 3.160749231589307)"><path d="M2.57 0.17 C3.15 0, 4.16 0.1, 4.71 0.41 C5.26 0.72, 5.67 1.38, 5.85 2.03 C6.03 2.68, 5.96 3.67, 5.78 4.29 C5.59 4.92, 5.31 5.49, 4.75 5.77 C4.18 6.04, 3.02 6.01, 2.38 5.95 C1.74 5.89, 1.27 5.9, 0.91 5.4 C0.55 4.91, 0.2 3.66, 0.22 2.97 C0.24 2.29, 0.56 1.77, 1.02 1.3 C1.48 0.84, 2.68 0.37, 2.97 0.2 C3.25 0.03, 2.83 0.23, 2.74 0.31 M3.18 -0.39 C3.82 -0.43, 4.88 -0.1, 5.42 0.33 C5.96 0.75, 6.4 1.37, 6.42 2.17 C6.45 2.96, 5.94 4.44, 5.55 5.1 C5.15 5.76, 4.69 5.97, 4.06 6.11 C3.43 6.25, 2.39 6.17, 1.78 5.96 C1.18 5.75, 0.76 5.39, 0.43 4.84 C0.1 4.28, -0.31 3.28, -0.18 2.65 C-0.05 2.03, 0.7 1.46, 1.2 1.1 C1.7 0.73, 2.55 0.66, 2.84 0.47 C3.13 0.27, 2.95 -0.08, 2.92 -0.06" stroke="#228be6" stroke-width="2" fill="none"></path></g><g stroke-linecap="round"><g transform="translate(194.1210806277686 269.06259267882456) rotate(0 0.17738898748712018 -0.620861456205148)"><path d="M-0.33 0.25 C-0.24 -0.01, 0.38 -1.06, 0.51 -1.31 M0.15 0.07 C0.21 -0.15, 0.28 -0.74, 0.32 -0.9" stroke="#228be6" stroke-width="2" fill="none"></path></g></g><mask></mask><g stroke-linecap="round"><g transform="translate(196.20136966284554 269.6270121844657) rotate(0 0.620861456205148 -0.23383093805114186)"><path d="M0.16 -0.07 C0.44 -0.19, 1.21 -0.39, 1.38 -0.49 M-0.19 -0.41 C0.09 -0.5, 0.99 -0.05, 1.17 -0.06" stroke="#228be6" stroke-width="2" fill="none"></path></g></g><mask></mask><g stroke-linecap="round"><g transform="translate(196.99155697074275 272.06207919451685) rotate(0 0.8143767152819237 0.16126271589746466)"><path d="M0.14 -0.03 C0.38 0, 1.35 0.08, 1.58 0.09 M-0.22 -0.35 C-0.04 -0.27, 1.03 0.31, 1.27 0.42" stroke="#228be6" stroke-width="2" fill="none"></path></g></g><mask></mask><g stroke-linecap="round"><g transform="translate(196.44326373669173 274.4810199329779) rotate(0 0.4273461971283723 0.5241038266665328)"><path d="M-0.05 -0.23 C0.05 -0.1, 0.59 0.54, 0.74 0.78 M-0.5 0.41 C-0.47 0.59, 0.22 1.07, 0.41 1.09" stroke="#228be6" stroke-width="2" fill="none"></path></g></g><mask></mask><g stroke-linecap="round"><g transform="translate(194.04044926982078 275.33571232723466) rotate(0 -0.09675762953838785 0.6934296783588252)"><path d="M-0.11 -0.27 C-0.14 0.02, -0.16 1.26, -0.2 1.51 M0.48 0.36 C0.41 0.56, -0.29 0.75, -0.48 0.95" stroke="#228be6" stroke-width="2" fill="none"></path></g></g><mask></mask><g stroke-linecap="round"><g transform="translate(192.15367549382063 274.2229995875425) rotate(0 -0.548293234051016 0.620861456205148)"><path d="M-0.01 0.13 C-0.2 0.35, -1.03 0.87, -1.27 1.1 M-0.44 -0.12 C-0.5 0.18, -0.51 1.3, -0.56 1.47" stroke="#228be6" stroke-width="2" fill="none"></path></g></g><mask></mask><g stroke-linecap="round"><g transform="translate(191.41186700069193 272.04595292292674) rotate(0 -1.0562707891281207 0)"><path d="M-0.17 -0.14 C-0.58 -0.13, -2.17 0.17, -2.45 0.23 M0.39 -0.52 C0.08 -0.62, -1.44 -0.3, -1.82 -0.27" stroke="#228be6" stroke-width="2" fill="none"></path></g></g><mask></mask><g stroke-linecap="round"><g transform="translate(192.49232719720567 269.7076435424144) rotate(0 -0.620861456205148 -0.16126271589746466)"><path d="M-0.34 0.23 C-0.47 0.24, -0.79 -0.04, -0.97 -0.09 M0.14 0.05 C0 -0.03, -0.8 -0.48, -1.1 -0.59" stroke="#228be6" stroke-width="2" fill="none"></path></g></g><mask></mask><g stroke-linecap="round"><g transform="translate(136.94047619047706 325.0000000000002) rotate(0 165.83333333333348 -0.8333333333332575)"><path d="M0.93 0.79 C56.32 0.53, 275.95 -0.5, 331.21 -0.75 M-0.04 0.16 C55.25 -0.49, 274.66 -1.94, 330.02 -2.4" stroke="#1e1e1e" stroke-width="4" fill="none"></path></g></g><mask></mask><g stroke-linecap="round" transform="translate(549.746143254345 238.46967273978066) rotate(0 164.16666666666652 213.33333333333348)"><path d="M32 0 C133.03 1.85, 232.89 1.62, 296.33 0 M32 0 C108.12 1.94, 183.31 1.33, 296.33 0 M296.33 0 C318.31 -1.57, 329.8 9.27, 328.33 32 M296.33 0 C318.81 -1.6, 326.84 12.72, 328.33 32 M328.33 32 C327.9 124.72, 328.43 217.1, 328.33 394.67 M328.33 32 C328.82 137.37, 328.91 241.42, 328.33 394.67 M328.33 394.67 C326.64 417.13, 317.01 427.04, 296.33 426.67 M328.33 394.67 C328.68 414.47, 316.89 425.02, 296.33 426.67 M296.33 426.67 C190.83 426.33, 87.94 426.32, 32 426.67 M296.33 426.67 C205.87 427.42, 116.12 427.33, 32 426.67 M32 426.67 C12.33 426.5, -1.11 414.14, 0 394.67 M32 426.67 C8.9 424.52, 2.29 416.91, 0 394.67 M0 394.67 C0.75 275.04, 0.53 155.12, 0 32 M0 394.67 C-0.41 304.23, -0.57 214.25, 0 32 M0 32 C1.67 12.39, 12.47 -0.76, 32 0 M0 32 C0.23 10.91, 9.11 -0.79, 32 0" stroke="#1e1e1e" stroke-width="4" fill="none"></path></g><g stroke-linecap="round"><g transform="translate(590.897803830323 242.28506280536953) rotate(0 1.3483394240215603 35.19693318579448)"><path d="M0 0 C-5.62 4.74, -14.77 8.59, -27.86 13.45 M0 0 C-4.79 1.68, -10.71 4.55, -27.86 13.45 M-27.86 13.45 C-31.9 24.1, -31.15 36.42, -34.36 45.33 M-27.86 13.45 C-30.14 23.11, -32.46 32.64, -34.36 45.33 M-34.36 45.33 C-25.69 53.29, -21.38 60.35, -14.25 70.42 M-34.36 45.33 C-27.12 53.58, -20.43 62.48, -14.25 70.42 M-14.25 70.42 C-3.72 71.11, 10.11 71.38, 17.04 71.15 M-14.25 70.42 C-4.03 71.27, 7.08 71.41, 17.04 71.15 M17.04 71.15 C22.87 59.88, 30.54 53.55, 37.06 45.44 M17.04 71.15 C24.6 62.36, 30.43 53.45, 37.06 45.44 M37.06 45.44 C36.38 37.71, 34.67 29.92, 31.88 16.2 M37.06 45.44 C35.75 34.02, 32.99 23.43, 31.88 16.2 M31.88 16.2 C25.75 12.49, 18.5 9.39, 0.59 -0.75 M31.88 16.2 C24.11 11.48, 16.15 8.23, 0.59 -0.75" stroke="#aaa" stroke-width="4" fill="none"></path></g></g><mask></mask><g stroke-linecap="round"><g transform="translate(591.6720377884631 241.67576082105393) rotate(0 0.31608576178450676 35.45428628015702)" fill-rule="evenodd"><path d="M1.78 -1.3 L-27.47 12.79 L-33.44 45.54 L-16.55 71.28 L16.98 71.09 L35.83 44.49 L27.23 15.34 L0.73 -0.31" stroke="none" stroke-width="0" fill="#228be6" fill-rule="evenodd"></path><path d="M0 0 C-10.53 6.48, -22.57 11.95, -28.24 13.59 M0 0 C-7.53 2.77, -15.07 6.68, -28.24 13.59 M-28.24 13.59 C-29.07 23.76, -33.19 34.29, -35.09 45.31 M-28.24 13.59 C-30.47 21.72, -31.5 30.66, -35.09 45.31 M-35.09 45.31 C-30.25 50.29, -23.51 57.96, -15.7 70.49 M-35.09 45.31 C-29.21 52.74, -21.75 61.95, -15.7 70.49 M-15.7 70.49 C-7.44 70.85, 2.21 72.18, 15.7 70.91 M-15.7 70.49 C-5.92 70.95, 4.71 70.47, 15.7 70.91 M15.7 70.91 C18.97 66.77, 26.52 59.08, 35.72 45.2 M15.7 70.91 C20.54 63.96, 25.36 57.09, 35.72 45.2 M35.72 45.2 C33.52 34.36, 32.88 27.06, 28.76 13.49 M35.72 45.2 C32.85 33.03, 29.38 20.34, 28.76 13.49 M28.76 13.49 C23.03 11.66, 14.49 5.86, 0 0 M28.76 13.49 C19.06 9.32, 7.31 2.85, 0 0 M0 0 C0 0, 0 0, 0 0 M0 0 C0 0, 0 0, 0 0" stroke="#fff" stroke-width="2" fill="none"></path></g></g><mask></mask><g stroke-linecap="round"><g transform="translate(591.8534899297592 253.14157249452205) rotate(0 0.19316747069342455 21.486189734145455)" fill-rule="evenodd"><path d="M0.38 -0.4 L-16.43 8.36 L-21.87 27.85 L-8.95 42.81 L9.65 42.62 L21.06 28.32 L17.94 8.02 L-0.21 0.98" stroke="none" stroke-width="0" fill="#fff" fill-rule="evenodd"></path><path d="M0 0 C-7.03 3.84, -12.32 6.48, -17.26 8.24 M0 0 C-3.15 1.28, -6.78 2.96, -17.26 8.24 M-17.26 8.24 C-18.13 12.04, -19.54 17.19, -21.44 27.46 M-17.26 8.24 C-18.41 14.33, -20.01 20.3, -21.44 27.46 M-21.44 27.46 C-17.62 31.43, -14.69 36.14, -9.59 42.72 M-21.44 27.46 C-18.25 31.29, -16.07 34.2, -9.59 42.72 M-9.59 42.72 C-3.14 43.51, 2.63 42.43, 9.59 42.97 M-9.59 42.72 C-2.22 42.72, 4.09 42.41, 9.59 42.97 M9.59 42.97 C12.79 39.72, 14.73 36.79, 21.83 27.39 M9.59 42.97 C12.85 38.29, 16.66 34.2, 21.83 27.39 M21.83 27.39 C21.42 22.86, 20.31 17.58, 17.58 8.17 M21.83 27.39 C20.37 22.2, 19.27 17.6, 17.58 8.17 M17.58 8.17 C11.55 4.93, 6.82 3.32, 0 0 M17.58 8.17 C12.67 5.74, 8.83 4.47, 0 0 M0 0 C0 0, 0 0, 0 0 M0 0 C0 0, 0 0, 0 0" stroke="#fff" stroke-width="2" fill="none"></path></g></g><mask></mask><g stroke-linecap="round" transform="translate(582.8743585049597 274.14831121488464) rotate(0 3.1204335526149407 3.160749231589307)"><path d="M3.2 0.26 C3.85 0.3, 4.68 0.73, 5.14 1.14 C5.61 1.56, 5.87 2.12, 6 2.74 C6.13 3.37, 6.29 4.34, 5.93 4.89 C5.58 5.43, 4.59 5.81, 3.87 5.99 C3.15 6.17, 2.2 6.25, 1.6 5.97 C1 5.68, 0.52 4.89, 0.27 4.29 C0.02 3.69, -0.13 3.02, 0.09 2.38 C0.31 1.73, 0.96 0.81, 1.59 0.41 C2.21 0, 3.52 0.05, 3.84 -0.05 C4.16 -0.14, 3.54 -0.23, 3.51 -0.18 M3.05 -0.36 C3.75 -0.28, 5.16 0.6, 5.67 1.04 C6.17 1.47, 6.04 1.64, 6.07 2.26 C6.1 2.88, 6.17 4.07, 5.85 4.75 C5.53 5.44, 4.76 6.13, 4.17 6.37 C3.59 6.6, 3.01 6.39, 2.34 6.15 C1.67 5.92, 0.52 5.54, 0.14 4.97 C-0.24 4.41, -0.18 3.5, 0.06 2.78 C0.31 2.06, 1.13 1.18, 1.61 0.64 C2.09 0.09, 2.74 -0.29, 2.94 -0.46 C3.14 -0.64, 2.7 -0.56, 2.83 -0.4" stroke="#228be6" stroke-width="2" fill="none"></path></g><g stroke-linecap="round"><g transform="translate(586.0028551933701 274.2450688444235) rotate(0 0.17738898748712018 -0.620861456205148)"><path d="M0.24 -0.34 C0.26 -0.58, 0.41 -1.33, 0.47 -1.52 M-0.07 0.25 C-0.11 0.05, 0.15 -0.97, 0.25 -1.21" stroke="#228be6" stroke-width="2" fill="none"></path></g></g><mask></mask><g stroke-linecap="round"><g transform="translate(588.083144228447 274.8094883500637) rotate(0 0.620861456205148 -0.23383093805114186)"><path d="M0.11 -0.28 C0.33 -0.34, 1.29 -0.64, 1.5 -0.72 M-0.26 0.34 C-0.09 0.35, 1.1 -0.26, 1.36 -0.39" stroke="#228be6" stroke-width="2" fill="none"></path></g></g><mask></mask><g stroke-linecap="round"><g transform="translate(588.8733315363443 277.2445553601158) rotate(0 0.8143767152819237 0.16126271589746466)"><path d="M0.26 -0.25 C0.54 -0.19, 1.62 -0.07, 1.81 0.08 M-0.03 0.39 C0.21 0.51, 1.26 0.45, 1.62 0.4" stroke="#228be6" stroke-width="2" fill="none"></path></g></g><mask></mask><g stroke-linecap="round"><g transform="translate(588.3250383022933 279.66349609857593) rotate(0 0.4273461971283723 0.5241038266665328)"><path d="M0.18 -0.25 C0.24 0.02, 0.54 1.15, 0.62 1.37 M-0.16 0.39 C-0.01 0.59, 1.21 0.73, 1.3 0.9" stroke="#228be6" stroke-width="2" fill="none"></path></g></g><mask></mask><g stroke-linecap="round"><g transform="translate(585.9222238354214 280.5181884928327) rotate(0 -0.09675762953838785 0.6934296783588252)"><path d="M-0.23 0.32 C-0.32 0.59, -0.31 1.24, -0.35 1.4 M0.3 0.17 C0.14 0.53, -0.7 1.62, -0.71 1.85" stroke="#228be6" stroke-width="2" fill="none"></path></g></g><mask></mask><g stroke-linecap="round"><g transform="translate(584.0354500594203 279.40547575314054) rotate(0 -0.548293234051016 0.620861456205148)"><path d="M-0.16 0.01 C-0.34 0.14, -1.19 0.89, -1.35 1.1 M0.41 -0.29 C0.35 0.04, -0.4 1.16, -0.69 1.48" stroke="#228be6" stroke-width="2" fill="none"></path></g></g><mask></mask><g stroke-linecap="round"><g transform="translate(583.2936415662934 277.2284290885257) rotate(0 -1.0562707891281207 0)"><path d="M-0.26 -0.14 C-0.59 -0.14, -1.81 -0.01, -2.14 0.01 M0.26 -0.52 C-0.11 -0.46, -1.96 0.32, -2.43 0.46" stroke="#228be6" stroke-width="2" fill="none"></path></g></g><mask></mask><g stroke-linecap="round"><g transform="translate(584.3741017628054 274.89011970801243) rotate(0 -0.620861456205148 -0.16126271589746466)"><path d="M-0.03 0.01 C-0.22 -0.03, -1.21 -0.34, -1.39 -0.36 M-0.47 -0.3 C-0.7 -0.26, -1.61 0.13, -1.75 0.07" stroke="#228be6" stroke-width="2" fill="none"></path></g></g><mask></mask><g stroke-linecap="round" transform="translate(590.9956877389322 276.4816560913207) rotate(0 4.815615833200354 4.877833092027231)"><path d="M5.38 -0.07 C6.31 -0.1, 7.28 0.32, 8.02 1.03 C8.75 1.74, 9.63 3.08, 9.78 4.18 C9.93 5.27, 9.55 6.71, 8.92 7.58 C8.29 8.46, 7.04 9.08, 6 9.43 C4.96 9.78, 3.58 10.09, 2.69 9.68 C1.81 9.28, 1.16 7.97, 0.68 7 C0.2 6.02, -0.37 4.83, -0.17 3.83 C0.02 2.84, 0.96 1.63, 1.87 1.03 C2.78 0.44, 4.72 0.44, 5.28 0.26 C5.85 0.09, 5.25 -0.07, 5.26 -0.04 M4.96 -0.45 C5.81 -0.49, 6.98 0.12, 7.84 0.97 C8.7 1.82, 9.93 3.57, 10.11 4.66 C10.29 5.74, 9.51 6.67, 8.9 7.48 C8.3 8.29, 7.51 9.24, 6.48 9.52 C5.44 9.8, 3.76 9.61, 2.71 9.14 C1.66 8.67, 0.61 7.58, 0.2 6.68 C-0.22 5.78, -0.07 4.69, 0.23 3.73 C0.52 2.76, 1.15 1.44, 1.95 0.89 C2.75 0.34, 4.39 0.47, 5.01 0.41 C5.63 0.36, 5.54 0.56, 5.65 0.55" stroke="#228be6" stroke-width="2" fill="none"></path></g><g stroke-linecap="round"><g transform="translate(595.8237470238964 276.63097751250484) rotate(0 0.2737559388383488 -0.9581457859339935)"><path d="M0.11 0.21 C0.21 -0.05, 0.36 -1.22, 0.42 -1.59 M-0.26 0.01 C-0.21 -0.33, 0 -1.76, 0.07 -2.04" stroke="#228be6" stroke-width="2" fill="none"></path></g></g><mask></mask><g stroke-linecap="round"><g transform="translate(599.0341575793645 277.502019136082) rotate(0 0.9581457859339935 -0.3608601011958399)"><path d="M-0.13 0.33 C0.16 0.16, 1.55 -0.67, 1.84 -0.81 M0.45 0.19 C0.67 0.06, 1.21 -0.19, 1.52 -0.41" stroke="#228be6" stroke-width="2" fill="none"></path></g></g><mask></mask><g stroke-linecap="round"><g transform="translate(600.2536158523708 281.25994156922593) rotate(0 1.2567886283027292 0.24886903530750715)"><path d="M-0.08 -0.09 C0.31 -0.03, 1.8 0.59, 2.21 0.7 M0.53 -0.44 C1.04 -0.33, 2.59 -0.06, 2.86 0.18" stroke="#228be6" stroke-width="2" fill="none"></path></g></g><mask></mask><g stroke-linecap="round"><g transform="translate(599.4074611323249 284.99297709883854) rotate(0 0.659502943564803 0.8088243647493982)"><path d="M-0.3 0.2 C-0.09 0.5, 0.92 1.49, 1.2 1.68 M0.19 0 C0.36 0.19, 0.7 0.82, 0.87 1.1" stroke="#228be6" stroke-width="2" fill="none"></path></g></g><mask></mask><g stroke-linecap="round"><g transform="translate(595.6993125062436 286.31198298596814) rotate(0 -0.14932142118459524 1.0701368518223262)"><path d="M-0.12 0.07 C-0.11 0.35, -0.2 1.6, -0.25 1.9 M0.47 -0.21 C0.46 0.1, -0.3 1.84, -0.5 2.24" stroke="#228be6" stroke-width="2" fill="none"></path></g></g><mask></mask><g stroke-linecap="round"><g transform="translate(592.7875447931456 284.594786642346) rotate(0 -0.8461547200454334 0.9581457859339935)"><path d="M0.05 -0.24 C-0.23 0.03, -1.58 1.28, -1.81 1.66 M-0.35 0.41 C-0.68 0.71, -1.97 1.8, -2.15 1.98" stroke="#228be6" stroke-width="2" fill="none"></path></g></g><mask></mask><g stroke-linecap="round"><g transform="translate(591.6427472307314 281.23505466569463) rotate(0 -1.63009218126399 0)"><path d="M-0.12 -0.25 C-0.62 -0.19, -2.39 0.18, -2.93 0.16 M0.46 0.38 C-0.06 0.36, -2.35 -0.29, -3.04 -0.37" stroke="#228be6" stroke-width="2" fill="none"></path></g></g><mask></mask><g stroke-linecap="round"><g transform="translate(593.3101697672919 277.6264536537358) rotate(0 -0.9581457859339935 -0.24886903530750715)"><path d="M0.33 0.16 C0.02 0.07, -1.65 -0.7, -2.01 -0.82 M0.08 -0.06 C-0.28 -0.1, -1.99 -0.51, -2.34 -0.53" stroke="#228be6" stroke-width="2" fill="none"></path></g></g><mask></mask><g stroke-linecap="round" transform="translate(593.798251003227 265.7688411223992) rotate(0 3.1204335526149407 3.160749231589307)"><path d="M3.34 0.25 C3.99 0.2, 4.71 0.24, 5.23 0.64 C5.74 1.05, 6.3 1.95, 6.42 2.69 C6.54 3.43, 6.35 4.54, 5.96 5.09 C5.57 5.64, 4.8 5.85, 4.08 5.97 C3.37 6.1, 2.34 6.01, 1.67 5.85 C1 5.68, 0.31 5.54, 0.07 5 C-0.18 4.46, 0.03 3.3, 0.2 2.63 C0.36 1.96, 0.54 1.41, 1.04 0.97 C1.54 0.52, 2.84 0.14, 3.19 -0.04 C3.55 -0.22, 3.19 -0.17, 3.17 -0.1 M3.01 0.4 C3.73 0.45, 5.02 0.89, 5.63 1.25 C6.24 1.61, 6.63 1.93, 6.66 2.54 C6.69 3.15, 6.3 4.32, 5.81 4.9 C5.32 5.47, 4.43 5.76, 3.73 6 C3.03 6.24, 2.16 6.54, 1.61 6.36 C1.07 6.17, 0.67 5.58, 0.47 4.91 C0.26 4.23, 0.32 2.97, 0.39 2.31 C0.45 1.65, 0.36 1.38, 0.87 0.96 C1.37 0.53, 2.97 -0.13, 3.42 -0.22 C3.87 -0.3, 3.66 0.44, 3.57 0.46" stroke="#228be6" stroke-width="2" fill="none"></path></g><g stroke-linecap="round"><g transform="translate(596.9267476916375 265.865598751938) rotate(0 0.17738898748712018 -0.620861456205148)"><path d="M0.06 -0.05 C0.14 -0.18, 0.31 -0.9, 0.41 -1.1 M-0.34 -0.38 C-0.29 -0.59, 0.01 -1.58, 0.16 -1.64" stroke="#228be6" stroke-width="2" fill="none"></path></g></g><mask></mask><g stroke-linecap="round"><g transform="translate(599.0070367267144 266.43001825757915) rotate(0 0.620861456205148 -0.23383093805114186)"><path d="M0.05 0.15 C0.3 0.08, 1.34 -0.36, 1.51 -0.43 M-0.35 -0.09 C-0.13 -0.08, 1.18 0.17, 1.37 0.05" stroke="#228be6" stroke-width="2" fill="none"></path></g></g><mask></mask><g stroke-linecap="round"><g transform="translate(599.7972240346116 268.8650852676303) rotate(0 0.8143767152819237 0.16126271589746466)"><path d="M0.27 0.04 C0.5 0.11, 1.24 0.47, 1.47 0.55 M-0.02 -0.24 C0.15 -0.29, 0.87 0.01, 1.11 0.04" stroke="#228be6" stroke-width="2" fill="none"></path></g></g><mask></mask><g stroke-linecap="round"><g transform="translate(599.2489308005606 271.2840260060914) rotate(0 0.4273461971283723 0.5241038266665328)"><path d="M-0.16 0.23 C-0.06 0.43, 0.63 1.11, 0.85 1.24 M0.4 0.03 C0.43 0.13, 0.46 0.48, 0.57 0.71" stroke="#228be6" stroke-width="2" fill="none"></path></g></g><mask></mask><g stroke-linecap="round"><g transform="translate(596.8461163336888 272.1387184003472) rotate(0 -0.09675762953838785 0.6934296783588252)"><path d="M0 0.19 C0.04 0.38, 0.17 1.21, 0.1 1.36 M-0.43 -0.02 C-0.39 0.21, 0.02 1.58, -0.02 1.79" stroke="#228be6" stroke-width="2" fill="none"></path></g></g><mask></mask><g stroke-linecap="round"><g transform="translate(594.9593425576895 271.0260056606551) rotate(0 -0.548293234051016 0.620861456205148)"><path d="M0.3 -0.03 C0.08 0.09, -1.02 0.75, -1.29 0.91 M0.02 -0.35 C-0.08 -0.22, -0.49 0.95, -0.6 1.19" stroke="#228be6" stroke-width="2" fill="none"></path></g></g><mask></mask><g stroke-linecap="round"><g transform="translate(594.2175340645608 268.8489589960402) rotate(0 -1.0562707891281207 0)"><path d="M-0.2 -0.33 C-0.64 -0.38, -2.12 -0.41, -2.39 -0.33 M0.35 0.27 C-0.02 0.25, -1.37 0.07, -1.73 -0.05" stroke="#228be6" stroke-width="2" fill="none"></path></g></g><mask></mask><g stroke-linecap="round"><g transform="translate(595.2979942610727 266.5106496155279) rotate(0 -0.620861456205148 -0.16126271589746466)"><path d="M-0.27 -0.33 C-0.39 -0.31, -0.74 -0.16, -0.89 -0.18 M0.23 0.27 C0.12 0.21, -0.73 -0.66, -0.99 -0.73" stroke="#228be6" stroke-width="2" fill="none"></path></g></g><mask></mask><g stroke-linecap="round"><g transform="translate(549.746143254345 321.8030060731146) rotate(0 165.83333333333348 -0.8333333333332575)"><path d="M1.19 0.48 C56.68 0.3, 276.77 -1.77, 332.02 -2.15 M0.36 -0.32 C55.8 -0.23, 275.91 -0.82, 331.26 -0.87" stroke="#1e1e1e" stroke-width="4" fill="none"></path></g></g><mask></mask><g stroke-linecap="round" transform="translate(959.746143254345 235.13633940644763) rotate(0 164.16666666666652 213.33333333333348)"><path d="M32 0 C136.95 0.72, 242.96 -0.83, 296.33 0 M32 0 C103.17 1.24, 173.97 1.08, 296.33 0 M296.33 0 C316.74 1.58, 330 12.39, 328.33 32 M296.33 0 C319.74 -0.88, 328.56 10.91, 328.33 32 M328.33 32 C328.23 116.46, 328.24 201.18, 328.33 394.67 M328.33 32 C327 127.37, 327.18 223.79, 328.33 394.67 M328.33 394.67 C326.77 414.33, 318.86 428.38, 296.33 426.67 M328.33 394.67 C328.85 415.94, 317.22 424.73, 296.33 426.67 M296.33 426.67 C199.94 425.53, 102.4 425.51, 32 426.67 M296.33 426.67 C232.37 424.99, 168.45 425.4, 32 426.67 M32 426.67 C9.81 427.46, 1.28 416.18, 0 394.67 M32 426.67 C10.79 425.85, -1.77 418.13, 0 394.67 M0 394.67 C1.58 271.78, 0.59 150.28, 0 32 M0 394.67 C-1 311.72, -0.24 229.03, 0 32 M0 32 C-0.1 11.1, 10.06 0.7, 32 0 M0 32 C1.42 11.49, 11.19 2.2, 32 0" stroke="#1e1e1e" stroke-width="4" fill="none"></path></g><g stroke-linecap="round"><g transform="translate(1004.2311371636561 238.9517294720374) rotate(0 1.3483394240215603 35.19693318579448)"><path d="M0 0 C-9.51 4.4, -19.03 8.09, -27.86 13.45 M0 0 C-7.15 3.44, -14.35 7.57, -27.86 13.45 M-27.86 13.45 C-30.84 25.94, -32.36 36.6, -34.36 45.33 M-27.86 13.45 C-29.58 22.51, -30.89 30.08, -34.36 45.33 M-34.36 45.33 C-30.43 52.38, -23.32 55.31, -14.25 70.42 M-34.36 45.33 C-29.63 50.56, -25.7 55.18, -14.25 70.42 M-14.25 70.42 C-1.16 71.45, 10.49 71.69, 17.04 71.15 M-14.25 70.42 C-6.25 70.4, 1.79 71.1, 17.04 71.15 M17.04 71.15 C22.27 64.51, 26.53 56.25, 37.06 45.44 M17.04 71.15 C24.6 62.06, 32.03 51.18, 37.06 45.44 M37.06 45.44 C36.94 35.52, 33.45 29.69, 31.88 16.2 M37.06 45.44 C35.46 38.39, 35.07 30.99, 31.88 16.2 M31.88 16.2 C21.16 11.52, 11.48 7.17, 0.59 -0.75 M31.88 16.2 C18.54 10.76, 8.06 2.37, 0.59 -0.75" stroke="#aaa" stroke-width="4" fill="none"></path></g></g><mask></mask><g stroke-linecap="round"><g transform="translate(1005.0053711217961 238.3424274877218) rotate(0 0.31608576178450676 35.45428628015702)" fill-rule="evenodd"><path d="M1.58 -0.75 L-27.52 14.05 L-34.74 45.3 L-15.28 70.08 L13.92 72.21 L34.76 45.98 L27.74 13.99 L-0.33 -0.97" stroke="none" stroke-width="0" fill="#228be6" fill-rule="evenodd"></path><path d="M0 0 C-11.49 4.18, -22.73 10.65, -28.24 13.59 M0 0 C-9.62 5.19, -17.45 9.65, -28.24 13.59 M-28.24 13.59 C-30.82 24.61, -34.38 37.02, -35.09 45.31 M-28.24 13.59 C-29.96 24.49, -33.7 36.65, -35.09 45.31 M-35.09 45.31 C-27.09 52.08, -23.84 63.3, -15.7 70.49 M-35.09 45.31 C-27.75 54.18, -19.38 64.96, -15.7 70.49 M-15.7 70.49 C-6.98 71, -2.65 72.37, 15.7 70.91 M-15.7 70.49 C-7.49 70.83, -1.36 71.21, 15.7 70.91 M15.7 70.91 C22.26 60, 32.11 52.9, 35.72 45.2 M15.7 70.91 C20.81 63.59, 26.98 55.36, 35.72 45.2 M35.72 45.2 C32.41 35.74, 30.14 24.67, 28.76 13.49 M35.72 45.2 C34.2 35.39, 31.57 25.79, 28.76 13.49 M28.76 13.49 C20.32 11.58, 13.78 7.61, 0 0 M28.76 13.49 C19.03 7.97, 7.39 3.47, 0 0 M0 0 C0 0, 0 0, 0 0 M0 0 C0 0, 0 0, 0 0" stroke="#fff" stroke-width="2" fill="none"></path></g></g><mask></mask><g stroke-linecap="round"><g transform="translate(1005.1868232630923 249.80823916118993) rotate(0 0.19316747069342455 21.486189734145455)" fill-rule="evenodd"><path d="M0.36 0.23 L-17.08 8.24 L-21.23 27.25 L-10.48 43.37 L9.11 43.36 L21.32 27.64 L17.41 7.69 L-0.49 0.14" stroke="none" stroke-width="0" fill="#fff" fill-rule="evenodd"></path><path d="M0 0 C-5.44 2.43, -9.69 4.47, -17.26 8.24 M0 0 C-4.84 2.97, -10.03 4.87, -17.26 8.24 M-17.26 8.24 C-18.88 13.54, -19.31 20.35, -21.44 27.46 M-17.26 8.24 C-19.02 15.32, -19.98 21.63, -21.44 27.46 M-21.44 27.46 C-17.86 33.66, -11.89 38.88, -9.59 42.72 M-21.44 27.46 C-17.6 32.15, -14.77 36.96, -9.59 42.72 M-9.59 42.72 C-3.87 43.63, 2.31 43.23, 9.59 42.97 M-9.59 42.72 C-4.81 42.96, 0.69 42.88, 9.59 42.97 M9.59 42.97 C14.28 38.62, 16.94 33.29, 21.83 27.39 M9.59 42.97 C14.43 36.41, 19.48 30.85, 21.83 27.39 M21.83 27.39 C20.49 23.18, 20.24 18.76, 17.58 8.17 M21.83 27.39 C20.46 21.43, 18.89 14.41, 17.58 8.17 M17.58 8.17 C12.49 6.4, 6.33 1.83, 0 0 M17.58 8.17 C10.55 4.75, 3.35 1.68, 0 0 M0 0 C0 0, 0 0, 0 0 M0 0 C0 0, 0 0, 0 0" stroke="#fff" stroke-width="2" fill="none"></path></g></g><mask></mask><g stroke-linecap="round" transform="translate(996.2076918382927 270.8149778815516) rotate(0 3.1204335526149407 3.160749231589307)"><path d="M3.27 0.28 C3.95 0.29, 4.86 0.59, 5.32 0.97 C5.79 1.34, 5.95 1.96, 6.04 2.53 C6.14 3.11, 6.22 3.86, 5.91 4.41 C5.6 4.97, 4.78 5.57, 4.18 5.87 C3.58 6.17, 2.93 6.38, 2.34 6.24 C1.75 6.1, 1.06 5.68, 0.66 5.05 C0.25 4.43, -0.19 3.18, -0.09 2.5 C0 1.81, 0.72 1.32, 1.22 0.94 C1.73 0.56, 2.57 0.41, 2.93 0.22 C3.29 0.03, 3.43 -0.25, 3.41 -0.2 M3.47 -0.39 C4.14 -0.32, 5.39 0.53, 5.79 1.16 C6.19 1.8, 5.88 2.72, 5.87 3.44 C5.85 4.17, 6.04 5.1, 5.71 5.52 C5.37 5.94, 4.49 5.95, 3.88 5.97 C3.28 5.99, 2.67 5.93, 2.09 5.62 C1.51 5.32, 0.67 4.7, 0.41 4.13 C0.16 3.57, 0.43 2.81, 0.57 2.23 C0.71 1.66, 0.71 1.03, 1.26 0.67 C1.82 0.31, 3.5 0.2, 3.89 0.08 C4.27 -0.05, 3.71 -0.2, 3.58 -0.08" stroke="#228be6" stroke-width="2" fill="none"></path></g><g stroke-linecap="round"><g transform="translate(999.3361885267032 270.91173551109046) rotate(0 0.17738898748712018 -0.620861456205148)"><path d="M-0.08 0.01 C-0.05 -0.17, 0.07 -0.8, 0.19 -0.96 M0.53 -0.29 C0.49 -0.57, -0.18 -1.24, -0.17 -1.44" stroke="#228be6" stroke-width="2" fill="none"></path></g></g><mask></mask><g stroke-linecap="round"><g transform="translate(1001.4164775617801 271.4761550167316) rotate(0 0.620861456205148 -0.23383093805114186)"><path d="M-0.17 0.28 C0.1 0.25, 1.25 -0.01, 1.54 -0.16 M0.4 0.12 C0.65 0, 1.23 -0.56, 1.41 -0.63" stroke="#228be6" stroke-width="2" fill="none"></path></g></g><mask></mask><g stroke-linecap="round"><g transform="translate(1002.2066648696773 273.91122202678184) rotate(0 0.8143767152819237 0.16126271589746466)"><path d="M0.3 0.31 C0.65 0.29, 1.72 0.18, 1.95 0.19 M0.02 0.16 C0.37 0.16, 1.59 0.47, 1.83 0.57" stroke="#228be6" stroke-width="2" fill="none"></path></g></g><mask></mask><g stroke-linecap="round"><g transform="translate(1001.6583716356263 276.3301627652438) rotate(0 0.4273461971283723 0.5241038266665328)"><path d="M0.32 -0.14 C0.42 -0.01, 0.84 0.91, 0.89 1.09 M0.06 -0.51 C0.09 -0.17, 0.42 1.26, 0.63 1.55" stroke="#228be6" stroke-width="2" fill="none"></path></g></g><mask></mask><g stroke-linecap="round"><g transform="translate(999.2555571687544 277.18485515949965) rotate(0 -0.09675762953838785 0.6934296783588252)"><path d="M0.04 0.04 C-0.09 0.27, -0.36 1.01, -0.43 1.27 M-0.37 -0.25 C-0.41 0.04, 0.12 1.45, 0.24 1.65" stroke="#228be6" stroke-width="2" fill="none"></path></g></g><mask></mask><g stroke-linecap="round"><g transform="translate(997.3687833927552 276.0721424198075) rotate(0 -0.548293234051016 0.620861456205148)"><path d="M-0.24 -0.12 C-0.47 0.11, -1.2 1.17, -1.33 1.43 M0.28 -0.49 C0.16 -0.36, -0.41 0.69, -0.65 0.91" stroke="#228be6" stroke-width="2" fill="none"></path></g></g><mask></mask><g stroke-linecap="round"><g transform="translate(996.6269748996265 273.89509575519173) rotate(0 -1.0562707891281207 0)"><path d="M-0.23 0.19 C-0.53 0.24, -1.76 0.25, -2.04 0.19 M0.29 -0.02 C-0.03 -0.06, -1.89 -0.37, -2.27 -0.33" stroke="#228be6" stroke-width="2" fill="none"></path></g></g><mask></mask><g stroke-linecap="round"><g transform="translate(997.7074350961393 271.5567863746803) rotate(0 -0.620861456205148 -0.16126271589746466)"><path d="M0.08 0.19 C-0.05 0.09, -0.76 -0.4, -1.02 -0.45 M-0.31 -0.02 C-0.45 -0.09, -1.1 0.05, -1.18 -0.07" stroke="#228be6" stroke-width="2" fill="none"></path></g></g><mask></mask><g stroke-linecap="round" transform="translate(1004.3290210722653 273.1483227579886) rotate(0 4.815615833200354 4.877833092027231)"><path d="M4.12 0.25 C5.1 0.01, 6.9 -0.02, 7.73 0.55 C8.57 1.12, 8.86 2.63, 9.15 3.69 C9.45 4.74, 9.88 5.98, 9.52 6.89 C9.15 7.81, 7.98 8.68, 6.96 9.18 C5.94 9.67, 4.41 10.13, 3.42 9.85 C2.43 9.58, 1.55 8.4, 1.02 7.54 C0.5 6.67, 0.17 5.66, 0.26 4.67 C0.36 3.68, 0.94 2.33, 1.59 1.61 C2.24 0.88, 3.73 0.55, 4.17 0.32 C4.61 0.09, 4.22 0.16, 4.24 0.24 M5.23 0.05 C6.25 -0.06, 7.35 0.27, 8.01 1.03 C8.67 1.78, 9 3.54, 9.19 4.59 C9.37 5.64, 9.61 6.42, 9.12 7.32 C8.63 8.22, 7.33 9.62, 6.27 9.98 C5.21 10.35, 3.72 10.04, 2.76 9.52 C1.8 9.01, 0.94 7.76, 0.51 6.87 C0.09 5.99, 0.05 5.22, 0.2 4.22 C0.34 3.22, 0.56 1.6, 1.38 0.86 C2.2 0.12, 4.52 -0.12, 5.11 -0.23 C5.69 -0.34, 4.94 0.06, 4.88 0.21" stroke="#228be6" stroke-width="2" fill="none"></path></g><g stroke-linecap="round"><g transform="translate(1009.1570803572313 273.2976441791727) rotate(0 0.2737559388383488 -0.9581457859339935)"><path d="M-0.24 0.21 C-0.17 -0.12, 0.51 -1.76, 0.68 -2.07 M0.28 0.01 C0.3 -0.26, 0.4 -1.34, 0.46 -1.7" stroke="#228be6" stroke-width="2" fill="none"></path></g></g><mask></mask><g stroke-linecap="round"><g transform="translate(1012.3674909126976 274.1686858027481) rotate(0 0.9581457859339935 -0.3608601011958399)"><path d="M0.13 -0.16 C0.53 -0.26, 1.9 -0.3, 2.15 -0.44 M-0.23 0.53 C0.16 0.31, 1.56 -0.7, 1.99 -0.92" stroke="#228be6" stroke-width="2" fill="none"></path></g></g><mask></mask><g stroke-linecap="round"><g transform="translate(1013.5869491857056 277.926608235892) rotate(0 1.2567886283027292 0.24886903530750715)"><path d="M0.23 0.28 C0.58 0.34, 1.82 0.11, 2.24 0.2 M-0.08 0.12 C0.37 0.23, 2.44 0.47, 2.89 0.5" stroke="#228be6" stroke-width="2" fill="none"></path></g></g><mask></mask><g stroke-linecap="round"><g transform="translate(1012.7407944656597 281.6596437655046) rotate(0 0.659502943564803 0.8088243647493982)"><path d="M-0.28 -0.3 C-0.06 -0.02, 1.25 1.6, 1.53 1.92 M0.23 0.32 C0.4 0.47, 1.2 1.18, 1.36 1.46" stroke="#228be6" stroke-width="2" fill="none"></path></g></g><mask></mask><g stroke-linecap="round"><g transform="translate(1009.0326458395766 282.9786496526342) rotate(0 -0.14932142118459524 1.0701368518223262)"><path d="M0.21 0.3 C0.22 0.71, -0.12 1.88, -0.22 2.13 M-0.11 0.15 C-0.11 0.64, -0.37 2.26, -0.46 2.58" stroke="#228be6" stroke-width="2" fill="none"></path></g></g><mask></mask><g stroke-linecap="round"><g transform="translate(1006.1208781264795 281.26145330901295) rotate(0 -0.8461547200454334 0.9581457859339935)"><path d="M0.08 -0.01 C-0.25 0.21, -1.51 1.28, -1.76 1.62 M-0.31 -0.32 C-0.71 0.09, -1.87 1.46, -2.08 1.92" stroke="#228be6" stroke-width="2" fill="none"></path></g></g><mask></mask><g stroke-linecap="round"><g transform="translate(1004.9760805640644 277.9017213323607) rotate(0 -1.63009218126399 0)"><path d="M-0.07 -0.3 C-0.58 -0.28, -2.44 -0.02, -3.01 0.08 M-0.53 0.32 C-1.08 0.22, -2.79 -0.4, -3.17 -0.5" stroke="#228be6" stroke-width="2" fill="none"></path></g></g><mask></mask><g stroke-linecap="round"><g transform="translate(1006.6435031006249 274.29312032040275) rotate(0 -0.9581457859339935 -0.24886903530750715)"><path d="M0.25 0.08 C-0.11 0.09, -1.84 -0.18, -2.18 -0.23 M-0.06 -0.19 C-0.29 -0.25, -1.2 -0.62, -1.52 -0.71" stroke="#228be6" stroke-width="2" fill="none"></path></g></g><mask></mask><g stroke-linecap="round" transform="translate(1007.1315843365619 262.43550778906706) rotate(0 3.1204335526149407 3.160749231589307)"><path d="M3.07 0.3 C3.62 0.29, 4.51 0.5, 5.01 0.96 C5.52 1.41, 5.95 2.4, 6.08 3.02 C6.21 3.65, 6.11 4.16, 5.79 4.72 C5.48 5.28, 4.83 6.16, 4.19 6.39 C3.55 6.62, 2.61 6.44, 1.95 6.1 C1.3 5.76, 0.5 4.95, 0.23 4.36 C-0.03 3.78, 0.23 3.23, 0.38 2.6 C0.54 1.97, 0.63 1.05, 1.17 0.58 C1.71 0.12, 3.26 -0.11, 3.64 -0.21 C4.02 -0.3, 3.53 -0.08, 3.43 0.02 M3.61 -0.22 C4.31 -0.14, 4.91 0.5, 5.32 1.05 C5.73 1.6, 5.97 2.4, 6.08 3.08 C6.19 3.77, 6.32 4.57, 5.97 5.17 C5.63 5.77, 4.72 6.58, 4.02 6.7 C3.32 6.82, 2.34 6.27, 1.75 5.9 C1.16 5.53, 0.68 4.99, 0.49 4.47 C0.29 3.95, 0.37 3.37, 0.6 2.78 C0.82 2.2, 1.43 1.31, 1.83 0.93 C2.22 0.55, 2.63 0.71, 2.97 0.51 C3.31 0.3, 3.8 -0.25, 3.87 -0.3" stroke="#228be6" stroke-width="2" fill="none"></path></g><g stroke-linecap="round"><g transform="translate(1010.2600810249705 262.5322654186041) rotate(0 0.17738898748712018 -0.620861456205148)"><path d="M0.09 0.29 C0.21 0, 0.35 -1.15, 0.44 -1.44 M-0.29 0.13 C-0.18 -0.14, 0.06 -0.87, 0.21 -1.1" stroke="#228be6" stroke-width="2" fill="none"></path></g></g><mask></mask><g stroke-linecap="round"><g transform="translate(1012.3403700600475 263.0966849242452) rotate(0 0.620861456205148 -0.23383093805114186)"><path d="M0.09 -0.2 C0.33 -0.37, 1.34 -0.63, 1.56 -0.7 M-0.29 0.46 C-0.08 0.31, 1.19 -0.24, 1.44 -0.37" stroke="#228be6" stroke-width="2" fill="none"></path></g></g><mask></mask><g stroke-linecap="round"><g transform="translate(1013.1305573679447 265.5317519342973) rotate(0 0.8143767152819237 0.16126271589746466)"><path d="M0.32 -0.23 C0.6 -0.17, 1.5 0.08, 1.76 0.18 M0.05 0.42 C0.29 0.55, 1.26 0.5, 1.56 0.56" stroke="#228be6" stroke-width="2" fill="none"></path></g></g><mask></mask><g stroke-linecap="round"><g transform="translate(1012.5822641338937 267.95069267275744) rotate(0 0.4273461971283723 0.5241038266665328)"><path d="M0.14 -0.14 C0.27 0.08, 1.05 0.87, 1.15 1.09 M-0.22 -0.52 C-0.13 -0.22, 0.91 1.38, 1.02 1.56" stroke="#228be6" stroke-width="2" fill="none"></path></g></g><mask></mask><g stroke-linecap="round"><g transform="translate(1010.1794496670227 268.8053850670151) rotate(0 -0.09675762953838785 0.6934296783588252)"><path d="M0.29 0.04 C0.21 0.32, -0.3 1.3, -0.34 1.53 M0.01 -0.24 C-0.14 -0.06, -0.69 0.63, -0.7 0.98" stroke="#228be6" stroke-width="2" fill="none"></path></g></g><mask></mask><g stroke-linecap="round"><g transform="translate(1008.2926758910226 267.69267232732295) rotate(0 -0.548293234051016 0.620861456205148)"><path d="M-0.15 0.14 C-0.34 0.35, -0.71 1.11, -0.87 1.27 M0.42 -0.09 C0.17 0.17, -0.75 1.49, -1.03 1.74" stroke="#228be6" stroke-width="2" fill="none"></path></g></g><mask></mask><g stroke-linecap="round"><g transform="translate(1007.5508673978939 265.5156256627072) rotate(0 -1.0562707891281207 0)"><path d="M0.23 0.03 C-0.1 -0.01, -1.66 -0.18, -2.09 -0.13 M-0.08 -0.26 C-0.44 -0.27, -2.1 0.25, -2.36 0.26" stroke="#228be6" stroke-width="2" fill="none"></path></g></g><mask></mask><g stroke-linecap="round"><g transform="translate(1008.6313275944076 263.17731628219394) rotate(0 -0.620861456205148 -0.16126271589746466)"><path d="M0.02 -0.13 C-0.27 -0.13, -1.33 0.05, -1.51 0.01 M-0.4 -0.5 C-0.6 -0.6, -0.71 -0.53, -0.86 -0.45" stroke="#228be6" stroke-width="2" fill="none"></path></g></g><mask></mask><g stroke-linecap="round"><g transform="translate(959.746143254345 318.46967273978066) rotate(0 165.83333333333348 -0.8333333333332575)"><path d="M-0.92 1.11 C54.42 0.87, 276.72 -1.58, 332.11 -1.85 M0.8 0.65 C56.01 0.64, 276.44 0.07, 331.39 -0.41" stroke="#1e1e1e" stroke-width="4" fill="none"></path></g></g><mask></mask><g transform="translate(230.31384095691556 281.6666666666681) rotate(0 29.95996856689453 12.5)"><text x="29.95996856689453" y="0" font-family="Virgil, Segoe UI Emoji" font-size="20px" fill="#1e1e1e" text-anchor="middle" style="white-space: pre;" direction="ltr" dominant-baseline="text-before-edge">Node-1</text></g><g transform="translate(642.5705115908677 275.00000000000114) rotate(0 34.369964599609375 12.5)"><text x="34.369964599609375" y="0" font-family="Virgil, Segoe UI Emoji" font-size="20px" fill="#1e1e1e" text-anchor="middle" style="white-space: pre;" direction="ltr" dominant-baseline="text-before-edge">Node-2</text></g><g transform="translate(1066.213850112189 275.0000000000002) rotate(0 34.059959411621094 12.5)"><text x="34.059959411621094" y="0" font-family="Virgil, Segoe UI Emoji" font-size="20px" fill="#1e1e1e" text-anchor="middle" style="white-space: pre;" direction="ltr" dominant-baseline="text-before-edge">Node-3</text></g><g stroke-linecap="round" transform="translate(153.60714285714312 341.66666666666674) rotate(0 146.66666666666652 155.83333333333348)"><path d="M32 0 C81.06 2.24, 132.32 -0.61, 261.33 0 C284.42 3.16, 294.06 14.02, 293.33 32 C293.25 82.93, 293.99 136.38, 293.33 279.67 C291.68 301.38, 281.33 314.3, 261.33 311.67 C183.56 309.98, 103.07 312.13, 32 311.67 C11.07 314.71, 2.73 299.67, 0 279.67 C2.91 224.4, 0.85 163.64, 0 32 C2.84 7.81, 7.27 2.62, 32 0" stroke="none" stroke-width="0" fill="#a5d8ff"></path><path d="M32 0 C84.96 0.69, 141.35 -1.08, 261.33 0 M32 0 C90.54 1.09, 148.91 1.21, 261.33 0 M261.33 0 C283.9 0.72, 293.79 12.58, 293.33 32 M261.33 0 C282.51 -0.53, 294.27 10.62, 293.33 32 M293.33 32 C296.44 128.79, 296.84 230.03, 293.33 279.67 M293.33 32 C293.17 87.98, 293.29 143.56, 293.33 279.67 M293.33 279.67 C295.02 302.91, 284.1 312.71, 261.33 311.67 M293.33 279.67 C294.34 300.07, 281.27 310.66, 261.33 311.67 M261.33 311.67 C174.88 313.82, 90.09 313.5, 32 311.67 M261.33 311.67 C191.82 311.82, 123.41 311.6, 32 311.67 M32 311.67 C9.65 312.17, -0.33 300.03, 0 279.67 M32 311.67 C9.54 311.99, -2.29 299.54, 0 279.67 M0 279.67 C0.62 214.57, -1.34 148.21, 0 32 M0 279.67 C0.55 218.67, 0.56 158.21, 0 32 M0 32 C0.56 10.51, 8.75 -1.4, 32 0 M0 32 C1.12 11.45, 11.98 -0.55, 32 0" stroke="#1971c2" stroke-width="4" fill="none"></path></g><g transform="translate(250.3838482811334 485.0000000000002) rotate(0 49.88996124267578 12.5)"><text x="49.88996124267578" y="0" font-family="Virgil, Segoe UI Emoji" font-size="20px" fill="#1971c2" text-anchor="middle" style="white-space: pre;" direction="ltr" dominant-baseline="text-before-edge">Nginx-1700</text></g><g stroke-linecap="round" transform="translate(568.6071428571431 338.33333333333417) rotate(0 146.66666666666652 158.33333333333326)"><path d="M32 0 C115.81 3.88, 197.27 4.05, 261.33 0 C279.54 2.79, 295.73 7.11, 293.33 32 C289.26 92.14, 289.52 153.79, 293.33 284.67 C295 309.4, 280.81 318.57, 261.33 316.67 C191.97 321.86, 124.23 318.14, 32 316.67 C8.16 315.83, 1.32 308.5, 0 284.67 C2.3 191.29, -2.76 104.69, 0 32 C-3.33 14.24, 13.4 0.88, 32 0" stroke="none" stroke-width="0" fill="#a5d8ff"></path><path d="M32 0 C104.9 2.28, 178.52 1.53, 261.33 0 M32 0 C106.25 -0.38, 179.64 0.13, 261.33 0 M261.33 0 C282.53 -0.46, 294.14 10.63, 293.33 32 M261.33 0 C284.89 2.13, 295.53 12.38, 293.33 32 M293.33 32 C294.15 85.37, 295.04 138.02, 293.33 284.67 M293.33 32 C293.64 113.53, 293.54 193.94, 293.33 284.67 M293.33 284.67 C294.21 305.19, 281.45 315.79, 261.33 316.67 M293.33 284.67 C295.04 308, 284.48 315.81, 261.33 316.67 M261.33 316.67 C184.26 317.36, 106.84 315.49, 32 316.67 M261.33 316.67 C177.14 317.64, 93.67 317.02, 32 316.67 M32 316.67 C9.69 316.95, -1.99 304.73, 0 284.67 M32 316.67 C9.94 317.49, -1.85 307.89, 0 284.67 M0 284.67 C-0.14 188.02, -0.27 92.52, 0 32 M0 284.67 C-1.63 221.47, -2.64 157.83, 0 32 M0 32 C0.98 11.35, 11.8 -0.48, 32 0 M0 32 C-1.74 8.54, 10.38 -1.82, 32 0" stroke="#1971c2" stroke-width="4" fill="none"></path></g><g transform="translate(665.3838482811334 484.1666666666672) rotate(0 49.88996124267578 12.5)"><text x="49.88996124267578" y="0" font-family="Virgil, Segoe UI Emoji" font-size="20px" fill="#1971c2" text-anchor="middle" style="white-space: pre;" direction="ltr" dominant-baseline="text-before-edge">Nginx-1700</text></g><g stroke-linecap="round" transform="translate(975.2738095238101 336.66666666666674) rotate(0 146.66666666666652 157.5)"><path d="M32 0 C118.26 -0.89, 211.88 -6.3, 261.33 0 C280.39 -2.66, 291.86 9.01, 293.33 32 C293.33 112.74, 290.46 189.48, 293.33 283 C293.48 304.95, 285.34 315.41, 261.33 315 C171 312.99, 86.05 315.83, 32 315 C12.84 315, -2.36 307.17, 0 283 C0.76 230.52, 5.7 172.94, 0 32 C-3.45 12.56, 7.95 1.08, 32 0" stroke="none" stroke-width="0" fill="#a5d8ff"></path><path d="M32 0 C110.16 -0.42, 188.18 1.15, 261.33 0 M32 0 C108.96 -2.06, 186.38 -1.88, 261.33 0 M261.33 0 C284.6 1.86, 295.25 12.16, 293.33 32 M261.33 0 C280.62 2.28, 295.46 8.95, 293.33 32 M293.33 32 C293.25 108.38, 292.78 186.74, 293.33 283 M293.33 32 C295.16 130.91, 294.31 230.13, 293.33 283 M293.33 283 C294.82 306.08, 284.25 314.25, 261.33 315 M293.33 283 C294.16 304.86, 283.06 315, 261.33 315 M261.33 315 C188.82 312.45, 114.75 312.39, 32 315 M261.33 315 C186.39 314.17, 111.42 313.52, 32 315 M32 315 C10.03 315.72, -1.61 305.97, 0 283 M32 315 C12.58 314.14, 2.06 303.06, 0 283 M0 283 C0.49 206.95, 0.75 128.41, 0 32 M0 283 C2.36 209.99, 2.43 136.23, 0 32 M0 32 C-1.51 8.82, 10.42 -1.58, 32 0 M0 32 C1.36 8.67, 9.88 1.12, 32 0" stroke="#1971c2" stroke-width="4" fill="none"></path></g><g transform="translate(1072.0505149478013 481.66666666666674) rotate(0 49.88996124267578 12.5)"><text x="49.88996124267578" y="0" font-family="Virgil, Segoe UI Emoji" font-size="20px" fill="#1971c2" text-anchor="middle" style="white-space: pre;" direction="ltr" dominant-baseline="text-before-edge">Nginx-1700</text></g><g stroke-linecap="round" transform="translate(456.94047619047524 10) rotate(0 143.33333333333303 37.499999999999886)"><path d="M18.75 0 C75.41 0.6, 133.6 3.05, 267.92 0 C283.82 -1.86, 288.57 6.39, 286.67 18.75 C290.21 33.37, 285.84 40.03, 286.67 56.25 C285.83 70.07, 282.92 77.17, 267.92 75 C190.83 75.11, 120.56 75.17, 18.75 75 C9.82 77.74, 0.88 65.3, 0 56.25 C2.21 39.66, 3.97 29.78, 0 18.75 C-1.89 8.24, 8.66 -3.18, 18.75 0" stroke="none" stroke-width="0" fill="#b2f2bb"></path><path d="M18.75 0 C98.81 0.8, 179.59 1.72, 267.92 0 M18.75 0 C115.9 -0.71, 215.26 -2.13, 267.92 0 M267.92 0 C280.53 -0.39, 286 6.64, 286.67 18.75 M267.92 0 C280 -0.21, 288.6 8.44, 286.67 18.75 M286.67 18.75 C286.05 31.48, 285.99 48.11, 286.67 56.25 M286.67 18.75 C287.32 33.5, 287.13 47.79, 286.67 56.25 M286.67 56.25 C287.09 68.34, 278.64 76.3, 267.92 75 M286.67 56.25 C285.56 69.65, 279.24 75.57, 267.92 75 M267.92 75 C197.55 72.37, 125.69 73.49, 18.75 75 M267.92 75 C184.93 76.37, 101.32 76.22, 18.75 75 M18.75 75 C6.43 73.72, 1.77 67.75, 0 56.25 M18.75 75 C8.33 74.21, 0.64 68.57, 0 56.25 M0 56.25 C0.94 49.74, -0.21 39.44, 0 18.75 M0 56.25 C0.64 47.6, -0.29 41.17, 0 18.75 M0 18.75 C1.75 6.66, 8.11 -1.74, 18.75 0 M0 18.75 C1.78 7.78, 3.98 -1.45, 18.75 0" stroke="#2f9e44" stroke-width="4" fill="none"></path></g><g transform="translate(555.7638455345505 34.99999999999977) rotate(0 44.50996398925781 12.5)"><text x="44.50996398925781" y="0" font-family="Virgil, Segoe UI Emoji" font-size="20px" fill="#2f9e44" text-anchor="middle" style="white-space: pre;" direction="ltr" dominant-baseline="text-before-edge">Nginx-100</text></g><g transform="translate(701.8858090355279 34.99999999999932) rotate(0 8.38800048828125 22.5)"><text x="8.38800048828125" y="0" font-family="Virgil, Segoe UI Emoji" font-size="36px" fill="#1e1e1e" text-anchor="middle" style="white-space: pre;" direction="ltr" dominant-baseline="text-before-edge">?</text></g><g stroke-linecap="round"><g transform="translate(152.5 606.8214285714287) rotate(0 147.5 -0.8333333333330302)"><path d="M0.82 -0.32 C50.07 -0.84, 246.98 -1.85, 295.98 -2.19" stroke="#1e1e1e" stroke-width="4.5" fill="none" stroke-dasharray="1.5 10"></path></g></g><mask></mask><g transform="translate(189.12930806477834 613.4880952380965) rotate(0 106.70402526855469 22.5)"><text x="106.70402526855469" y="0" font-family="Virgil, Segoe UI Emoji" font-size="36px" fill="#1e1e1e" text-anchor="middle" style="white-space: pre;" direction="ltr" dominant-baseline="text-before-edge">Conso relle</text></g><g transform="translate(197.43462626139353 503.4880952380961) rotate(0 96.73204040527344 45)"><text x="96.73204040527344" y="0" font-family="Virgil, Segoe UI Emoji" font-size="36px" fill="#1e1e1e" text-anchor="middle" style="white-space: pre;" direction="ltr" dominant-baseline="text-before-edge">Ressource</text><text x="96.73204040527344" y="45" font-family="Virgil, Segoe UI Emoji" font-size="36px" fill="#1e1e1e" text-anchor="middle" style="white-space: pre;" direction="ltr" dominant-baseline="text-before-edge">Inutilisable</text></g><g stroke-linecap="round"><g transform="translate(574.1016059145322 604.3214285714282) rotate(0 147.5 -0.8333333333330302)"><path d="M0.75 0.14 C50.03 -0.36, 246.66 -2.15, 295.64 -2.31" stroke="#1e1e1e" stroke-width="4.5" fill="none" stroke-dasharray="1.5 10"></path></g></g><mask></mask><g transform="translate(610.7309139793115 610.9880952380961) rotate(0 106.70402526855469 22.5)"><text x="106.70402526855469" y="0" font-family="Virgil, Segoe UI Emoji" font-size="36px" fill="#1e1e1e" text-anchor="middle" style="white-space: pre;" direction="ltr" dominant-baseline="text-before-edge">Conso relle</text></g><g transform="translate(619.0362321759249 500.9880952380952) rotate(0 96.73204040527344 45)"><text x="96.73204040527344" y="0" font-family="Virgil, Segoe UI Emoji" font-size="36px" fill="#1e1e1e" text-anchor="middle" style="white-space: pre;" direction="ltr" dominant-baseline="text-before-edge">Ressource</text><text x="96.73204040527344" y="45" font-family="Virgil, Segoe UI Emoji" font-size="36px" fill="#1e1e1e" text-anchor="middle" style="white-space: pre;" direction="ltr" dominant-baseline="text-before-edge">Inutilisable</text></g><g stroke-linecap="round"><g transform="translate(980.7682725811983 599.3214285714278) rotate(0 147.5 -0.8333333333330302)"><path d="M-0.88 -0.84 C48.18 -1.14, 245.44 -1.72, 294.92 -1.9" stroke="#1e1e1e" stroke-width="4.5" fill="none" stroke-dasharray="1.5 10"></path></g></g><mask></mask><g transform="translate(1017.3975806459775 605.9880952380956) rotate(0 106.70402526855469 22.5)"><text x="106.70402526855469" y="0" font-family="Virgil, Segoe UI Emoji" font-size="36px" fill="#1e1e1e" text-anchor="middle" style="white-space: pre;" direction="ltr" dominant-baseline="text-before-edge">Conso relle</text></g><g transform="translate(1025.7028988425927 495.98809523809473) rotate(0 96.73204040527344 45)"><text x="96.73204040527344" y="0" font-family="Virgil, Segoe UI Emoji" font-size="36px" fill="#1e1e1e" text-anchor="middle" style="white-space: pre;" direction="ltr" dominant-baseline="text-before-edge">Ressource</text><text x="96.73204040527344" y="45" font-family="Virgil, Segoe UI Emoji" font-size="36px" fill="#1e1e1e" text-anchor="middle" style="white-space: pre;" direction="ltr" dominant-baseline="text-before-edge">Inutilisable</text></g></svg>