<svg version="1.1" xmlns="http://www.w3.org/2000/svg" viewBox="0 0 1331.666666666667 596" width="1331.666666666667" height="596">
  <!-- svg-source:excalidraw -->
  
  <defs>
    <style class="style-fonts">
      @font-face {
        font-family: "Virgil";
        src: url("https://excalidraw.com/Virgil.woff2");
      }
      @font-face {
        font-family: "Cascadia";
        src: url("https://excalidraw.com/Cascadia.woff2");
      }
      @font-face {
        font-family: "Assistant";
        src: url("https://excalidraw.com/Assistant-Regular.woff2");
      }
    </style>
    
  </defs>
  <rect x="0" y="0" width="1331.666666666667" height="596" fill="#ffffff"></rect><g stroke-linecap="round" transform="translate(10 10) rotate(0 655.8333333333335 288)"><path d="M32 0 C436.29 0.02, 840.98 -1.15, 1279.67 0 M1279.67 0 C1300.29 1.17, 1311.88 12.55, 1311.67 32 M1311.67 32 C1311.61 217.06, 1311.72 403.22, 1311.67 544 M1311.67 544 C1313.1 564.34, 1302.24 576.83, 1279.67 576 M1279.67 576 C824.91 576.54, 369.83 575.58, 32 576 M32 576 C10.52 574.6, -0.83 567.1, 0 544 M0 544 C-0.96 371.24, -1.76 197.89, 0 32 M0 32 C-1.4 9.85, 9 0.72, 32 0" stroke="#1e1e1e" stroke-width="4.5" fill="none" stroke-dasharray="1.5 10"></path></g><g stroke-linecap="round"><g transform="translate(70.8020270142988 18.700901902875557) rotate(0 2.1979729857002894 57.37569260647956)"><path d="M0 0 C-14.32 5.69, -29.05 15.16, -45.42 21.93 M0 0 C-14.26 6.94, -27.22 12.94, -45.42 21.93 M-45.42 21.93 C-50.9 43.75, -53.26 64.31, -56.01 73.9 M-45.42 21.93 C-46.93 32.17, -50.38 43.87, -56.01 73.9 M-56.01 73.9 C-47.89 84.59, -40.65 94.07, -23.23 114.8 M-56.01 73.9 C-46.44 86.53, -36.23 100.2, -23.23 114.8 M-23.23 114.8 C-11.53 114.02, 0.3 116.83, 27.77 115.98 M-23.23 114.8 C-13.67 115.54, -2.55 115.2, 27.77 115.98 M27.77 115.98 C38.4 101.83, 52.57 85.44, 60.4 74.07 M27.77 115.98 C39.71 100.08, 53.75 83.78, 60.4 74.07 M60.4 74.07 C60.29 65.41, 58.81 54.73, 51.98 26.41 M60.4 74.07 C57.97 63.09, 57.68 53.45, 51.98 26.41 M51.98 26.41 C40.2 18.73, 26.08 12.92, 0.96 -1.23 M51.98 26.41 C40.05 19.73, 29.1 13.82, 0.96 -1.23" stroke="#aaa" stroke-width="4" fill="none"></path></g></g><mask></mask><g stroke-linecap="round"><g transform="translate(72.06413156622875 17.70765845259666) rotate(0 0.5152619238074294 57.79521245372075)" fill-rule="evenodd"><path d="M-0.58 -1.34 L-44.5 23.94 L-58.22 75.34 L-23.75 115.19 L24.97 113.93 L57.58 73.79 L46.3 22.97 L-1.52 1.88" stroke="none" stroke-width="0" fill="#228be6" fill-rule="evenodd"></path><path d="M0 0 C-17.9 9.1, -34.15 18.08, -46.03 22.16 M0 0 C-15.97 6.99, -32.55 15.42, -46.03 22.16 M-46.03 22.16 C-49.61 42.74, -56.35 60.65, -57.19 73.85 M-46.03 22.16 C-49.26 36.59, -52.65 50.83, -57.19 73.85 M-57.19 73.85 C-44.31 91.21, -32.17 105.15, -25.59 114.9 M-57.19 73.85 C-50.2 84.89, -41.84 95.43, -25.59 114.9 M-25.59 114.9 C-12.52 116.74, 0.7 116.98, 25.59 115.59 M-25.59 114.9 C-13.88 114.56, -1.29 114.3, 25.59 115.59 M25.59 115.59 C38.76 99.95, 51.25 86.51, 58.22 73.68 M25.59 115.59 C33.58 106.78, 38.49 97.89, 58.22 73.68 M58.22 73.68 C56.97 61.68, 51.02 48.85, 46.89 21.98 M58.22 73.68 C55.22 54.94, 49.79 35.48, 46.89 21.98 M46.89 21.98 C32.87 15.86, 16.13 9, 0 0 M46.89 21.98 C29.05 12.52, 9.71 5.18, 0 0 M0 0 C0 0, 0 0, 0 0 M0 0 C0 0, 0 0, 0 0" stroke="#fff" stroke-width="2" fill="none"></path></g></g><mask></mask><g stroke-linecap="round"><g transform="translate(72.47227058244425 73.04040687399902) rotate(0 -0.21239179539770703 -19.375425371320034)"><path d="M0.32 0.06 C0.41 -6.31, 0.25 -31.92, 0.09 -38.4 M-0.18 -0.39 C-0.09 -6.89, 0.07 -32.88, -0.07 -39.19" stroke="#fff" stroke-width="4" fill="none"></path></g></g><mask></mask><g stroke-linecap="round"><g transform="translate(55.219045174028 113.5754425207324) rotate(0 7.537079603262555 -16.022764117678207)"><path d="M1.13 0.76 C3.46 -4.64, 12.17 -26.57, 14.66 -32.24 M0.26 0.11 C2.33 -5.11, 10.91 -25.36, 13.5 -30.8" stroke="#fff" stroke-width="4" fill="none"></path></g></g><mask></mask><g stroke-linecap="round"><g transform="translate(91.5841436063074 113.76003692901759) rotate(0 -8.540738159293596 -16.004412902719196)"><path d="M-0.41 -0.19 C-3.29 -5.85, -13.52 -27.76, -16.1 -33.18 M1.57 -1.34 C-1.47 -6.96, -13.59 -27.19, -16.54 -32.26" stroke="#fff" stroke-width="4" fill="none"></path></g></g><mask></mask><g stroke-linecap="round"><g transform="translate(113.12609460150816 85.05560644059369) rotate(0 -18.07003043573968 -3.3899048129069342)"><path d="M0.45 -0.54 C-5.46 -1.71, -29.59 -6.02, -35.62 -7.11 M0.01 0.37 C-5.9 -0.72, -29.8 -5.41, -35.78 -6.58" stroke="#fff" stroke-width="4" fill="none"></path></g></g><mask></mask><g stroke-linecap="round"><g transform="translate(31.775555321744832 84.9633092364511) rotate(0 18.152093365124983 -3.5356322738871313)"><path d="M0.52 -0.33 C6.56 -1.46, 30.68 -6.26, 36.7 -7.34 M0.12 0.69 C6.09 -0.32, 30.41 -5.37, 36.47 -6.78" stroke="#fff" stroke-width="4" fill="none"></path></g></g><mask></mask><g stroke-linecap="round"><g transform="translate(39.62081767388736 51.09023531602725) rotate(0 13.949864929891646 11.173667150840402)"><path d="M0.86 -0.59 C5.45 3.33, 24.01 19.2, 28.64 22.84 M-0.14 1.71 C4.25 5.34, 23.34 17.59, 28.08 20.98" stroke="#fff" stroke-width="4" fill="none"></path></g></g><mask></mask><g stroke-linecap="round"><g transform="translate(105.05953541116287 50.53645209116985) rotate(0 -14.491496335861939 11.182572193646592)"><path d="M0.74 0.5 C-4.1 4.15, -23.25 17.7, -28.21 21.31 M-0.33 -0.29 C-5.34 3.53, -23.85 18.35, -28.75 22.29" stroke="#fff" stroke-width="4" fill="none"></path></g></g><mask></mask><g stroke-linecap="round" transform="translate(43.43535370736572 47.98624477441808) rotate(0 29.119767907066944 29.212065111209995)"><path d="M28.21 -0.46 C34.16 -1.11, 42.79 1.81, 47.65 6.04 C52.51 10.26, 56.17 18.47, 57.36 24.88 C58.55 31.29, 57.77 39.05, 54.79 44.48 C51.8 49.91, 45.33 55.43, 39.44 57.44 C33.56 59.45, 25.44 58.9, 19.45 56.53 C13.47 54.17, 6.78 48.76, 3.54 43.25 C0.3 37.73, -1.18 29.61, 0.01 23.45 C1.19 17.3, 5.51 10.28, 10.65 6.34 C15.79 2.39, 27.34 0.82, 30.83 -0.21 C34.32 -1.25, 31.78 -0.51, 31.61 0.12 M14.39 3.52 C19.27 0.51, 28.76 -1.06, 35.22 0.05 C41.67 1.16, 49.11 5.27, 53.1 10.16 C57.08 15.06, 59.42 22.83, 59.14 29.43 C58.85 36.03, 55.79 44.74, 51.39 49.75 C46.98 54.76, 38.83 59.03, 32.68 59.49 C26.54 59.95, 19.85 56.07, 14.53 52.5 C9.2 48.93, 2.53 43.83, 0.72 38.09 C-1.1 32.34, 1.41 23.87, 3.65 18.05 C5.9 12.23, 12.32 5.36, 14.2 3.18 C16.08 1, 14.33 4.3, 14.92 4.98" stroke="#fff" stroke-width="4" fill="none"></path></g><g stroke-linecap="round" transform="translate(64.1560760374341 68.43007549205868) rotate(0 8.122153964570089 8.675937189427259)"><path d="M9.57 -0.2 C11.25 0.12, 13.04 2.05, 14.19 3.61 C15.33 5.17, 16.4 7.3, 16.43 9.15 C16.47 11.01, 15.56 13.4, 14.41 14.73 C13.26 16.06, 11.3 16.97, 9.53 17.15 C7.76 17.32, 5.32 16.8, 3.78 15.8 C2.23 14.8, 0.77 12.89, 0.26 11.15 C-0.25 9.41, 0.02 7.03, 0.7 5.33 C1.37 3.64, 2.8 1.9, 4.31 1 C5.82 0.1, 8.82 -0.05, 9.74 -0.09 C10.67 -0.13, 9.95 0.53, 9.87 0.78 M6.64 -0.2 C8.43 -0.73, 11.05 -0.36, 12.65 0.55 C14.25 1.45, 15.64 3.29, 16.23 5.21 C16.81 7.13, 16.84 10.13, 16.14 12.08 C15.44 14.02, 13.53 16.12, 12.04 16.86 C10.55 17.61, 8.95 16.97, 7.21 16.54 C5.46 16.11, 2.65 15.59, 1.56 14.27 C0.48 12.96, 0.78 10.53, 0.72 8.65 C0.65 6.78, 0.26 4.34, 1.18 3.01 C2.1 1.69, 5.24 1.05, 6.23 0.71 C7.23 0.36, 7.05 1.01, 7.15 0.96" stroke="#fff" stroke-width="4" fill="none"></path></g><g transform="translate(141.40003967285156 64.33333333333212) rotate(0 35.59996032714844 12.5)"><text x="35.59996032714844" y="0" font-family="Virgil, Segoe UI Emoji" font-size="20px" fill="#1e1e1e" text-anchor="middle" style="white-space: pre;" direction="ltr" dominant-baseline="text-before-edge">Cluster</text></g><g stroke-linecap="round" transform="translate(136.94047619047706 127.35714285714312) rotate(0 164.16666666666652 213.33333333333348)"><path d="M32 0 C87.06 3.28, 148.5 -0.37, 296.33 0 C320.35 3.32, 328.84 9.56, 328.33 32 C326.33 111.71, 325.28 191.34, 328.33 394.67 C328.56 415.83, 317.56 424.74, 296.33 426.67 C206.73 427.42, 116.29 425.86, 32 426.67 C9.83 426.35, -1.14 413.09, 0 394.67 C-1.97 262.7, 1.1 136.29, 0 32 C3.3 9.63, 7.73 0.63, 32 0" stroke="none" stroke-width="0" fill="#ffc9c9"></path><path d="M32 0 C130.65 -0.14, 228.88 2.38, 296.33 0 M32 0 C121.91 -0.35, 210.37 -0.82, 296.33 0 M296.33 0 C316.27 -0.82, 326.67 11.39, 328.33 32 M296.33 0 C316.3 0.83, 327.77 9.99, 328.33 32 M328.33 32 C325.95 120.03, 326.29 205.22, 328.33 394.67 M328.33 32 C328.38 145.6, 328.4 259.82, 328.33 394.67 M328.33 394.67 C329.4 417.07, 317.35 428.42, 296.33 426.67 M328.33 394.67 C329.95 413.93, 316.7 426.81, 296.33 426.67 M296.33 426.67 C191.59 423.53, 88.33 425.41, 32 426.67 M296.33 426.67 C193.27 425.62, 90.31 424.7, 32 426.67 M32 426.67 C12.29 427.74, -0.79 416.64, 0 394.67 M32 426.67 C10.92 428.5, -0.63 416.86, 0 394.67 M0 394.67 C2.8 270.53, 0.57 147.49, 0 32 M0 394.67 C0.23 300.93, 0.9 207.12, 0 32 M0 32 C0.29 8.89, 10.06 1.33, 32 0 M0 32 C0.45 12.58, 10.98 0.85, 32 0" stroke="#1e1e1e" stroke-width="4" fill="none"></path></g><g stroke-linecap="round"><g transform="translate(188.09213676645413 131.172532922732) rotate(0 1.3483394240215603 35.19693318579448)"><path d="M0 0 C-7.9 4.99, -13.38 8.21, -27.86 13.45 M0 0 C-9.06 3.95, -18.57 8.32, -27.86 13.45 M-27.86 13.45 C-28.43 19.84, -31.15 26.05, -34.36 45.33 M-27.86 13.45 C-28.56 20.62, -31.73 29.36, -34.36 45.33 M-34.36 45.33 C-30.4 53.63, -24.37 60.64, -14.25 70.42 M-34.36 45.33 C-26.59 53.13, -20.6 62.95, -14.25 70.42 M-14.25 70.42 C-2.02 69.66, 12.06 72.32, 17.04 71.15 M-14.25 70.42 C-2.54 71.67, 9.29 70.79, 17.04 71.15 M17.04 71.15 C25.17 61.65, 33.75 51.08, 37.06 45.44 M17.04 71.15 C24.09 63.56, 30.3 53.12, 37.06 45.44 M37.06 45.44 C37.13 33.75, 33.91 25.34, 31.88 16.2 M37.06 45.44 C34.98 36.26, 33.74 26.63, 31.88 16.2 M31.88 16.2 C22.66 10.04, 10.85 6.83, 0.59 -0.75 M31.88 16.2 C20.72 9.98, 7.32 2.41, 0.59 -0.75" stroke="#aaa" stroke-width="4" fill="none"></path></g></g><mask></mask><g stroke-linecap="round"><g transform="translate(188.86637072459416 130.56323093841638) rotate(0 0.31608576178450676 35.45428628015702)" fill-rule="evenodd"><path d="M-1.62 -0.47 L-28.41 12.96 L-36.7 46.47 L-15.42 72.36 L14.47 69.12 L37.2 46.53 L30.59 12.91 L-1.63 0.35" stroke="none" stroke-width="0" fill="#228be6" fill-rule="evenodd"></path><path d="M0 0 C-5.79 4.95, -12.58 8.15, -28.24 13.59 M0 0 C-9.63 3.75, -18.67 8.81, -28.24 13.59 M-28.24 13.59 C-30.36 20.02, -32.46 30.18, -35.09 45.31 M-28.24 13.59 C-30.27 20.16, -30.95 26.06, -35.09 45.31 M-35.09 45.31 C-29.77 55.27, -20.34 62.91, -15.7 70.49 M-35.09 45.31 C-27.81 55.31, -18.91 65.02, -15.7 70.49 M-15.7 70.49 C-7.82 71.8, -1.26 70.8, 15.7 70.91 M-15.7 70.49 C-9.48 69.92, -0.91 70.99, 15.7 70.91 M15.7 70.91 C22.42 63.65, 26.78 58.34, 35.72 45.2 M15.7 70.91 C20.05 64, 25.37 58.53, 35.72 45.2 M35.72 45.2 C33.98 37.44, 32.32 28.07, 28.76 13.49 M35.72 45.2 C34.54 39.39, 33.02 32.24, 28.76 13.49 M28.76 13.49 C21.18 12.03, 18.1 6.56, 0 0 M28.76 13.49 C17.56 7.64, 6.78 3.48, 0 0 M0 0 C0 0, 0 0, 0 0 M0 0 C0 0, 0 0, 0 0" stroke="#fff" stroke-width="2" fill="none"></path></g></g><mask></mask><g stroke-linecap="round"><g transform="translate(189.04782286589034 142.0290426118845) rotate(0 0.19316747069342455 21.486189734145455)" fill-rule="evenodd"><path d="M-0.09 -0.32 L-18.06 8.82 L-21.3 28.39 L-10.21 41.82 L10.33 43.64 L22.74 27.11 L16.76 8.35 L-0.91 -0.87" stroke="none" stroke-width="0" fill="#fff" fill-rule="evenodd"></path><path d="M0 0 C-6.47 4.06, -13.25 6.3, -17.26 8.24 M0 0 C-4.86 2.25, -9.18 4.37, -17.26 8.24 M-17.26 8.24 C-18.95 14.18, -20.54 19.51, -21.44 27.46 M-17.26 8.24 C-18.38 12.48, -18.99 16.73, -21.44 27.46 M-21.44 27.46 C-16.7 32.79, -12.08 39.14, -9.59 42.72 M-21.44 27.46 C-18.52 30.66, -16.97 33.83, -9.59 42.72 M-9.59 42.72 C-4.29 42.7, -1.43 42.36, 9.59 42.97 M-9.59 42.72 C-2.07 43.11, 4.49 43.1, 9.59 42.97 M9.59 42.97 C13.71 38.56, 16.44 33.7, 21.83 27.39 M9.59 42.97 C14.72 36.68, 19.12 31.2, 21.83 27.39 M21.83 27.39 C21.12 22.89, 18.87 17.79, 17.58 8.17 M21.83 27.39 C20.32 20.55, 18.28 13.48, 17.58 8.17 M17.58 8.17 C13.71 5.53, 8.8 4.7, 0 0 M17.58 8.17 C11.91 5.56, 6.4 3.2, 0 0 M0 0 C0 0, 0 0, 0 0 M0 0 C0 0, 0 0, 0 0" stroke="#fff" stroke-width="2" fill="none"></path></g></g><mask></mask><g stroke-linecap="round" transform="translate(180.06869144109078 163.0357813322462) rotate(0 3.1204335526149407 3.160749231589307)"><path d="M2.89 -0.28 C3.57 -0.33, 4.61 0.03, 5.18 0.48 C5.74 0.94, 6.2 1.78, 6.3 2.44 C6.4 3.1, 6.14 3.81, 5.77 4.46 C5.4 5.11, 4.76 6, 4.1 6.32 C3.44 6.64, 2.46 6.69, 1.82 6.39 C1.18 6.1, 0.53 5.16, 0.24 4.54 C-0.05 3.91, -0.03 3.25, 0.08 2.66 C0.19 2.07, 0.44 1.4, 0.9 0.99 C1.36 0.59, 2.49 0.33, 2.83 0.21 C3.17 0.08, 2.88 0.23, 2.95 0.24 M3.37 0.06 C4.02 0.19, 5.54 0.57, 5.93 1.07 C6.33 1.56, 5.87 2.29, 5.75 3.03 C5.63 3.77, 5.52 4.9, 5.23 5.51 C4.94 6.12, 4.6 6.69, 4 6.7 C3.4 6.71, 2.29 5.89, 1.62 5.55 C0.95 5.22, 0.3 5.29, -0.01 4.69 C-0.31 4.08, -0.54 2.6, -0.23 1.95 C0.09 1.29, 1.29 1.03, 1.89 0.74 C2.49 0.45, 3.09 0.23, 3.38 0.19 C3.67 0.15, 3.62 0.44, 3.62 0.49" stroke="#228be6" stroke-width="2" fill="none"></path></g><g stroke-linecap="round"><g transform="translate(183.19718812950123 163.13253896178503) rotate(0 0.17738898748712018 -0.620861456205148)"><path d="M-0.06 -0.15 C-0.09 -0.39, 0.09 -1.23, 0.11 -1.39 M-0.52 0.53 C-0.47 0.34, 0.56 -0.63, 0.77 -1.01" stroke="#228be6" stroke-width="2" fill="none"></path></g></g><mask></mask><g stroke-linecap="round"><g transform="translate(185.27747716457816 163.69695846742616) rotate(0 0.620861456205148 -0.23383093805114186)"><path d="M-0.25 -0.15 C-0.08 -0.18, 0.73 -0.31, 0.95 -0.34 M0.27 -0.53 C0.55 -0.65, 1.34 -0.82, 1.59 -0.9" stroke="#228be6" stroke-width="2" fill="none"></path></g></g><mask></mask><g stroke-linecap="round"><g transform="translate(186.06766447247537 166.13202547747642) rotate(0 0.8143767152819237 0.16126271589746466)"><path d="M-0.3 0.13 C-0.02 0.23, 1.11 0.44, 1.42 0.45 M0.2 -0.11 C0.61 -0.11, 1.93 -0.22, 2.11 -0.11" stroke="#228be6" stroke-width="2" fill="none"></path></g></g><mask></mask><g stroke-linecap="round"><g transform="translate(185.51937123842436 168.5509662159384) rotate(0 0.4273461971283723 0.5241038266665328)"><path d="M-0.21 0.13 C-0.03 0.26, 0.63 0.82, 0.77 0.94 M0.33 -0.11 C0.48 0.06, 0.27 1.13, 0.45 1.34" stroke="#228be6" stroke-width="2" fill="none"></path></g></g><mask></mask><g stroke-linecap="round"><g transform="translate(183.1165567715525 169.40565861019422) rotate(0 -0.09675762953838785 0.6934296783588252)"><path d="M-0.09 -0.1 C-0.12 0.07, -0.43 1.01, -0.41 1.2 M0.51 -0.46 C0.61 -0.25, 0.38 1.27, 0.28 1.56" stroke="#228be6" stroke-width="2" fill="none"></path></g></g><mask></mask><g stroke-linecap="round"><g transform="translate(181.22978299555325 168.29294587050208) rotate(0 -0.548293234051016 0.620861456205148)"><path d="M-0.21 -0.18 C-0.34 -0.02, -0.75 0.7, -0.86 0.9 M0.33 0.49 C0.18 0.7, -0.8 1.05, -1.02 1.18" stroke="#228be6" stroke-width="2" fill="none"></path></g></g><mask></mask><g stroke-linecap="round"><g transform="translate(180.48797450242455 166.11589920588813) rotate(0 -1.0562707891281207 0)"><path d="M0.24 -0.34 C-0.04 -0.35, -1.42 -0.31, -1.86 -0.24 M-0.07 0.25 C-0.35 0.3, -1.74 0.05, -2.02 0.08" stroke="#228be6" stroke-width="2" fill="none"></path></g></g><mask></mask><g stroke-linecap="round"><g transform="translate(181.5684346989383 163.7775898253749) rotate(0 -0.620861456205148 -0.16126271589746466)"><path d="M0.25 -0.24 C-0.05 -0.23, -1.29 -0.23, -1.55 -0.27 M-0.05 0.4 C-0.26 0.51, -0.66 0.3, -0.91 0.21" stroke="#228be6" stroke-width="2" fill="none"></path></g></g><mask></mask><g stroke-linecap="round" transform="translate(188.19002067506335 165.36912620868316) rotate(0 4.815615833200354 4.877833092027231)"><path d="M4.42 0.21 C5.39 0.12, 6.71 0.64, 7.59 1.25 C8.47 1.86, 9.42 2.83, 9.72 3.87 C10.01 4.9, 9.91 6.55, 9.33 7.45 C8.76 8.35, 7.27 8.89, 6.27 9.28 C5.26 9.68, 4.22 10.18, 3.29 9.82 C2.37 9.45, 1.25 8.07, 0.71 7.09 C0.16 6.1, -0.17 4.87, 0.03 3.92 C0.23 2.97, 1.05 2.04, 1.89 1.38 C2.73 0.73, 4.62 0.23, 5.07 -0.01 C5.52 -0.25, 4.6 -0.09, 4.59 -0.05 M4.27 0.17 C5.18 0.06, 6.84 0.71, 7.69 1.32 C8.54 1.94, 9.07 2.98, 9.35 3.87 C9.63 4.76, 9.75 5.66, 9.36 6.65 C8.97 7.64, 7.98 9.38, 6.99 9.8 C6 10.22, 4.41 9.55, 3.43 9.15 C2.46 8.76, 1.72 8.13, 1.13 7.41 C0.54 6.69, -0.11 5.82, -0.1 4.84 C-0.1 3.85, 0.37 2.27, 1.17 1.49 C1.98 0.72, 4.15 0.49, 4.71 0.19 C5.27 -0.12, 4.61 -0.44, 4.55 -0.34" stroke="#228be6" stroke-width="2" fill="none"></path></g><g stroke-linecap="round"><g transform="translate(193.01807996002935 165.5184476298673) rotate(0 0.2737559388383488 -0.9581457859339935)"><path d="M-0.05 -0.15 C0.13 -0.53, 0.62 -1.88, 0.75 -2.22 M-0.5 -0.54 C-0.33 -0.88, 0.39 -1.69, 0.58 -1.92" stroke="#228be6" stroke-width="2" fill="none"></path></g></g><mask></mask><g stroke-linecap="round"><g transform="translate(196.22849051549565 166.38948925344448) rotate(0 0.9581457859339935 -0.3608601011958399)"><path d="M0.21 -0.3 C0.57 -0.44, 1.82 -0.93, 2.14 -0.97 M-0.12 0.31 C0.23 0.23, 1.62 -0.41, 1.97 -0.65" stroke="#228be6" stroke-width="2" fill="none"></path></g></g><mask></mask><g stroke-linecap="round"><g transform="translate(197.4479487885037 170.14741168658657) rotate(0 1.2567886283027292 0.24886903530750715)"><path d="M0.22 -0.25 C0.64 -0.09, 2.33 0.51, 2.7 0.69 M-0.1 0.39 C0.27 0.48, 2.14 0.18, 2.52 0.16" stroke="#228be6" stroke-width="2" fill="none"></path></g></g><mask></mask><g stroke-linecap="round"><g transform="translate(196.60179406845782 173.88044721619917) rotate(0 0.659502943564803 0.8088243647493982)"><path d="M0.19 0.19 C0.36 0.55, 1.03 1.75, 1.26 1.93 M-0.14 -0.02 C-0.04 0.27, 0.69 1.21, 0.96 1.47" stroke="#228be6" stroke-width="2" fill="none"></path></g></g><mask></mask><g stroke-linecap="round"><g transform="translate(192.8936454423747 175.19945310332878) rotate(0 -0.14932142118459524 1.0701368518223262)"><path d="M-0.06 0.31 C-0.1 0.58, 0.02 1.51, -0.05 1.82 M-0.51 0.16 C-0.59 0.45, -0.16 1.71, -0.2 2.11" stroke="#228be6" stroke-width="2" fill="none"></path></g></g><mask></mask><g stroke-linecap="round"><g transform="translate(189.9818777292785 173.48225675970752) rotate(0 -0.8461547200454334 0.9581457859339935)"><path d="M0.25 -0.32 C-0.05 -0.05, -1.58 1.56, -1.84 1.94 M-0.05 0.28 C-0.4 0.77, -1.97 2.06, -2.2 2.4" stroke="#228be6" stroke-width="2" fill="none"></path></g></g><mask></mask><g stroke-linecap="round"><g transform="translate(188.8370801668625 170.1225247830571) rotate(0 -1.63009218126399 0)"><path d="M-0.15 0.02 C-0.68 0.08, -2.34 0.01, -2.92 0 M0.42 -0.27 C-0.15 -0.13, -2.46 0.35, -3.02 0.46" stroke="#228be6" stroke-width="2" fill="none"></path></g></g><mask></mask><g stroke-linecap="round"><g transform="translate(190.504502703423 166.51392377109732) rotate(0 -0.9581457859339935 -0.24886903530750715)"><path d="M0.34 0 C-0.01 -0.09, -1.85 -0.49, -2.27 -0.53 M0.09 -0.3 C-0.15 -0.34, -1.4 -0.01, -1.65 -0.09" stroke="#228be6" stroke-width="2" fill="none"></path></g></g><mask></mask><g stroke-linecap="round" transform="translate(190.99258393935997 154.65631123976164) rotate(0 3.1204335526149407 3.160749231589307)"><path d="M3.06 0.01 C3.6 -0.16, 4.04 0.04, 4.59 0.38 C5.13 0.71, 6.14 1.29, 6.35 2.01 C6.56 2.73, 6.11 4.05, 5.84 4.69 C5.56 5.33, 5.25 5.59, 4.69 5.86 C4.14 6.12, 3.13 6.42, 2.5 6.27 C1.86 6.12, 1.27 5.48, 0.88 4.95 C0.48 4.42, 0.17 3.74, 0.13 3.11 C0.09 2.47, 0.12 1.64, 0.62 1.12 C1.12 0.6, 2.8 0.11, 3.12 -0.03 C3.45 -0.17, 2.65 0.23, 2.58 0.28 M3.83 0.21 C4.53 0.18, 5.16 0.09, 5.54 0.63 C5.91 1.16, 6.07 2.6, 6.09 3.42 C6.11 4.24, 6.04 5.05, 5.65 5.55 C5.27 6.06, 4.54 6.35, 3.8 6.45 C3.06 6.54, 1.82 6.51, 1.2 6.1 C0.58 5.69, 0.18 4.56, 0.07 3.97 C-0.04 3.39, 0.35 3.12, 0.55 2.59 C0.74 2.07, 0.66 1.25, 1.24 0.83 C1.83 0.42, 3.69 0.3, 4.05 0.11 C4.42 -0.08, 3.54 -0.36, 3.43 -0.32" stroke="#228be6" stroke-width="2" fill="none"></path></g><g stroke-linecap="round"><g transform="translate(194.1210806277686 154.75306886930048) rotate(0 0.17738898748712018 -0.620861456205148)"><path d="M-0.24 0.27 C-0.09 0.12, 0.44 -0.63, 0.53 -0.93 M0.28 0.11 C0.43 -0.13, 0.38 -1.16, 0.35 -1.39" stroke="#228be6" stroke-width="2" fill="none"></path></g></g><mask></mask><g stroke-linecap="round"><g transform="translate(196.20136966284554 155.3174883749416) rotate(0 0.620861456205148 -0.23383093805114186)"><path d="M0.18 0.31 C0.42 0.15, 1.08 -0.65, 1.23 -0.74 M-0.16 0.17 C0.06 0.01, 0.79 -0.28, 0.95 -0.43" stroke="#228be6" stroke-width="2" fill="none"></path></g></g><mask></mask><g stroke-linecap="round"><g transform="translate(196.99155697074275 157.75255538499187) rotate(0 0.8143767152819237 0.16126271589746466)"><path d="M-0.01 -0.28 C0.2 -0.23, 1.24 0.5, 1.47 0.58 M-0.45 0.35 C-0.31 0.45, 0.69 0.07, 1.11 0.09" stroke="#228be6" stroke-width="2" fill="none"></path></g></g><mask></mask><g stroke-linecap="round"><g transform="translate(196.44326373669173 160.17149612345384) rotate(0 0.4273461971283723 0.5241038266665328)"><path d="M-0.16 0.26 C-0.06 0.45, 0.36 0.73, 0.58 0.89 M0.4 0.08 C0.61 0.35, 1.13 1.17, 1.24 1.27" stroke="#228be6" stroke-width="2" fill="none"></path></g></g><mask></mask><g stroke-linecap="round"><g transform="translate(194.0404492698217 161.02618851770967) rotate(0 -0.09675762953838785 0.6934296783588252)"><path d="M-0.27 -0.15 C-0.23 0.07, 0.11 1.3, 0.1 1.58 M0.23 0.53 C0.27 0.63, 0.11 1, -0.04 1.05" stroke="#228be6" stroke-width="2" fill="none"></path></g></g><mask></mask><g stroke-linecap="round"><g transform="translate(192.15367549382063 159.91347577801753) rotate(0 -0.548293234051016 0.620861456205148)"><path d="M0.29 0.19 C0.13 0.44, -1.01 1.13, -1.24 1.36 M0.01 -0.02 C-0.19 0.14, -1.38 0.62, -1.59 0.79" stroke="#228be6" stroke-width="2" fill="none"></path></g></g><mask></mask><g stroke-linecap="round"><g transform="translate(191.41186700069193 157.73642911340175) rotate(0 -1.0562707891281207 0)"><path d="M-0.14 0.11 C-0.53 0.13, -1.73 0.28, -2.07 0.28 M0.43 -0.13 C-0.03 -0.23, -1.85 -0.14, -2.33 -0.2" stroke="#228be6" stroke-width="2" fill="none"></path></g></g><mask></mask><g stroke-linecap="round"><g transform="translate(192.49232719720567 155.39811973289034) rotate(0 -0.620861456205148 -0.16126271589746466)"><path d="M0.04 0.28 C-0.16 0.23, -1.15 -0.05, -1.34 -0.19 M-0.37 0.12 C-0.61 -0.05, -1.52 -0.67, -1.67 -0.75" stroke="#228be6" stroke-width="2" fill="none"></path></g></g><mask></mask><g stroke-linecap="round"><g transform="translate(136.94047619047706 210.69047619047524) rotate(0 165.83333333333348 -0.8333333333332575)"><path d="M-0.33 0.45 C55.01 -0.13, 276.75 -2.35, 332.17 -2.52 M1.7 -0.36 C56.92 -0.9, 276.49 -1.11, 331.48 -1.43" stroke="#1e1e1e" stroke-width="4" fill="none"></path></g></g><mask></mask><g stroke-linecap="round" transform="translate(549.746143254346 124.16014893025567) rotate(0 164.16666666666652 213.33333333333348)"><path d="M32 0 C102.97 -0.23, 177.67 -1.09, 296.33 0 M32 0 C89.06 1.58, 146.06 1.04, 296.33 0 M296.33 0 C318.64 0.7, 328.63 8.89, 328.33 32 M296.33 0 C316.97 1.53, 328.78 12.58, 328.33 32 M328.33 32 C329.59 145.38, 328.33 260.46, 328.33 394.67 M328.33 32 C327.74 173.18, 326.97 313.66, 328.33 394.67 M328.33 394.67 C327.69 416.11, 317.07 427.65, 296.33 426.67 M328.33 394.67 C326.58 418.17, 317.81 426.56, 296.33 426.67 M296.33 426.67 C218.01 428.25, 140.26 427.21, 32 426.67 M296.33 426.67 C191.81 425.93, 86.79 426.64, 32 426.67 M32 426.67 C10.95 428.54, -1.23 414.21, 0 394.67 M32 426.67 C12.37 428.2, 2.11 415.34, 0 394.67 M0 394.67 C-1.5 315.54, -0.27 235.33, 0 32 M0 394.67 C1.21 271.63, 1.42 147.7, 0 32 M0 32 C1.64 11.8, 9.42 1.99, 32 0 M0 32 C-0.67 9.03, 9.81 -0.22, 32 0" stroke="#1e1e1e" stroke-width="4" fill="none"></path></g><g stroke-linecap="round"><g transform="translate(590.897803830323 127.97553899584454) rotate(0 1.3483394240215603 35.19693318579448)"><path d="M0 0 C-7.74 4.45, -20.81 10.51, -27.86 13.45 M0 0 C-7.82 3.96, -13.97 7.57, -27.86 13.45 M-27.86 13.45 C-28.86 23.86, -30.57 33.77, -34.36 45.33 M-27.86 13.45 C-30.61 23.55, -31.75 35.86, -34.36 45.33 M-34.36 45.33 C-28.89 50.77, -25.84 56.98, -14.25 70.42 M-34.36 45.33 C-29.05 53.84, -22.09 60.51, -14.25 70.42 M-14.25 70.42 C-4.7 71.29, 5.58 70.19, 17.04 71.15 M-14.25 70.42 C-1.98 70.47, 9.66 71.65, 17.04 71.15 M17.04 71.15 C21.3 64.68, 30.7 56.95, 37.06 45.44 M17.04 71.15 C21.77 63.26, 28.22 57.27, 37.06 45.44 M37.06 45.44 C36.59 37.2, 36.44 30.96, 31.88 16.2 M37.06 45.44 C34.38 36.2, 32.89 24.24, 31.88 16.2 M31.88 16.2 C22.83 13.48, 16.67 7.73, 0.59 -0.75 M31.88 16.2 C22.17 11.03, 11.29 4.79, 0.59 -0.75" stroke="#aaa" stroke-width="4" fill="none"></path></g></g><mask></mask><g stroke-linecap="round"><g transform="translate(591.6720377884631 127.36623701152894) rotate(0 0.31608576178450676 35.45428628015702)" fill-rule="evenodd"><path d="M0.98 1.28 L-28.16 14.17 L-33.89 46.43 L-14.49 69.7 L15.67 69.86 L35.48 44.07 L29.37 12.01 L-0.32 1.16" stroke="none" stroke-width="0" fill="#228be6" fill-rule="evenodd"></path><path d="M0 0 C-11.16 5.8, -19.94 8.71, -28.24 13.59 M0 0 C-10.63 5.73, -22.01 9.8, -28.24 13.59 M-28.24 13.59 C-28.21 22.44, -30.98 29.04, -35.09 45.31 M-28.24 13.59 C-29.84 24.99, -33.4 35.4, -35.09 45.31 M-35.09 45.31 C-29.11 54.59, -19.74 64.52, -15.7 70.49 M-35.09 45.31 C-28.45 53.87, -21.77 62.17, -15.7 70.49 M-15.7 70.49 C-3.6 69.99, 7.91 69.04, 15.7 70.91 M-15.7 70.49 C-7.82 71.29, 1.82 71.76, 15.7 70.91 M15.7 70.91 C22.03 66.46, 24.9 56.87, 35.72 45.2 M15.7 70.91 C22.4 63.02, 28 55.17, 35.72 45.2 M35.72 45.2 C35.93 37.25, 33.41 32.27, 28.76 13.49 M35.72 45.2 C33.14 33.25, 30.59 22.56, 28.76 13.49 M28.76 13.49 C21.16 9.98, 11.48 6.64, 0 0 M28.76 13.49 C20.26 9.35, 11.91 5.4, 0 0 M0 0 C0 0, 0 0, 0 0 M0 0 C0 0, 0 0, 0 0" stroke="#fff" stroke-width="2" fill="none"></path></g></g><mask></mask><g stroke-linecap="round"><g transform="translate(591.8534899297592 138.83204868499706) rotate(0 0.19316747069342455 21.486189734145455)" fill-rule="evenodd"><path d="M0.04 0.29 L-16.66 8.8 L-20.84 27.06 L-9.61 42.19 L9.47 42.41 L22.13 26.66 L17.42 8.75 L-0.66 0.15" stroke="none" stroke-width="0" fill="#fff" fill-rule="evenodd"></path><path d="M0 0 C-5.37 2.17, -9.06 4.22, -17.26 8.24 M0 0 C-5.48 2.26, -11.26 5.67, -17.26 8.24 M-17.26 8.24 C-18.15 13.55, -19.53 20.24, -21.44 27.46 M-17.26 8.24 C-18.41 13.1, -18.68 17.28, -21.44 27.46 M-21.44 27.46 C-18.26 31.3, -14.65 34.95, -9.59 42.72 M-21.44 27.46 C-16.78 33.22, -11.88 39.55, -9.59 42.72 M-9.59 42.72 C-2.16 42.05, 3.22 42.83, 9.59 42.97 M-9.59 42.72 C-4.38 43.18, 0.4 42.37, 9.59 42.97 M9.59 42.97 C13.83 36.28, 18.87 30.36, 21.83 27.39 M9.59 42.97 C11.87 39.86, 14.44 36.56, 21.83 27.39 M21.83 27.39 C21.24 23.68, 20.3 17.74, 17.58 8.17 M21.83 27.39 C19.98 19.66, 18.51 11.82, 17.58 8.17 M17.58 8.17 C10.99 5.64, 3.82 2.33, 0 0 M17.58 8.17 C11.43 5.12, 5.77 2.32, 0 0 M0 0 C0 0, 0 0, 0 0 M0 0 C0 0, 0 0, 0 0" stroke="#fff" stroke-width="2" fill="none"></path></g></g><mask></mask><g stroke-linecap="round" transform="translate(582.8743585049597 159.83878740536056) rotate(0 3.1204335526149407 3.160749231589307)"><path d="M2.94 0.06 C3.5 -0.08, 4.02 0.07, 4.59 0.46 C5.16 0.84, 6.08 1.7, 6.35 2.38 C6.62 3.06, 6.53 3.96, 6.24 4.52 C5.94 5.08, 5.22 5.46, 4.59 5.73 C3.96 6, 3.15 6.2, 2.45 6.12 C1.74 6.04, 0.71 5.82, 0.36 5.25 C0 4.69, 0.18 3.41, 0.31 2.74 C0.44 2.08, 0.7 1.73, 1.14 1.25 C1.58 0.78, 2.68 0.12, 2.94 -0.09 C3.2 -0.31, 2.69 -0.09, 2.69 -0.04 M3.41 -0.01 C4.1 -0.12, 4.79 0.15, 5.3 0.65 C5.81 1.14, 6.36 2.16, 6.46 2.93 C6.55 3.7, 6.32 4.65, 5.88 5.27 C5.44 5.9, 4.56 6.58, 3.81 6.69 C3.07 6.79, 2.01 6.3, 1.41 5.92 C0.82 5.53, 0.54 4.9, 0.26 4.35 C-0.03 3.81, -0.49 3.2, -0.3 2.65 C-0.11 2.1, 0.83 1.56, 1.39 1.05 C1.95 0.53, 2.68 -0.33, 3.07 -0.44 C3.46 -0.54, 3.62 0.3, 3.74 0.41" stroke="#228be6" stroke-width="2" fill="none"></path></g><g stroke-linecap="round"><g transform="translate(586.0028551933701 159.9355450348994) rotate(0 0.17738898748712018 -0.620861456205148)"><path d="M-0.2 0.08 C-0.1 -0.16, 0.43 -0.84, 0.53 -1.12 M0.34 -0.18 C0.42 -0.38, 0.36 -1.48, 0.34 -1.68" stroke="#228be6" stroke-width="2" fill="none"></path></g></g><mask></mask><g stroke-linecap="round"><g transform="translate(588.083144228447 160.4999645405387) rotate(0 0.620861456205148 -0.23383093805114186)"><path d="M0.17 0.12 C0.42 -0.02, 1.13 -0.72, 1.29 -0.78 M-0.17 -0.12 C0.06 -0.24, 0.87 -0.38, 1.04 -0.49" stroke="#228be6" stroke-width="2" fill="none"></path></g></g><mask></mask><g stroke-linecap="round"><g transform="translate(588.8733315363443 162.9350315505908) rotate(0 0.8143767152819237 0.16126271589746466)"><path d="M0.05 -0.32 C0.28 -0.24, 1.25 0.4, 1.52 0.56 M-0.35 0.29 C-0.19 0.25, 0.88 0.09, 1.19 0.06" stroke="#228be6" stroke-width="2" fill="none"></path></g></g><mask></mask><g stroke-linecap="round"><g transform="translate(588.3250383022933 165.35397228905094) rotate(0 0.4273461971283723 0.5241038266665328)"><path d="M-0.11 0.24 C0.04 0.51, 0.76 1.19, 0.92 1.34 M0.48 0.05 C0.58 0.26, 0.65 0.79, 0.68 0.87" stroke="#228be6" stroke-width="2" fill="none"></path></g></g><mask></mask><g stroke-linecap="round"><g transform="translate(585.9222238354214 166.2086646833086) rotate(0 -0.09675762953838785 0.6934296783588252)"><path d="M0.07 0.3 C0.06 0.51, -0.05 1.32, -0.15 1.52 M-0.32 0.14 C-0.36 0.22, -0.49 0.84, -0.4 0.96" stroke="#228be6" stroke-width="2" fill="none"></path></g></g><mask></mask><g stroke-linecap="round"><g transform="translate(584.0354500594203 165.09595194361646) rotate(0 -0.548293234051016 0.620861456205148)"><path d="M0.05 0.13 C-0.2 0.31, -1.19 1.21, -1.4 1.36 M-0.35 -0.11 C-0.5 0.11, -0.57 0.57, -0.75 0.8" stroke="#228be6" stroke-width="2" fill="none"></path></g></g><mask></mask><g stroke-linecap="round"><g transform="translate(583.2936415662934 162.91890527900068) rotate(0 -1.0562707891281207 0)"><path d="M-0.3 0.12 C-0.68 0.06, -1.96 -0.27, -2.22 -0.24 M0.19 -0.13 C-0.24 -0.16, -2.19 0.1, -2.55 0.09" stroke="#228be6" stroke-width="2" fill="none"></path></g></g><mask></mask><g stroke-linecap="round"><g transform="translate(584.3741017628054 160.58059589848745) rotate(0 -0.620861456205148 -0.16126271589746466)"><path d="M-0.1 -0.24 C-0.21 -0.26, -0.75 -0.04, -0.97 -0.01 M0.49 0.41 C0.38 0.28, -0.74 -0.3, -1.11 -0.47" stroke="#228be6" stroke-width="2" fill="none"></path></g></g><mask></mask><g stroke-linecap="round" transform="translate(590.9956877389322 162.1721322817957) rotate(0 4.815615833200354 4.877833092027231)"><path d="M4.45 -0.09 C5.34 -0.3, 6.47 0.18, 7.31 0.78 C8.15 1.38, 9.15 2.54, 9.49 3.52 C9.83 4.51, 9.73 5.73, 9.34 6.69 C8.95 7.66, 8.12 8.84, 7.16 9.32 C6.19 9.8, 4.62 9.83, 3.55 9.58 C2.47 9.33, 1.27 8.65, 0.69 7.82 C0.11 6.99, -0.09 5.66, 0.06 4.58 C0.22 3.5, 0.82 2.14, 1.62 1.34 C2.43 0.53, 4.38 -0.05, 4.89 -0.26 C5.39 -0.47, 4.73 -0.01, 4.66 0.07 M4.97 -0.42 C6.01 -0.41, 7.77 1, 8.62 1.8 C9.47 2.59, 10.12 3.36, 10.07 4.36 C10.02 5.36, 9.08 7, 8.33 7.8 C7.57 8.6, 6.48 8.91, 5.56 9.16 C4.64 9.42, 3.7 9.67, 2.79 9.33 C1.88 8.99, 0.61 8.02, 0.11 7.1 C-0.38 6.18, -0.45 4.75, -0.18 3.79 C0.1 2.83, 0.88 1.93, 1.77 1.34 C2.65 0.76, 4.47 0.43, 5.12 0.28 C5.78 0.12, 5.72 0.28, 5.68 0.4" stroke="#228be6" stroke-width="2" fill="none"></path></g><g stroke-linecap="round"><g transform="translate(595.8237470238964 162.32145370297985) rotate(0 0.2737559388383488 -0.9581457859339935)"><path d="M-0.18 0.26 C-0.08 -0.1, 0.77 -1.45, 0.88 -1.87 M0.37 0.09 C0.43 -0.05, 0.8 -1.04, 0.76 -1.39" stroke="#228be6" stroke-width="2" fill="none"></path></g></g><mask></mask><g stroke-linecap="round"><g transform="translate(599.0341575793645 163.19249532655704) rotate(0 0.9581457859339935 -0.3608601011958399)"><path d="M0.33 0.05 C0.66 -0.16, 1.56 -0.89, 1.81 -1.02 M0.07 -0.23 C0.36 -0.43, 1.23 -0.71, 1.47 -0.72" stroke="#228be6" stroke-width="2" fill="none"></path></g></g><mask></mask><g stroke-linecap="round"><g transform="translate(600.2536158523708 166.95041775970094) rotate(0 1.2567886283027292 0.24886903530750715)"><path d="M-0.11 -0.3 C0.24 -0.22, 1.98 0.36, 2.4 0.52 M0.48 0.32 C0.74 0.45, 1.79 1.02, 2.06 0.98" stroke="#228be6" stroke-width="2" fill="none"></path></g></g><mask></mask><g stroke-linecap="round"><g transform="translate(599.4074611323249 170.68345328931355) rotate(0 0.659502943564803 0.8088243647493982)"><path d="M-0.12 0.02 C0.11 0.37, 1.02 1.47, 1.21 1.79 M0.47 -0.28 C0.65 -0.01, 0.67 0.97, 0.88 1.26" stroke="#228be6" stroke-width="2" fill="none"></path></g></g><mask></mask><g stroke-linecap="round"><g transform="translate(595.6993125062436 172.00245917644315) rotate(0 -0.14932142118459524 1.0701368518223262)"><path d="M-0.11 0.17 C-0.18 0.58, -0.54 2.15, -0.57 2.48 M0.49 -0.04 C0.53 0.27, 0.25 1.6, 0.09 2.02" stroke="#228be6" stroke-width="2" fill="none"></path></g></g><mask></mask><g stroke-linecap="round"><g transform="translate(592.7875447931456 170.2852628328219) rotate(0 -0.8461547200454334 0.9581457859339935)"><path d="M-0.27 0.33 C-0.53 0.62, -1.43 1.67, -1.67 1.9 M0.24 0.2 C-0.06 0.53, -1.58 2.04, -1.94 2.34" stroke="#228be6" stroke-width="2" fill="none"></path></g></g><mask></mask><g stroke-linecap="round"><g transform="translate(591.6427472307314 166.92553085616964) rotate(0 -1.63009218126399 0)"><path d="M0.02 -0.02 C-0.48 -0.1, -2.75 -0.2, -3.27 -0.19 M-0.39 -0.33 C-0.92 -0.23, -3.08 0.03, -3.55 0.16" stroke="#228be6" stroke-width="2" fill="none"></path></g></g><mask></mask><g stroke-linecap="round"><g transform="translate(593.3101697672919 163.3169298442117) rotate(0 -0.9581457859339935 -0.24886903530750715)"><path d="M-0.01 -0.19 C-0.31 -0.26, -1.46 -0.44, -1.75 -0.45 M-0.44 0.48 C-0.77 0.47, -1.7 0.24, -1.95 0.02" stroke="#228be6" stroke-width="2" fill="none"></path></g></g><mask></mask><g stroke-linecap="round" transform="translate(593.798251003227 151.4593173128742) rotate(0 3.1204335526149407 3.160749231589307)"><path d="M3.64 -0.26 C4.23 -0.25, 4.79 0.38, 5.2 0.85 C5.61 1.32, 6 1.86, 6.12 2.55 C6.23 3.24, 6.21 4.39, 5.91 4.97 C5.61 5.54, 5.03 5.77, 4.3 5.99 C3.58 6.21, 2.19 6.49, 1.56 6.3 C0.94 6.11, 0.8 5.56, 0.54 4.86 C0.28 4.17, -0.14 2.9, -0.01 2.14 C0.13 1.38, 0.82 0.65, 1.34 0.31 C1.85 -0.04, 2.75 0.12, 3.11 0.05 C3.47 -0.02, 3.43 -0.14, 3.5 -0.13 M3.19 0.26 C3.95 0.24, 5.25 0.66, 5.71 1.18 C6.16 1.69, 5.94 2.77, 5.91 3.34 C5.89 3.9, 5.91 4.11, 5.56 4.58 C5.2 5.05, 4.4 5.95, 3.79 6.15 C3.17 6.36, 2.4 6.05, 1.89 5.83 C1.38 5.61, 1.02 5.4, 0.74 4.84 C0.46 4.29, 0.05 3.22, 0.2 2.5 C0.34 1.77, 1.04 0.89, 1.6 0.5 C2.17 0.12, 3.32 0.29, 3.58 0.18 C3.84 0.07, 3.26 -0.12, 3.17 -0.15" stroke="#228be6" stroke-width="2" fill="none"></path></g><g stroke-linecap="round"><g transform="translate(596.9267476916375 151.55607494241303) rotate(0 0.17738898748712018 -0.620861456205148)"><path d="M0.14 0.22 C0.16 0.06, 0.27 -0.65, 0.26 -0.9 M-0.22 0.03 C-0.27 -0.22, -0.23 -1.19, -0.06 -1.35" stroke="#228be6" stroke-width="2" fill="none"></path></g></g><mask></mask><g stroke-linecap="round"><g transform="translate(599.0070367267144 152.12049444805416) rotate(0 0.620861456205148 -0.23383093805114186)"><path d="M-0.09 0.34 C0.04 0.21, 0.74 -0.4, 0.95 -0.55 M0.51 0.2 C0.74 0.11, 1.53 -0.07, 1.6 -0.14" stroke="#228be6" stroke-width="2" fill="none"></path></g></g><mask></mask><g stroke-linecap="round"><g transform="translate(599.7972240346116 154.55556145810624) rotate(0 0.8143767152819237 0.16126271589746466)"><path d="M-0.29 -0.08 C-0.01 -0.1, 1.33 0.11, 1.6 0.21 M0.21 -0.43 C0.45 -0.25, 1 0.54, 1.3 0.6" stroke="#228be6" stroke-width="2" fill="none"></path></g></g><mask></mask><g stroke-linecap="round"><g transform="translate(599.2489308005606 156.9745021965664) rotate(0 0.4273461971283723 0.5241038266665328)"><path d="M-0.03 -0.11 C0.11 0.11, 0.41 1.01, 0.57 1.26 M-0.47 -0.48 C-0.2 -0.35, 1.02 0.52, 1.22 0.74" stroke="#228be6" stroke-width="2" fill="none"></path></g></g><mask></mask><g stroke-linecap="round"><g transform="translate(596.8461163336888 157.82919459082223) rotate(0 -0.09675762953838785 0.6934296783588252)"><path d="M-0.29 0.21 C-0.31 0.51, -0.12 1.58, -0.14 1.72 M0.21 0.01 C0.15 0.23, -0.41 1.05, -0.4 1.27" stroke="#228be6" stroke-width="2" fill="none"></path></g></g><mask></mask><g stroke-linecap="round"><g transform="translate(594.9593425576895 156.71648185113008) rotate(0 -0.548293234051016 0.620861456205148)"><path d="M0.05 0.33 C-0.12 0.45, -1.17 0.73, -1.32 0.92 M-0.35 0.2 C-0.39 0.33, -0.54 1.09, -0.63 1.21" stroke="#228be6" stroke-width="2" fill="none"></path></g></g><mask></mask><g stroke-linecap="round"><g transform="translate(594.2175340645608 154.53943518651613) rotate(0 -1.0562707891281207 0)"><path d="M-0.22 -0.32 C-0.54 -0.33, -1.59 0.2, -1.85 0.24 M0.31 0.29 C-0.03 0.32, -1.63 -0.26, -1.99 -0.26" stroke="#228be6" stroke-width="2" fill="none"></path></g></g><mask></mask><g stroke-linecap="round"><g transform="translate(595.2979942610727 152.2011258060029) rotate(0 -0.620861456205148 -0.16126271589746466)"><path d="M0.26 0.24 C0.15 0.22, -0.62 -0.34, -0.92 -0.42 M-0.03 0.05 C-0.15 0.11, -0.9 -0.04, -1.03 -0.03" stroke="#228be6" stroke-width="2" fill="none"></path></g></g><mask></mask><g stroke-linecap="round"><g transform="translate(549.746143254346 207.4934822635896) rotate(0 165.83333333333348 -0.8333333333332575)"><path d="M1.1 -0.34 C56.07 -0.72, 275.78 -1.06, 330.69 -1.46 M0.22 -1.57 C55.47 -2.4, 277.44 -3.41, 332.89 -3.47" stroke="#1e1e1e" stroke-width="4" fill="none"></path></g></g><mask></mask><g stroke-linecap="round" transform="translate(959.746143254346 120.82681559692355) rotate(0 164.16666666666652 213.33333333333348)"><path d="M32 0 C135.77 0.26, 237.6 1.88, 296.33 0 M32 0 C113.44 -0.51, 195.49 -0.09, 296.33 0 M296.33 0 C317.03 1.02, 329.98 11.8, 328.33 32 M296.33 0 C316.23 2.28, 327.66 9.03, 328.33 32 M328.33 32 C327.59 128.44, 328.89 223, 328.33 394.67 M328.33 32 C330.04 148.9, 329.53 265.11, 328.33 394.67 M328.33 394.67 C327.12 414.81, 317.32 425.17, 296.33 426.67 M328.33 394.67 C327.69 414.26, 318.08 425.78, 296.33 426.67 M296.33 426.67 C210.11 428.84, 121.83 427.55, 32 426.67 M296.33 426.67 C216.03 428.24, 136.14 428.45, 32 426.67 M32 426.67 C11.88 425.88, -0.03 414.95, 0 394.67 M32 426.67 C10.39 425.37, 0.69 414.31, 0 394.67 M0 394.67 C-1.14 291.25, -2.35 187.65, 0 32 M0 394.67 C0.94 260.76, 1.75 127.14, 0 32 M0 32 C-1.61 12.13, 11.54 -1.32, 32 0 M0 32 C0.67 8.55, 10.4 0.2, 32 0" stroke="#1e1e1e" stroke-width="4" fill="none"></path></g><g stroke-linecap="round"><g transform="translate(1004.231137163657 124.64220566251242) rotate(0 1.3483394240215603 35.19693318579448)"><path d="M0 0 C-7.81 2.9, -11.95 4.35, -27.86 13.45 M0 0 C-10.25 5.68, -19.41 9.8, -27.86 13.45 M-27.86 13.45 C-28.18 25.01, -34.07 37.04, -34.36 45.33 M-27.86 13.45 C-28.87 23.3, -31.4 32.17, -34.36 45.33 M-34.36 45.33 C-26.45 53.63, -20.71 62.2, -14.25 70.42 M-34.36 45.33 C-29.84 50.77, -24.54 57.18, -14.25 70.42 M-14.25 70.42 C-2.43 70.72, 6.81 69.33, 17.04 71.15 M-14.25 70.42 C-4.7 70.74, 5.37 71.22, 17.04 71.15 M17.04 71.15 C23.3 61.65, 30.44 53.22, 37.06 45.44 M17.04 71.15 C20.95 65.36, 25.75 58.58, 37.06 45.44 M37.06 45.44 C37.26 38.56, 34.31 35.09, 31.88 16.2 M37.06 45.44 C36.14 35.86, 34.41 26.65, 31.88 16.2 M31.88 16.2 C24.42 11.42, 12.16 5.21, 0.59 -0.75 M31.88 16.2 C21.41 10.88, 12.92 6.31, 0.59 -0.75" stroke="#aaa" stroke-width="4" fill="none"></path></g></g><mask></mask><g stroke-linecap="round"><g transform="translate(1005.005371121797 124.03290367819682) rotate(0 0.31608576178450676 35.45428628015702)" fill-rule="evenodd"><path d="M-0.28 -0.3 L-28.4 14.68 L-36.18 44.3 L-15.29 71.58 L14.53 69.77 L34.78 43.4 L28.53 11.53 L0.75 1.01" stroke="none" stroke-width="0" fill="#228be6" fill-rule="evenodd"></path><path d="M0 0 C-5.81 1.59, -11.09 4.29, -28.24 13.59 M0 0 C-10.11 5.45, -18.68 10.18, -28.24 13.59 M-28.24 13.59 C-30.97 20.36, -31.36 28.82, -35.09 45.31 M-28.24 13.59 C-29.52 22.02, -30.87 29.79, -35.09 45.31 M-35.09 45.31 C-29.17 52.87, -22.78 62.44, -15.7 70.49 M-35.09 45.31 C-30.61 50.73, -26.12 56.79, -15.7 70.49 M-15.7 70.49 C-3.06 69.31, 8.92 71.74, 15.7 70.91 M-15.7 70.49 C-3.67 71.11, 7.77 70.31, 15.7 70.91 M15.7 70.91 C20.68 63.85, 26.32 55.25, 35.72 45.2 M15.7 70.91 C22.64 60.86, 29.27 53.16, 35.72 45.2 M35.72 45.2 C33.36 39.09, 32.17 27.86, 28.76 13.49 M35.72 45.2 C33.28 32.4, 30.27 21.58, 28.76 13.49 M28.76 13.49 C19.88 9.14, 14.7 5.39, 0 0 M28.76 13.49 C18.5 8.79, 6.82 3.81, 0 0 M0 0 C0 0, 0 0, 0 0 M0 0 C0 0, 0 0, 0 0" stroke="#fff" stroke-width="2" fill="none"></path></g></g><mask></mask><g stroke-linecap="round"><g transform="translate(1005.1868232630932 135.49871535166494) rotate(0 0.19316747069342455 21.486189734145455)" fill-rule="evenodd"><path d="M-0.08 0.55 L-17.8 7.73 L-21.24 28 L-10.18 42.15 L9.12 42.07 L21.71 26.42 L17.95 8.68 L-0.83 0" stroke="none" stroke-width="0" fill="#fff" fill-rule="evenodd"></path><path d="M0 0 C-4.97 1.83, -10.3 4.44, -17.26 8.24 M0 0 C-6.47 3.59, -14.02 7.06, -17.26 8.24 M-17.26 8.24 C-18.55 13.52, -20.01 19.48, -21.44 27.46 M-17.26 8.24 C-18.44 15.09, -20.03 22.29, -21.44 27.46 M-21.44 27.46 C-18.91 31.37, -15.92 35.31, -9.59 42.72 M-21.44 27.46 C-18.62 30.9, -15.68 34.68, -9.59 42.72 M-9.59 42.72 C-3.47 43.33, 3.19 42.98, 9.59 42.97 M-9.59 42.72 C-2.99 42.56, 3.03 42.58, 9.59 42.97 M9.59 42.97 C12.43 38.31, 17.26 33.33, 21.83 27.39 M9.59 42.97 C13.01 38.46, 17.06 33.58, 21.83 27.39 M21.83 27.39 C20.81 21.63, 20.36 17.87, 17.58 8.17 M21.83 27.39 C20.75 22.92, 19.55 18.76, 17.58 8.17 M17.58 8.17 C12.22 4.85, 7.34 2.22, 0 0 M17.58 8.17 C12.58 6.26, 8.02 3.32, 0 0 M0 0 C0 0, 0 0, 0 0 M0 0 C0 0, 0 0, 0 0" stroke="#fff" stroke-width="2" fill="none"></path></g></g><mask></mask><g stroke-linecap="round" transform="translate(996.2076918382936 156.50545407202662) rotate(0 3.1204335526149407 3.160749231589307)"><path d="M2.95 0.29 C3.56 0.17, 4.46 0.01, 5.04 0.33 C5.63 0.64, 6.33 1.52, 6.45 2.18 C6.56 2.84, 6.07 3.67, 5.74 4.31 C5.41 4.95, 5.05 5.66, 4.47 6.03 C3.88 6.39, 2.85 6.67, 2.24 6.52 C1.63 6.36, 1.17 5.66, 0.81 5.1 C0.45 4.54, 0.08 3.82, 0.08 3.16 C0.08 2.5, 0.33 1.67, 0.81 1.13 C1.28 0.58, 2.62 0.11, 2.95 -0.1 C3.27 -0.31, 2.79 -0.19, 2.75 -0.13 M2.82 -0.17 C3.5 -0.22, 4.34 0.04, 4.97 0.51 C5.59 0.97, 6.37 1.93, 6.56 2.6 C6.74 3.26, 6.47 3.91, 6.08 4.48 C5.69 5.05, 4.79 5.65, 4.22 5.99 C3.66 6.34, 3.27 6.69, 2.67 6.56 C2.08 6.43, 1.05 5.76, 0.65 5.22 C0.26 4.67, 0.22 4.02, 0.3 3.28 C0.38 2.55, 0.73 1.4, 1.13 0.81 C1.54 0.23, 2.47 -0.07, 2.73 -0.24 C2.98 -0.41, 2.65 -0.23, 2.68 -0.2" stroke="#228be6" stroke-width="2" fill="none"></path></g><g stroke-linecap="round"><g transform="translate(999.3361885267041 156.60221170156547) rotate(0 0.17738898748712018 -0.620861456205148)"><path d="M-0.23 0.35 C-0.15 0.14, 0.09 -0.83, 0.24 -1.06 M0.3 0.21 C0.34 -0.1, -0.14 -1.28, -0.09 -1.59" stroke="#228be6" stroke-width="2" fill="none"></path></g></g><mask></mask><g stroke-linecap="round"><g transform="translate(1001.416477561781 157.1666312072066) rotate(0 0.620861456205148 -0.23383093805114186)"><path d="M-0.11 0.18 C0.18 0.08, 1.34 -0.22, 1.53 -0.27 M0.47 -0.03 C0.77 -0.09, 1.19 -0.69, 1.4 -0.79" stroke="#228be6" stroke-width="2" fill="none"></path></g></g><mask></mask><g stroke-linecap="round"><g transform="translate(1002.2066648696782 159.60169821725685) rotate(0 0.8143767152819237 0.16126271589746466)"><path d="M0.29 0.2 C0.55 0.28, 1.2 0.7, 1.41 0.68 M0.01 0 C0.39 -0.03, 1.88 0.18, 2.09 0.23" stroke="#228be6" stroke-width="2" fill="none"></path></g></g><mask></mask><g stroke-linecap="round"><g transform="translate(1001.6583716356272 162.02063895571882) rotate(0 0.4273461971283723 0.5241038266665328)"><path d="M-0.22 0.35 C-0.15 0.45, 0.59 0.68, 0.75 0.79 M0.31 0.23 C0.31 0.35, 0.4 0.92, 0.42 1.12" stroke="#228be6" stroke-width="2" fill="none"></path></g></g><mask></mask><g stroke-linecap="round"><g transform="translate(999.2555571687553 162.87533134997466) rotate(0 -0.09675762953838785 0.6934296783588252)"><path d="M-0.1 -0.25 C-0.12 -0.09, -0.32 1.11, -0.33 1.35 M0.49 0.38 C0.43 0.76, -0.53 1.59, -0.67 1.79" stroke="#228be6" stroke-width="2" fill="none"></path></g></g><mask></mask><g stroke-linecap="round"><g transform="translate(997.3687833927561 161.76261861028252) rotate(0 -0.548293234051016 0.620861456205148)"><path d="M-0.13 -0.03 C-0.29 0.19, -0.95 0.84, -1.06 1.09 M0.45 -0.36 C0.25 -0.06, -1.11 1.26, -1.33 1.47" stroke="#228be6" stroke-width="2" fill="none"></path></g></g><mask></mask><g stroke-linecap="round"><g transform="translate(996.6269748996274 159.58557194566674) rotate(0 -1.0562707891281207 0)"><path d="M0.03 -0.15 C-0.25 -0.11, -1.46 0.18, -1.81 0.22 M-0.38 -0.53 C-0.67 -0.59, -1.62 -0.47, -1.93 -0.29" stroke="#228be6" stroke-width="2" fill="none"></path></g></g><mask></mask><g stroke-linecap="round"><g transform="translate(997.7074350961393 157.24726256515532) rotate(0 -0.620861456205148 -0.16126271589746466)"><path d="M0.3 0.22 C0.1 0.2, -0.95 -0.14, -1.17 -0.25 M0.03 0.02 C-0.21 -0.09, -1.21 -0.82, -1.41 -0.83" stroke="#228be6" stroke-width="2" fill="none"></path></g></g><mask></mask><g stroke-linecap="round" transform="translate(1004.3290210722662 158.8387989484636) rotate(0 4.815615833200354 4.877833092027231)"><path d="M5.43 -0.09 C6.39 -0.11, 7.46 0.52, 8.13 1.28 C8.8 2.04, 9.37 3.41, 9.42 4.47 C9.48 5.53, 9.08 6.78, 8.46 7.65 C7.85 8.51, 6.71 9.38, 5.73 9.67 C4.75 9.96, 3.47 9.78, 2.58 9.37 C1.7 8.95, 0.78 8.13, 0.42 7.17 C0.06 6.21, 0.14 4.69, 0.43 3.6 C0.72 2.5, 1.35 1.19, 2.18 0.62 C3.01 0.06, 4.84 0.28, 5.43 0.2 C6.03 0.13, 5.72 0.08, 5.73 0.16 M5.26 -0.24 C6.18 -0.22, 7.43 0.44, 8.18 1.17 C8.93 1.89, 9.69 2.98, 9.77 4.11 C9.85 5.25, 9.34 7.06, 8.66 7.99 C7.99 8.92, 6.72 9.52, 5.7 9.67 C4.69 9.82, 3.51 9.28, 2.56 8.88 C1.6 8.48, 0.41 8.08, -0.03 7.26 C-0.47 6.44, -0.41 5.04, -0.09 3.95 C0.23 2.87, 0.91 1.42, 1.88 0.76 C2.84 0.11, 5.21 0.1, 5.71 0.05 C6.2 0.01, 4.9 0.46, 4.85 0.48" stroke="#228be6" stroke-width="2" fill="none"></path></g><g stroke-linecap="round"><g transform="translate(1009.1570803572322 158.98812036964773) rotate(0 0.2737559388383488 -0.9581457859339935)"><path d="M0.22 -0.07 C0.33 -0.38, 0.68 -1.46, 0.71 -1.8 M-0.09 -0.41 C-0.03 -0.83, 0.48 -2.13, 0.52 -2.36" stroke="#228be6" stroke-width="2" fill="none"></path></g></g><mask></mask><g stroke-linecap="round"><g transform="translate(1012.3674909126985 159.8591619932231) rotate(0 0.9581457859339935 -0.3608601011958399)"><path d="M0.16 0.12 C0.42 -0.02, 1.54 -0.7, 1.79 -0.88 M-0.18 -0.13 C0 -0.21, 1.01 -0.42, 1.45 -0.51" stroke="#228be6" stroke-width="2" fill="none"></path></g></g><mask></mask><g stroke-linecap="round"><g transform="translate(1013.5869491857065 163.617084426367) rotate(0 1.2567886283027292 0.24886903530750715)"><path d="M-0.12 -0.16 C0.23 -0.13, 1.87 0.22, 2.3 0.29 M0.46 0.53 C0.91 0.59, 2.69 0.64, 2.98 0.63" stroke="#228be6" stroke-width="2" fill="none"></path></g></g><mask></mask><g stroke-linecap="round"><g transform="translate(1012.7407944656607 167.3501199559796) rotate(0 0.659502943564803 0.8088243647493982)"><path d="M-0.22 -0.21 C0.01 0.04, 1.02 1.09, 1.26 1.35 M0.32 0.45 C0.51 0.75, 0.84 1.47, 0.95 1.67" stroke="#228be6" stroke-width="2" fill="none"></path></g></g><mask></mask><g stroke-linecap="round"><g transform="translate(1009.0326458395775 168.6691258431092) rotate(0 -0.14932142118459524 1.0701368518223262)"><path d="M-0.06 -0.27 C-0.09 0.08, -0.37 1.49, -0.4 1.87 M-0.52 0.36 C-0.59 0.77, -0.74 1.86, -0.73 2.18" stroke="#228be6" stroke-width="2" fill="none"></path></g></g><mask></mask><g stroke-linecap="round"><g transform="translate(1006.1208781264795 166.95192949948796) rotate(0 -0.8461547200454334 0.9581457859339935)"><path d="M-0.1 -0.27 C-0.36 0.07, -1.38 1.42, -1.63 1.78 M0.5 0.36 C0.2 0.77, -1.5 1.84, -1.87 2.16" stroke="#228be6" stroke-width="2" fill="none"></path></g></g><mask></mask><g stroke-linecap="round"><g transform="translate(1004.9760805640653 163.5921975228357) rotate(0 -1.63009218126399 0)"><path d="M0.06 -0.14 C-0.45 -0.09, -2.65 -0.07, -3.15 0 M-0.33 -0.51 C-0.87 -0.39, -2.93 0.41, -3.37 0.45" stroke="#228be6" stroke-width="2" fill="none"></path></g></g><mask></mask><g stroke-linecap="round"><g transform="translate(1006.6435031006258 159.98359651087776) rotate(0 -0.9581457859339935 -0.24886903530750715)"><path d="M0.11 0 C-0.17 -0.02, -1.27 -0.16, -1.59 -0.24 M-0.26 -0.31 C-0.56 -0.41, -1.41 -0.77, -1.71 -0.73" stroke="#228be6" stroke-width="2" fill="none"></path></g></g><mask></mask><g stroke-linecap="round" transform="translate(1007.1315843365628 148.12598397954207) rotate(0 3.1204335526149407 3.160749231589307)"><path d="M3.22 0.16 C3.88 0.18, 4.89 0.35, 5.41 0.81 C5.92 1.27, 6.21 2.2, 6.3 2.9 C6.4 3.6, 6.35 4.48, 5.96 5.02 C5.58 5.56, 4.67 5.98, 3.97 6.16 C3.28 6.33, 2.43 6.29, 1.8 6.06 C1.16 5.83, 0.52 5.36, 0.19 4.76 C-0.14 4.16, -0.38 3.19, -0.18 2.47 C0.02 1.75, 0.79 0.9, 1.38 0.46 C1.97 0.03, 3.07 -0.01, 3.36 -0.12 C3.66 -0.24, 3.12 -0.28, 3.14 -0.23 M3.94 0.06 C4.55 0.17, 4.58 0.94, 5 1.37 C5.42 1.81, 6.33 2.13, 6.45 2.67 C6.58 3.21, 6.21 4, 5.76 4.6 C5.31 5.21, 4.48 5.99, 3.76 6.28 C3.04 6.58, 2.01 6.75, 1.44 6.37 C0.86 5.98, 0.58 4.66, 0.32 3.98 C0.06 3.3, -0.25 2.81, -0.13 2.3 C0 1.79, 0.52 1.3, 1.06 0.9 C1.59 0.5, 2.65 -0.01, 3.1 -0.11 C3.55 -0.2, 3.71 0.2, 3.74 0.33" stroke="#228be6" stroke-width="2" fill="none"></path></g><g stroke-linecap="round"><g transform="translate(1010.2600810249714 148.2227416090791) rotate(0 0.17738898748712018 -0.620861456205148)"><path d="M0.06 0.07 C0.03 -0.18, 0.05 -1.05, 0.13 -1.23 M-0.34 -0.21 C-0.28 -0.42, 0.68 -0.54, 0.81 -0.77" stroke="#228be6" stroke-width="2" fill="none"></path></g></g><mask></mask><g stroke-linecap="round"><g transform="translate(1012.3403700600484 148.78716111472022) rotate(0 0.620861456205148 -0.23383093805114186)"><path d="M-0.23 0.01 C0 -0.04, 1.17 -0.18, 1.42 -0.24 M0.3 -0.29 C0.49 -0.44, 1.1 -0.63, 1.23 -0.75" stroke="#228be6" stroke-width="2" fill="none"></path></g></g><mask></mask><g stroke-linecap="round"><g transform="translate(1013.1305573679456 151.2222281247723) rotate(0 0.8143767152819237 0.16126271589746466)"><path d="M0.17 0.23 C0.49 0.3, 1.36 0.38, 1.64 0.43 M-0.16 0.04 C0.12 -0.01, 1.06 -0.13, 1.37 -0.14" stroke="#228be6" stroke-width="2" fill="none"></path></g></g><mask></mask><g stroke-linecap="round"><g transform="translate(1012.5822641338946 153.64116886323245) rotate(0 0.4273461971283723 0.5241038266665328)"><path d="M0.01 0.1 C0.16 0.27, 0.89 1.11, 1.07 1.25 M-0.41 -0.15 C-0.3 -0.1, 0.67 0.5, 0.9 0.73" stroke="#228be6" stroke-width="2" fill="none"></path></g></g><mask></mask><g stroke-linecap="round"><g transform="translate(1010.1794496670227 154.4958612574901) rotate(0 -0.09675762953838785 0.6934296783588252)"><path d="M0.21 0.2 C0.21 0.39, 0.09 1.08, 0.02 1.25 M-0.11 -0.01 C-0.13 0.22, -0.09 1.38, -0.15 1.63" stroke="#228be6" stroke-width="2" fill="none"></path></g></g><mask></mask><g stroke-linecap="round"><g transform="translate(1008.2926758910235 153.38314851779796) rotate(0 -0.548293234051016 0.620861456205148)"><path d="M0.21 -0.14 C0 0, -0.88 0.86, -1.1 1.06 M-0.1 -0.52 C-0.39 -0.35, -1.17 1.1, -1.38 1.41" stroke="#228be6" stroke-width="2" fill="none"></path></g></g><mask></mask><g stroke-linecap="round"><g transform="translate(1007.5508673978948 151.2061018531822) rotate(0 -1.0562707891281207 0)"><path d="M0 -0.19 C-0.4 -0.2, -1.82 -0.19, -2.16 -0.2 M-0.43 0.49 C-0.9 0.53, -2.16 0.23, -2.45 0.15" stroke="#228be6" stroke-width="2" fill="none"></path></g></g><mask></mask><g stroke-linecap="round"><g transform="translate(1008.6313275944085 148.86779247266895) rotate(0 -0.620861456205148 -0.16126271589746466)"><path d="M-0.04 -0.2 C-0.23 -0.27, -0.93 -0.6, -1.13 -0.58 M-0.49 0.46 C-0.72 0.45, -1.18 -0.07, -1.36 -0.27" stroke="#228be6" stroke-width="2" fill="none"></path></g></g><mask></mask><g stroke-linecap="round"><g transform="translate(959.746143254346 204.16014893025567) rotate(0 165.83333333333348 -0.8333333333332575)"><path d="M0.36 -0.88 C55.63 -0.93, 276.39 -0.87, 331.47 -0.97 M-0.91 1.27 C54.2 0.93, 274.71 -2.5, 330.42 -2.73" stroke="#1e1e1e" stroke-width="4" fill="none"></path></g></g><mask></mask><g transform="translate(230.31384095691647 167.35714285714312) rotate(0 29.95996856689453 12.5)"><text x="29.95996856689453" y="0" font-family="Virgil, Segoe UI Emoji" font-size="20px" fill="#1e1e1e" text-anchor="middle" style="white-space: pre;" direction="ltr" dominant-baseline="text-before-edge">Node-1</text></g><g transform="translate(642.5705115908677 160.69047619047706) rotate(0 34.369964599609375 12.5)"><text x="34.369964599609375" y="0" font-family="Virgil, Segoe UI Emoji" font-size="20px" fill="#1e1e1e" text-anchor="middle" style="white-space: pre;" direction="ltr" dominant-baseline="text-before-edge">Node-2</text></g><g transform="translate(1066.21385011219 160.69047619047524) rotate(0 34.059959411621094 12.5)"><text x="34.059959411621094" y="0" font-family="Virgil, Segoe UI Emoji" font-size="20px" fill="#1e1e1e" text-anchor="middle" style="white-space: pre;" direction="ltr" dominant-baseline="text-before-edge">Node-3</text></g><g stroke-linecap="round" transform="translate(151.83333333333394 274.00000000000045) rotate(0 146 130)"><path d="M32 0 C93.88 3.95, 156.02 0.02, 260 0 C279.17 -2.49, 288.83 13.47, 292 32 C292.68 99.32, 286.95 158.23, 292 228 C293.3 249.49, 279.53 259.35, 260 260 C211.82 263.4, 160.74 262.14, 32 260 C11.71 258.92, -1.99 248.1, 0 228 C-5.22 151.35, -2.62 72.46, 0 32 C0.82 13.77, 7.31 1.71, 32 0" stroke="none" stroke-width="0" fill="#a5d8ff"></path><path d="M32 0 C109.64 -2.39, 185.73 -3.09, 260 0 M260 0 C280.78 1.06, 292.25 11.73, 292 32 M292 32 C290.8 87.87, 290.49 145.46, 292 228 M292 228 C293.44 250.65, 279.46 258.6, 260 260 M260 260 C179.81 257.44, 94.94 259.13, 32 260 M32 260 C9.33 258.3, 0.83 251.23, 0 228 M0 228 C-0.62 164.11, -0.97 100.02, 0 32 M0 32 C-0.28 11.62, 11.83 1.51, 32 0" stroke="#1971c2" stroke-width="4.5" fill="none" stroke-dasharray="1.5 10"></path></g><g transform="translate(171.83329518636128 359.00000000000045) rotate(0 126.00003814697266 45)"><text x="126.00003814697266" y="0" font-family="Virgil, Segoe UI Emoji" font-size="36px" fill="#1e1e1e" text-anchor="middle" style="white-space: pre;" direction="ltr" dominant-baseline="text-before-edge">Consommation </text><text x="126.00003814697266" y="45" font-family="Virgil, Segoe UI Emoji" font-size="36px" fill="#1e1e1e" text-anchor="middle" style="white-space: pre;" direction="ltr" dominant-baseline="text-before-edge">relle</text></g><g stroke-linecap="round" transform="translate(153.60714285714312 502.0238095238092) rotate(0 146.66666666666652 17.5)"><path d="M8.75 0 C76.52 3.99, 142.08 4.88, 284.58 0 C289.03 3.04, 294.08 4.82, 293.33 8.75 C296.09 13.65, 295.75 13.8, 293.33 26.25 C292.65 33.64, 289.51 32.4, 284.58 35 C222.33 32.64, 155.9 35.92, 8.75 35 C2.04 33.78, 3.48 30.97, 0 26.25 C2.62 21.46, 1.88 19.12, 0 8.75 C1.4 2.16, 0.48 -1.35, 8.75 0" stroke="none" stroke-width="0" fill="#a5d8ff"></path><path d="M8.75 0 C81.74 1.18, 153.73 1.36, 284.58 0 M8.75 0 C85.34 0.43, 163.52 -0.64, 284.58 0 M284.58 0 C291 -1.84, 293.1 3.09, 293.33 8.75 M284.58 0 C289.2 1.8, 293.65 1, 293.33 8.75 M293.33 8.75 C294.72 11.66, 292.9 18.27, 293.33 26.25 M293.33 8.75 C293.46 14.1, 293.41 20.92, 293.33 26.25 M293.33 26.25 C293.2 30.18, 290.34 34.24, 284.58 35 M293.33 26.25 C294.18 31.48, 291.89 33.74, 284.58 35 M284.58 35 C219.23 34.58, 155.19 33.86, 8.75 35 M284.58 35 C215.26 35.72, 146.49 35.46, 8.75 35 M8.75 35 C2.68 33.05, 0.75 33.1, 0 26.25 M8.75 35 C1 35, 0.85 33.04, 0 26.25 M0 26.25 C-0.41 21.77, 1.17 16.9, 0 8.75 M0 26.25 C0.9 22.47, 0.08 19.38, 0 8.75 M0 8.75 C1.79 4.75, 1.51 -0.1, 8.75 0 M0 8.75 C-1.03 5.2, 4.2 1.44, 8.75 0" stroke="#1971c2" stroke-width="4" fill="none"></path></g><g transform="translate(198.01951759369967 509.00000000000045) rotate(0 89.68018341064453 10)"><text x="89.68018341064453" y="0" font-family="Virgil, Segoe UI Emoji" font-size="16px" fill="#1e1e1e" text-anchor="middle" style="white-space: pre;" direction="ltr" dominant-baseline="text-before-edge">Consommation dclare</text></g><g stroke-linecap="round" transform="translate(171.83333333333394 160.00000000000045) rotate(0 121 56)"><path d="M28 0 C64.21 1.9, 106.07 -2.63, 214 0 C233.49 -2.88, 239.42 9.73, 242 28 C243.5 43.64, 245.27 58.49, 242 84 C238.88 104.24, 229.82 114.82, 214 112 C144.4 113.28, 76.55 115.74, 28 112 C12.21 111.98, 1.19 104.63, 0 84 C-2.89 63.75, 3.68 37.87, 0 28 C-0.54 7.83, 10.28 0.97, 28 0" stroke="none" stroke-width="0" fill="#b2f2bb"></path><path d="M28 0 C64.32 1.11, 104.61 -1.41, 214 0 M28 0 C96.13 0.31, 162.64 1.9, 214 0 M214 0 C231.44 -1.99, 243.83 10.37, 242 28 M214 0 C231.95 -1.47, 241.81 11.02, 242 28 M242 28 C241.69 44.02, 243.3 63.78, 242 84 M242 28 C241.41 42.39, 241.8 57.71, 242 84 M242 84 C243.9 101.47, 231.66 111.9, 214 112 M242 84 C239.85 104.2, 230.42 113.37, 214 112 M214 112 C170 112.1, 120.51 114.51, 28 112 M214 112 C167.32 113.36, 121.88 114.26, 28 112 M28 112 C11.07 113.83, 1.2 103.85, 0 84 M28 112 C9.52 113.45, 1.57 102.96, 0 84 M0 84 C-1.44 61.96, -0.69 38.75, 0 28 M0 84 C0.13 64.95, 0.51 47.32, 0 28 M0 28 C1.01 10.8, 11.28 1.99, 28 0 M0 28 C-0.36 7.61, 7.69 1.89, 28 0" stroke="#2f9e44" stroke-width="4" fill="none"></path></g><g transform="translate(198.53131612141988 193.50000000000045) rotate(0 94.30201721191406 22.5)"><text x="94.30201721191406" y="0" font-family="Virgil, Segoe UI Emoji" font-size="36px" fill="#1e1e1e" text-anchor="middle" style="white-space: pre;" direction="ltr" dominant-baseline="text-before-edge">Pod 256Mi</text></g><g stroke-linecap="round" transform="translate(596.8333333333339 420.00000000000045) rotate(0 121 56)"><path d="M28 0 C98.72 -2.85, 162.4 2.98, 214 0 C235.17 -0.99, 239.83 12.79, 242 28 C245.97 46.18, 245.22 64.83, 242 84 C240.05 103.87, 229.46 110.26, 214 112 C170.32 112.43, 119.09 108.47, 28 112 C12.81 112.98, -3.28 100.52, 0 84 C-2.65 66.34, 1.46 52.89, 0 28 C-3.37 9.99, 11.08 -1.32, 28 0" stroke="none" stroke-width="0" fill="#b2f2bb"></path><path d="M28 0 C67.36 -1.57, 107.84 -0.09, 214 0 M28 0 C81.47 -0.15, 133.08 0.89, 214 0 M214 0 C231.59 1.71, 242.38 10.47, 242 28 M214 0 C233.43 -1.63, 240.51 9.52, 242 28 M242 28 C239.87 49.97, 240.99 69.47, 242 84 M242 28 C241.93 45.8, 241.28 63.71, 242 84 M242 84 C242.61 103.11, 232.25 110.71, 214 112 M242 84 C243.25 104.08, 233.69 111.25, 214 112 M214 112 C160.56 115.01, 110.2 115.52, 28 112 M214 112 C159.76 110.82, 103.29 111.21, 28 112 M28 112 C8.41 113.1, -0.74 101.91, 0 84 M28 112 C8.32 110.97, 1.04 104.55, 0 84 M0 84 C-0.29 64.31, 0.63 44.88, 0 28 M0 84 C-1.21 62.41, -1.41 41.71, 0 28 M0 28 C-1.18 8.34, 10.55 -1.7, 28 0 M0 28 C-0.26 9.52, 10.29 -0.6, 28 0" stroke="#2f9e44" stroke-width="4" fill="none"></path></g><g transform="translate(623.5313161214199 453.50000000000045) rotate(0 94.30201721191406 22.5)"><text x="94.30201721191406" y="0" font-family="Virgil, Segoe UI Emoji" font-size="36px" fill="#1e1e1e" text-anchor="middle" style="white-space: pre;" direction="ltr" dominant-baseline="text-before-edge">Pod 256Mi</text></g><g stroke-linecap="round" transform="translate(1008.8333333333339 418.00000000000045) rotate(0 121 56)"><path d="M28 0 C79.01 -1.35, 135.01 -5.13, 214 0 C230.53 3.27, 240.74 8.68, 242 28 C240.07 49.32, 239.05 67.98, 242 84 C239.97 104.5, 230.73 109.84, 214 112 C139.99 113.36, 66.72 115.24, 28 112 C8.45 111.64, -2.73 100.01, 0 84 C-2.42 72.43, 0.99 54.95, 0 28 C3.17 5.93, 7.64 -2.02, 28 0" stroke="none" stroke-width="0" fill="#b2f2bb"></path><path d="M28 0 C92.49 -3.21, 157.41 -0.87, 214 0 M28 0 C92.19 -0.58, 156.96 -1.61, 214 0 M214 0 C230.76 -1.32, 242.86 7.84, 242 28 M214 0 C232.31 0.62, 243.71 8.71, 242 28 M242 28 C242.17 39.2, 241.72 51.49, 242 84 M242 28 C241.97 48.36, 242.68 68.73, 242 84 M242 84 C242.65 103.66, 231.32 112.48, 214 112 M242 84 C242.63 101.07, 232.02 110.65, 214 112 M214 112 C170.34 111.24, 127.7 113.44, 28 112 M214 112 C169.99 112.33, 126.55 111.63, 28 112 M28 112 C7.4 112.47, 0.86 103.39, 0 84 M28 112 C11.18 112.18, 0.03 103.29, 0 84 M0 84 C0.6 70.97, 1.69 53.11, 0 28 M0 84 C-1.24 67.98, -1.01 53.69, 0 28 M0 28 C0.49 10.9, 8.23 1.9, 28 0 M0 28 C-0.37 9.2, 11.09 1.46, 28 0" stroke="#2f9e44" stroke-width="4" fill="none"></path></g><g transform="translate(1035.5313161214199 451.50000000000045) rotate(0 94.30201721191406 22.5)"><text x="94.30201721191406" y="0" font-family="Virgil, Segoe UI Emoji" font-size="36px" fill="#1e1e1e" text-anchor="middle" style="white-space: pre;" direction="ltr" dominant-baseline="text-before-edge">Pod 256Mi</text></g></svg>